M48
FMAT,2
ICI,OFF
METRIC,TZ,000.000
T01C0.200
%
G90
M71
T01
G00X80000Y85000
M15
G01X80000Y35000
M16
G05

G00X90000Y85000
M15
G01X90000Y35000
M16
G05

G00X20000Y32939
M15
G01X32583Y32939
G01X32583Y17844
M16
G05

G00X40000Y0
M15
G01X10000Y0
G02X0Y10000I0J10000
G01X0Y40000
G02X10000Y50000I10000J0
G01X40000Y50000
G02X50000Y40000I0J-10000
G01X50000Y10000
G02X40000Y0I-10000J0
M16
G05

G00X74270Y75039
M15
G01X74270Y45039
G02X64270Y35039I-10000J0
G01X34270Y35039
G02X24270Y45039I0J10000
G01X24270Y75039
G02X34270Y85039I10000J0
G01X64270Y85039
G02X74270Y75039I0J-10000
M16
G05

G00X38204Y42206
M15
G01X13451Y42206
G01X13451Y13596
G01X38204Y13596
G01X38204Y42206
M16
G05

G00X92701Y12632
M15
G03X92701Y12632I-12546J0
M16
G05

G00X60277Y65000
M15
G03X60277Y65000I-10277J0
M16
G05

G00X50000Y65000
M15
G01X50000Y71459
G03X56260Y63409I0J-6459
G01X50000Y65000
M16
G05

M30
