M48
FMAT,2
ICI,OFF
METRIC,TZ,000.000
T01C0.500
%
G90
M71
T01
X80000Y85000
X80000Y83600
X80000Y82200
X80000Y80800
X80000Y79400
X80000Y78000
X80000Y76600
X80000Y75200
X80000Y73800
X80000Y72400
X80000Y71000
X80000Y69600
X80000Y68200
X80000Y66800
X80000Y65400
X80000Y64000
X80000Y62600
X80000Y61200
X80000Y59800
X80000Y58400
X80000Y57000
X80000Y55600
X80000Y54200
X80000Y52800
X80000Y51400
X80000Y50000
X80000Y48600
X80000Y47200
X80000Y45800
X80000Y44400
X80000Y43000
X80000Y41600
X80000Y40200
X80000Y38800
X80000Y37400
X80000Y36000

X90000Y85000
X90000Y83600
X90000Y82200
X90000Y80800
X90000Y79400
X90000Y78000
X90000Y76600
X90000Y75200
X90000Y73800
X90000Y72400
X90000Y71000
X90000Y69600
X90000Y68200
X90000Y66800
X90000Y65400
X90000Y64000
X90000Y62600
X90000Y61200
X90000Y59800
X90000Y58400
X90000Y57000
X90000Y55600
X90000Y54200
X90000Y52800
X90000Y51400
X90000Y50000
X90000Y48600
X90000Y47200
X90000Y45800
X90000Y44400
X90000Y43000
X90000Y41600
X90000Y40200
X90000Y38800
X90000Y37400
X90000Y36000

X20000Y32939
X21400Y32939
X22800Y32939
X24200Y32939
X25600Y32939
X27000Y32939
X28400Y32939
X29800Y32939
X31200Y32939
X32583Y32922
X32583Y31522
X32583Y30122
X32583Y28722
X32583Y27322
X32583Y25922
X32583Y24522
X32583Y23122
X32583Y21722
X32583Y20322
X32583Y18922

X40000Y0
X38600Y0
X37200Y0
X35800Y0
X34400Y0
X33000Y0
X31600Y0
X30200Y0
X28800Y0
X27400Y0
X26000Y0
X24600Y0
X23200Y0
X21800Y0
X20400Y0
X19000Y0
X17600Y0
X16200Y0
X14800Y0
X13400Y0
X12000Y0
X10600Y0
X9201Y32
X7818Y241
X6477Y641
X5206Y1224
X4028Y1979
X2967Y2891
X2044Y3942
X1276Y5111
X680Y6376
X265Y7712
X41Y9093
X0Y10492
X0Y11892
X0Y13292
X0Y14692
X0Y16092
X0Y17492
X0Y18892
X0Y20292
X0Y21692
X0Y23092
X0Y24492
X0Y25892
X0Y27292
X0Y28692
X0Y30092
X0Y31492
X0Y32892
X0Y34292
X0Y35692
X0Y37092
X0Y38492
X0Y39892
X83Y41288
X360Y42660
X826Y43979
X1471Y45220
X2282Y46359
X3245Y47374
X4340Y48244
X5546Y48953
X6839Y49487
X8194Y49836
X9584Y49991
X10984Y50000
X12384Y50000
X13784Y50000
X15184Y50000
X16584Y50000
X17984Y50000
X19384Y50000
X20784Y50000
X22184Y50000
X23584Y50000
X24984Y50000
X26384Y50000
X27784Y50000
X29184Y50000
X30584Y50000
X31984Y50000
X33384Y50000
X34784Y50000
X36184Y50000
X37584Y50000
X38984Y50000
X40384Y49993
X41775Y49841
X43131Y49497
X44425Y48968
X45633Y48262
X46731Y47395
X47697Y46384
X48513Y45247
X49162Y44008
X49631Y42690
X49912Y41320
X50000Y39924
X50000Y38524
X50000Y37124
X50000Y35724
X50000Y34324
X50000Y32924
X50000Y31524
X50000Y30124
X50000Y28724
X50000Y27324
X50000Y25924
X50000Y24524
X50000Y23124
X50000Y21724
X50000Y20324
X50000Y18924
X50000Y17524
X50000Y16124
X50000Y14724
X50000Y13324
X50000Y11924
X50000Y10524
X49962Y9125
X49742Y7743
X49332Y6406
X48739Y5139
X47975Y3967
X47055Y2913
X45997Y1998
X44822Y1239
X43553Y652
X42213Y248
X40831Y35

X74270Y75039
X74270Y73639
X74270Y72239
X74270Y70839
X74270Y69439
X74270Y68039
X74270Y66639
X74270Y65239
X74270Y63839
X74270Y62439
X74270Y61039
X74270Y59639
X74270Y58239
X74270Y56839
X74270Y55439
X74270Y54039
X74270Y52639
X74270Y51239
X74270Y49839
X74270Y48439
X74270Y47039
X74270Y45639
X74238Y44240
X74029Y42857
X73629Y41517
X73046Y40245
X72291Y39067
X71380Y38007
X70329Y37083
X69159Y36316
X67894Y35719
X66558Y35305
X65177Y35081
X63778Y35039
X62378Y35039
X60978Y35039
X59578Y35039
X58178Y35039
X56778Y35039
X55378Y35039
X53978Y35039
X52578Y35039
X51178Y35039
X49778Y35039
X48378Y35039
X46978Y35039
X45578Y35039
X44178Y35039
X42778Y35039
X41378Y35039
X39978Y35039
X38578Y35039
X37178Y35039
X35778Y35039
X34378Y35039
X32982Y35123
X31611Y35400
X30292Y35865
X29050Y36510
X27911Y37322
X26896Y38285
X26026Y39380
X25317Y40586
X24783Y41879
X24435Y43233
X24279Y44624
X24270Y46023
X24270Y47423
X24270Y48823
X24270Y50223
X24270Y51623
X24270Y53023
X24270Y54423
X24270Y55823
X24270Y57223
X24270Y58623
X24270Y60023
X24270Y61423
X24270Y62823
X24270Y64223
X24270Y65623
X24270Y67023
X24270Y68423
X24270Y69823
X24270Y71223
X24270Y72623
X24270Y74023
X24278Y75423
X24429Y76814
X24773Y78170
X25303Y79465
X26008Y80673
X26875Y81771
X27887Y82737
X29023Y83552
X30262Y84201
X31580Y84671
X32950Y84952
X34347Y85039
X35747Y85039
X37147Y85039
X38547Y85039
X39947Y85039
X41347Y85039
X42747Y85039
X44147Y85039
X45547Y85039
X46947Y85039
X48347Y85039
X49747Y85039
X51147Y85039
X52547Y85039
X53947Y85039
X55347Y85039
X56747Y85039
X58147Y85039
X59547Y85039
X60947Y85039
X62347Y85039
X63747Y85039
X65145Y85001
X66527Y84781
X67864Y84371
X69131Y83778
X70303Y83015
X71357Y82095
X72272Y81037
X73031Y79862
X73618Y78592
X74022Y77253
X74236Y75870

X38204Y42206
X36804Y42206
X35404Y42206
X34004Y42206
X32604Y42206
X31204Y42206
X29804Y42206
X28404Y42206
X27004Y42206
X25604Y42206
X24204Y42206
X22804Y42206
X21404Y42206
X20004Y42206
X18604Y42206
X17204Y42206
X15804Y42206
X14404Y42206
X13451Y41759
X13451Y40359
X13451Y38959
X13451Y37559
X13451Y36159
X13451Y34759
X13451Y33359
X13451Y31959
X13451Y30559
X13451Y29159
X13451Y27759
X13451Y26359
X13451Y24959
X13451Y23559
X13451Y22159
X13451Y20759
X13451Y19359
X13451Y17959
X13451Y16559
X13451Y15159
X13451Y13759
X14688Y13596
X16088Y13596
X17488Y13596
X18888Y13596
X20288Y13596
X21688Y13596
X23088Y13596
X24488Y13596
X25888Y13596
X27288Y13596
X28688Y13596
X30088Y13596
X31488Y13596
X32888Y13596
X34288Y13596
X35688Y13596
X37088Y13596
X38204Y13881
X38204Y15281
X38204Y16681
X38204Y18081
X38204Y19481
X38204Y20881
X38204Y22281
X38204Y23681
X38204Y25081
X38204Y26481
X38204Y27881
X38204Y29281
X38204Y30681
X38204Y32081
X38204Y33481
X38204Y34881
X38204Y36281
X38204Y37681
X38204Y39081
X38204Y40481
X38204Y41881

X92701Y12632
X92623Y14029
X92390Y15408
X92004Y16754
X91472Y18048
X90798Y19274
X89992Y20418
X89064Y21465
X88025Y22402
X86888Y23218
X85667Y23902
X84378Y24446
X83036Y24842
X81659Y25087
X80262Y25177
X78865Y25111
X77483Y24890
X76134Y24516
X74836Y23995
X73604Y23332
X72453Y22536
X71398Y21617
X70452Y20586
X69626Y19456
X68932Y18241
X68377Y16956
X67969Y15618
X67712Y14242
X67610Y12847
X67664Y11449
X67874Y10065
X68236Y8714
X68746Y7411
X69399Y6173
X70185Y5015
X71095Y3952
X72118Y2997
X73241Y2162
X74449Y1458
X75729Y892
X77064Y472
X78437Y203
X79832Y90
X81230Y132
X82616Y329
X83970Y680
X85278Y1179
X86521Y1821
X87685Y2597
X88756Y3498
X89719Y4512
X90564Y5628
X91279Y6831
X91856Y8106
X92287Y9437
X92568Y10808
X92693Y12201

X60277Y65000
X60182Y66396
X59898Y67765
X59431Y69084
X58789Y70327
X57984Y71471
X57031Y72495
X55948Y73381
X54755Y74111
X53474Y74672
X52128Y75055
X50743Y75250
X49344Y75256
X47957Y75072
X46608Y74701
X45322Y74151
X44123Y73431
X43032Y72555
X42071Y71539
X41256Y70401
X40604Y69164
X40126Y67849
X39830Y66482
X39723Y65087
X39807Y63691
X40079Y62318
X40535Y60996
X41166Y59748
X41961Y58597
X42905Y57564
X43981Y56670
X45168Y55929
X46445Y55357
X47787Y54964
X49170Y54756
X50569Y54739
X51958Y54911
X53310Y55270
X54600Y55810
X55806Y56520
X56903Y57387
X57873Y58395
X58698Y59525
X59360Y60757
X59850Y62067
X60157Y63432
X60276Y64826

X50000Y65000
X50000Y66400
X50000Y67800
X50000Y69200
X50000Y70600
X49460Y71437
X48088Y71170
X46806Y70614
X45674Y69796
X44743Y68754
X44059Y67535
X43653Y66198
X43544Y64805
X43737Y63422
X44223Y62112
X44979Y60937
X45970Y59952
X47150Y59203
X48463Y58726
X49848Y58543
X51241Y58661
X52575Y59076
X53789Y59768
X54825Y60706
X55636Y61844
X56182Y63129
X55184Y63682
X53828Y64027
X52471Y64372
X51114Y64717

M30
