M48
FMAT,2
ICI,OFF
METRIC,TZ,000.000
M71
T01C0.099
T02C0.198
%
T01
X5001Y9500
X5199Y9500
X5400Y9500
X5601Y9500
X5799Y9500
X5999Y9500
X6200Y9500
X6401Y9500
X6599Y9500
X6800Y9500
X7000Y9500
X7201Y9500
X7399Y9500
X7600Y9500
X7800Y9500
X8001Y9500
X8199Y9500
X8400Y9500
X8600Y9500
X8801Y9500
X8999Y9500
T02
X5001Y500
X5400Y500
X5799Y500
X6200Y500
X6599Y500
X7000Y500
X7399Y500
X7800Y500
X8199Y500
X8600Y500
X8999Y500
M30
