M48
FMAT,2
ICI,OFF
METRIC,TZ,000.000
M71
T01C0.100
T02C0.200
%
T01
X5473Y7820
X5660Y7888
X5848Y7957
X6036Y8025
X6224Y8094
X6412Y8162
X6600Y8230
X6788Y8299
X6976Y8367
X7164Y8436
X7352Y8504
X7540Y8572
X7728Y8641
X7916Y8709
X8104Y8778
X8292Y8846
X8480Y8915
X8668Y8983
X8855Y9051
X9043Y9120
X9231Y9188
T02
X8551Y-637
X8927Y-500
X9302Y-364
X9678Y-227
X10054Y-90
X10430Y47
X10806Y184
X11182Y320
X11558Y457
X11934Y594
X12309Y731
M30
