M48
FMAT,2
ICI,OFF
METRIC,TZ,000.000
M71
T01C0.100
T02C0.200
%
T01
X16000Y14500
X16200Y14500
X16400Y14500
X16600Y14500
X16800Y14500
X17000Y14500
X17200Y14500
X17400Y14500
X17600Y14500
X17800Y14500
X18000Y14500
X18200Y14500
X18400Y14500
X18600Y14500
X18800Y14500
X19000Y14500
X19200Y14500
X19400Y14500
X19600Y14500
X19800Y14500
X20000Y14500
T02
X16000Y5500
X16400Y5500
X16800Y5500
X17200Y5500
X17600Y5500
X18000Y5500
X18400Y5500
X18800Y5500
X19200Y5500
X19600Y5500
X20000Y5500
M30
