M48
;GenerationSoftware,Autodesk,EAGLE,9.3.0*%
;CreationDate,2019-03-17T12:32:03Z*%
FMAT,2
ICI,OFF
METRIC,TZ,000.000
T01C0.350
T02C0.850
T03C1.000
T04C1.150
T05C2.750
T06C0.508
T07C0.800
T08C0.930
T09C1.200
T10C0.400
T11C0.500
%
G90
M71
T01
X40640Y8509
X39243Y8509
X35306Y8509
X36576Y8509
X37846Y8509
X15748Y12700
X17018Y12192
X17018Y13462
X19558Y12192
X19558Y13462
X18288Y12700
X22098Y12192
X22098Y13462
X20828Y12700
X23368Y12700
X29718Y7620
X29083Y8890
X28448Y7620
X27178Y7620
X27813Y8890
X28448Y10160
X27178Y10160
X27178Y11430
X42164Y8509
X34036Y8509
X40640Y31009
X39243Y31009
X35306Y31009
X36576Y31009
X37846Y31009
X15748Y35200
X17018Y34692
X17018Y35962
X19558Y34692
X19558Y35962
X18288Y35200
X22098Y34692
X22098Y35962
X20828Y35200
X23368Y35200
X29718Y30120
X29083Y31390
X28448Y30120
X27178Y30120
X27813Y31390
X28448Y32660
X27178Y32660
X27178Y33930
X42164Y31009
X34036Y31009
X4191Y75113
X11557Y75494
X7747Y77018
X7747Y69017
X4064Y87178
X7112Y87178
X8890Y86035
X1651Y84892
X6096Y82479
X12700Y78796
X13335Y78161
X7747Y82225
X7112Y83907
X14450Y94250
X24191Y75113
X31557Y75494
X27747Y77018
X27747Y69017
X24064Y87178
X27112Y87178
X28890Y86035
X21651Y84892
X26096Y82479
X32700Y78796
X33335Y78161
X27747Y82225
X27112Y83907
X34450Y94250
X44191Y75113
X51557Y75494
X47747Y77018
X47747Y69017
X44064Y87178
X47112Y87178
X48890Y86035
X41651Y84892
X46096Y82479
X52700Y78796
X53335Y78161
X47747Y82225
X47112Y83907
X54450Y94250
X85979Y27680
X91725Y27275
X88194Y31940
X93028Y30858
X87811Y26069
X83184Y31830
X69618Y77521
X65808Y80442
X65173Y79680
X68602Y93904
X69618Y93904
X70761Y77394
X69999Y76505
X91618Y77521
X87808Y80442
X87173Y79680
X90602Y93904
X91618Y93904
X92761Y77394
X91999Y76505
T02
X11095Y5667
X11095Y8207
X11095Y10747
X11095Y28167
X11095Y30707
X11095Y33247
T03
X56630Y18070
X15990Y15530
X56630Y15530
X54090Y18070
X54090Y15530
X51550Y18070
X51550Y15530
X49010Y18070
X49010Y15530
X46470Y18070
X46470Y15530
X43930Y18070
X43930Y15530
X41390Y18070
X41390Y15530
X38850Y18070
X38850Y15530
X36310Y18070
X36310Y15530
X33770Y18070
X33770Y15530
X31230Y18070
X31230Y15530
X26150Y15530
X23610Y18070
X23610Y15530
X28690Y18070
X13450Y15530
X8370Y15530
X8370Y18070
X10910Y15530
X10910Y18070
X28690Y15530
X13450Y18070
X26150Y18070
X15990Y18070
X18530Y15530
X18530Y18070
X21070Y15530
X21070Y18070
X56630Y40570
X15990Y38030
X56630Y38030
X54090Y40570
X54090Y38030
X51550Y40570
X51550Y38030
X49010Y40570
X49010Y38030
X46470Y40570
X46470Y38030
X43930Y40570
X43930Y38030
X41390Y40570
X41390Y38030
X38850Y40570
X38850Y38030
X36310Y40570
X36310Y38030
X33770Y40570
X33770Y38030
X31230Y40570
X31230Y38030
X26150Y38030
X23610Y40570
X23610Y38030
X28690Y40570
X13450Y38030
X8370Y38030
X8370Y40570
X10910Y38030
X10910Y40570
X28690Y38030
X13450Y40570
X26150Y40570
X15990Y40570
X18530Y38030
X18530Y40570
X21070Y38030
X21070Y40570
X90676Y52237
X91118Y49736
X91559Y47234
X92000Y44733
X2286Y50985
X4826Y50985
X7366Y50985
X9906Y50985
X72920Y60630
X61490Y98730
X70380Y60630
X67840Y60630
X65300Y60630
X76730Y96190
X61490Y60630
X76730Y60630
X76730Y63170
X76730Y65710
X76730Y68250
X76730Y70790
X76730Y73330
X76730Y75870
X76730Y78410
X76730Y80950
X76730Y83490
X76730Y86030
X76730Y88570
X76730Y91110
X76730Y93650
X61490Y63170
X76730Y98730
X61490Y65710
X61490Y96190
X61490Y93650
X61490Y91110
X61490Y88570
X61490Y86030
X61490Y83490
X61490Y80950
X61490Y78410
X61490Y75870
X61490Y73330
X61490Y70790
X61490Y68250
X94920Y60630
X83490Y98730
X92380Y60630
X89840Y60630
X87300Y60630
X98730Y96190
X83490Y60630
X98730Y60630
X98730Y63170
X98730Y65710
X98730Y68250
X98730Y70790
X98730Y73330
X98730Y75870
X98730Y78410
X98730Y80950
X98730Y83490
X98730Y86030
X98730Y88570
X98730Y91110
X98730Y93650
X83490Y63170
X98730Y98730
X83490Y65710
X83490Y96190
X83490Y93650
X83490Y91110
X83490Y88570
X83490Y86030
X83490Y83490
X83490Y80950
X83490Y78410
X83490Y75870
X83490Y73330
X83490Y70790
X83490Y68250
T04
X8465Y5667
X8465Y10747
X8465Y28167
X8465Y33247
T05
X61500Y16800
X3500Y16800
X61500Y39300
X3500Y39300
T06
X2062Y66253
X2062Y67503
X2062Y68753
X2062Y70003
X22062Y66253
X22062Y67503
X22062Y68753
X22062Y70003
X42062Y66253
X42062Y67503
X42062Y68753
X42062Y70003
T07
X5588Y85527
X25588Y85527
X45588Y85527
X89268Y28776
T08
X11200Y64785
X8700Y64785
X6700Y64785
X4200Y64785
X31200Y64785
X28700Y64785
X26700Y64785
X24200Y64785
X51200Y64785
X48700Y64785
X46700Y64785
X44200Y64785
X76332Y46397
X78794Y46831
X80763Y47178
X83225Y47612
T09
X5450Y62685
X9950Y62685
X25450Y62685
X29950Y62685
X45450Y62685
X49950Y62685
X81630Y49463
X77198Y48682
X67910Y98476
X70310Y98476
X89910Y98476
X92310Y98476
T10
X71900Y43897
X80287Y38025
X83906Y37245
T11
X85936Y30123
X66570Y88570
X65173Y68377
X88570Y88570
X87173Y68377
M30
