M48
;GenerationSoftware,Autodesk,EAGLE,9.3.0*%
;CreationDate,2019-03-17T14:26:03Z*%
FMAT,2
ICI,OFF
METRIC,TZ,000.000
T5C0.350
T4C0.508
T3C0.800
T2C0.930
T1C1.200
%
G90
M71
T1
X5450Y2685
X9950Y2685
T2
X11200Y4785
X8700Y4785
X6700Y4785
X4200Y4785
T3
X5588Y25527
T4
X2062Y6253
X2062Y7503
X2062Y8753
X2062Y10003
T5
X4191Y15113
X11557Y15494
X7747Y17018
X7747Y9017
X4064Y27178
X7112Y27178
X8890Y26035
X1651Y24892
X6096Y22479
X12700Y18796
X13335Y18161
X7747Y22225
X7112Y23907
X14450Y34250
M30