G04 EAGLE Gerber RS-274X export*
G75*
%MOMM*%
%FSLAX34Y34*%
%LPD*%
%INSlot drills/holes*%
%IPPOS*%
%AMOC8*
5,1,8,0,0,1.08239X$1,22.5*%
G01*
%ADD10C,0.000000*%


D10*
X0Y0D02*
X276000Y0D01*
X276000Y431000D01*
X0Y431000D01*
X0Y0D01*
X202500Y21620D02*
X202500Y34620D01*
X190500Y34620D02*
X190500Y21620D01*
X190500Y34620D02*
X190502Y34773D01*
X190508Y34926D01*
X190518Y35079D01*
X190531Y35232D01*
X190549Y35384D01*
X190570Y35536D01*
X190596Y35687D01*
X190625Y35837D01*
X190658Y35987D01*
X190695Y36136D01*
X190735Y36284D01*
X190780Y36430D01*
X190828Y36576D01*
X190880Y36720D01*
X190935Y36863D01*
X190994Y37004D01*
X191057Y37144D01*
X191123Y37282D01*
X191193Y37419D01*
X191266Y37553D01*
X191343Y37686D01*
X191423Y37817D01*
X191506Y37945D01*
X191592Y38072D01*
X191682Y38196D01*
X191775Y38318D01*
X191871Y38437D01*
X191970Y38554D01*
X192072Y38669D01*
X192177Y38781D01*
X192285Y38890D01*
X192395Y38996D01*
X192508Y39099D01*
X192624Y39200D01*
X192742Y39297D01*
X192863Y39392D01*
X192986Y39483D01*
X193111Y39571D01*
X193239Y39656D01*
X193368Y39738D01*
X193500Y39816D01*
X193634Y39891D01*
X193769Y39963D01*
X193907Y40031D01*
X194046Y40095D01*
X194186Y40156D01*
X194328Y40213D01*
X194472Y40267D01*
X194617Y40317D01*
X194763Y40363D01*
X194910Y40406D01*
X195058Y40444D01*
X195208Y40479D01*
X195358Y40510D01*
X195508Y40538D01*
X195660Y40561D01*
X195812Y40580D01*
X195964Y40596D01*
X196117Y40608D01*
X196270Y40616D01*
X196423Y40620D01*
X196577Y40620D01*
X196730Y40616D01*
X196883Y40608D01*
X197036Y40596D01*
X197188Y40580D01*
X197340Y40561D01*
X197492Y40538D01*
X197642Y40510D01*
X197792Y40479D01*
X197942Y40444D01*
X198090Y40406D01*
X198237Y40363D01*
X198383Y40317D01*
X198528Y40267D01*
X198672Y40213D01*
X198814Y40156D01*
X198954Y40095D01*
X199093Y40031D01*
X199231Y39963D01*
X199366Y39891D01*
X199500Y39816D01*
X199632Y39738D01*
X199761Y39656D01*
X199889Y39571D01*
X200014Y39483D01*
X200137Y39392D01*
X200258Y39297D01*
X200376Y39200D01*
X200492Y39099D01*
X200605Y38996D01*
X200715Y38890D01*
X200823Y38781D01*
X200928Y38669D01*
X201030Y38554D01*
X201129Y38437D01*
X201225Y38318D01*
X201318Y38196D01*
X201408Y38072D01*
X201494Y37945D01*
X201577Y37817D01*
X201657Y37686D01*
X201734Y37553D01*
X201807Y37419D01*
X201877Y37282D01*
X201943Y37144D01*
X202006Y37004D01*
X202065Y36863D01*
X202120Y36720D01*
X202172Y36576D01*
X202220Y36430D01*
X202265Y36284D01*
X202305Y36136D01*
X202342Y35987D01*
X202375Y35837D01*
X202404Y35687D01*
X202430Y35536D01*
X202451Y35384D01*
X202469Y35232D01*
X202482Y35079D01*
X202492Y34926D01*
X202498Y34773D01*
X202500Y34620D01*
X202500Y21620D02*
X202498Y21467D01*
X202492Y21314D01*
X202482Y21161D01*
X202469Y21008D01*
X202451Y20856D01*
X202430Y20704D01*
X202404Y20553D01*
X202375Y20403D01*
X202342Y20253D01*
X202305Y20104D01*
X202265Y19956D01*
X202220Y19810D01*
X202172Y19664D01*
X202120Y19520D01*
X202065Y19377D01*
X202006Y19236D01*
X201943Y19096D01*
X201877Y18958D01*
X201807Y18821D01*
X201734Y18687D01*
X201657Y18554D01*
X201577Y18423D01*
X201494Y18295D01*
X201408Y18168D01*
X201318Y18044D01*
X201225Y17922D01*
X201129Y17803D01*
X201030Y17686D01*
X200928Y17571D01*
X200823Y17459D01*
X200715Y17350D01*
X200605Y17244D01*
X200492Y17141D01*
X200376Y17040D01*
X200258Y16943D01*
X200137Y16848D01*
X200014Y16757D01*
X199889Y16669D01*
X199761Y16584D01*
X199632Y16502D01*
X199500Y16424D01*
X199366Y16349D01*
X199231Y16277D01*
X199093Y16209D01*
X198954Y16145D01*
X198814Y16084D01*
X198672Y16027D01*
X198528Y15973D01*
X198383Y15923D01*
X198237Y15877D01*
X198090Y15834D01*
X197942Y15796D01*
X197792Y15761D01*
X197642Y15730D01*
X197492Y15702D01*
X197340Y15679D01*
X197188Y15660D01*
X197036Y15644D01*
X196883Y15632D01*
X196730Y15624D01*
X196577Y15620D01*
X196423Y15620D01*
X196270Y15624D01*
X196117Y15632D01*
X195964Y15644D01*
X195812Y15660D01*
X195660Y15679D01*
X195508Y15702D01*
X195358Y15730D01*
X195208Y15761D01*
X195058Y15796D01*
X194910Y15834D01*
X194763Y15877D01*
X194617Y15923D01*
X194472Y15973D01*
X194328Y16027D01*
X194186Y16084D01*
X194046Y16145D01*
X193907Y16209D01*
X193769Y16277D01*
X193634Y16349D01*
X193500Y16424D01*
X193368Y16502D01*
X193239Y16584D01*
X193111Y16669D01*
X192986Y16757D01*
X192863Y16848D01*
X192742Y16943D01*
X192624Y17040D01*
X192508Y17141D01*
X192395Y17244D01*
X192285Y17350D01*
X192177Y17459D01*
X192072Y17571D01*
X191970Y17686D01*
X191871Y17803D01*
X191775Y17922D01*
X191682Y18044D01*
X191592Y18168D01*
X191506Y18295D01*
X191423Y18423D01*
X191343Y18554D01*
X191266Y18687D01*
X191193Y18821D01*
X191123Y18958D01*
X191057Y19096D01*
X190994Y19236D01*
X190935Y19377D01*
X190880Y19520D01*
X190828Y19664D01*
X190780Y19810D01*
X190735Y19956D01*
X190695Y20104D01*
X190658Y20253D01*
X190625Y20403D01*
X190596Y20553D01*
X190570Y20704D01*
X190549Y20856D01*
X190531Y21008D01*
X190518Y21161D01*
X190508Y21314D01*
X190502Y21467D01*
X190500Y21620D01*
X85500Y21620D02*
X85500Y34620D01*
X73500Y34620D02*
X73500Y21620D01*
X73500Y34620D02*
X73502Y34773D01*
X73508Y34926D01*
X73518Y35079D01*
X73531Y35232D01*
X73549Y35384D01*
X73570Y35536D01*
X73596Y35687D01*
X73625Y35837D01*
X73658Y35987D01*
X73695Y36136D01*
X73735Y36284D01*
X73780Y36430D01*
X73828Y36576D01*
X73880Y36720D01*
X73935Y36863D01*
X73994Y37004D01*
X74057Y37144D01*
X74123Y37282D01*
X74193Y37419D01*
X74266Y37553D01*
X74343Y37686D01*
X74423Y37817D01*
X74506Y37945D01*
X74592Y38072D01*
X74682Y38196D01*
X74775Y38318D01*
X74871Y38437D01*
X74970Y38554D01*
X75072Y38669D01*
X75177Y38781D01*
X75285Y38890D01*
X75395Y38996D01*
X75508Y39099D01*
X75624Y39200D01*
X75742Y39297D01*
X75863Y39392D01*
X75986Y39483D01*
X76111Y39571D01*
X76239Y39656D01*
X76368Y39738D01*
X76500Y39816D01*
X76634Y39891D01*
X76769Y39963D01*
X76907Y40031D01*
X77046Y40095D01*
X77186Y40156D01*
X77328Y40213D01*
X77472Y40267D01*
X77617Y40317D01*
X77763Y40363D01*
X77910Y40406D01*
X78058Y40444D01*
X78208Y40479D01*
X78358Y40510D01*
X78508Y40538D01*
X78660Y40561D01*
X78812Y40580D01*
X78964Y40596D01*
X79117Y40608D01*
X79270Y40616D01*
X79423Y40620D01*
X79577Y40620D01*
X79730Y40616D01*
X79883Y40608D01*
X80036Y40596D01*
X80188Y40580D01*
X80340Y40561D01*
X80492Y40538D01*
X80642Y40510D01*
X80792Y40479D01*
X80942Y40444D01*
X81090Y40406D01*
X81237Y40363D01*
X81383Y40317D01*
X81528Y40267D01*
X81672Y40213D01*
X81814Y40156D01*
X81954Y40095D01*
X82093Y40031D01*
X82231Y39963D01*
X82366Y39891D01*
X82500Y39816D01*
X82632Y39738D01*
X82761Y39656D01*
X82889Y39571D01*
X83014Y39483D01*
X83137Y39392D01*
X83258Y39297D01*
X83376Y39200D01*
X83492Y39099D01*
X83605Y38996D01*
X83715Y38890D01*
X83823Y38781D01*
X83928Y38669D01*
X84030Y38554D01*
X84129Y38437D01*
X84225Y38318D01*
X84318Y38196D01*
X84408Y38072D01*
X84494Y37945D01*
X84577Y37817D01*
X84657Y37686D01*
X84734Y37553D01*
X84807Y37419D01*
X84877Y37282D01*
X84943Y37144D01*
X85006Y37004D01*
X85065Y36863D01*
X85120Y36720D01*
X85172Y36576D01*
X85220Y36430D01*
X85265Y36284D01*
X85305Y36136D01*
X85342Y35987D01*
X85375Y35837D01*
X85404Y35687D01*
X85430Y35536D01*
X85451Y35384D01*
X85469Y35232D01*
X85482Y35079D01*
X85492Y34926D01*
X85498Y34773D01*
X85500Y34620D01*
X85500Y21620D02*
X85498Y21467D01*
X85492Y21314D01*
X85482Y21161D01*
X85469Y21008D01*
X85451Y20856D01*
X85430Y20704D01*
X85404Y20553D01*
X85375Y20403D01*
X85342Y20253D01*
X85305Y20104D01*
X85265Y19956D01*
X85220Y19810D01*
X85172Y19664D01*
X85120Y19520D01*
X85065Y19377D01*
X85006Y19236D01*
X84943Y19096D01*
X84877Y18958D01*
X84807Y18821D01*
X84734Y18687D01*
X84657Y18554D01*
X84577Y18423D01*
X84494Y18295D01*
X84408Y18168D01*
X84318Y18044D01*
X84225Y17922D01*
X84129Y17803D01*
X84030Y17686D01*
X83928Y17571D01*
X83823Y17459D01*
X83715Y17350D01*
X83605Y17244D01*
X83492Y17141D01*
X83376Y17040D01*
X83258Y16943D01*
X83137Y16848D01*
X83014Y16757D01*
X82889Y16669D01*
X82761Y16584D01*
X82632Y16502D01*
X82500Y16424D01*
X82366Y16349D01*
X82231Y16277D01*
X82093Y16209D01*
X81954Y16145D01*
X81814Y16084D01*
X81672Y16027D01*
X81528Y15973D01*
X81383Y15923D01*
X81237Y15877D01*
X81090Y15834D01*
X80942Y15796D01*
X80792Y15761D01*
X80642Y15730D01*
X80492Y15702D01*
X80340Y15679D01*
X80188Y15660D01*
X80036Y15644D01*
X79883Y15632D01*
X79730Y15624D01*
X79577Y15620D01*
X79423Y15620D01*
X79270Y15624D01*
X79117Y15632D01*
X78964Y15644D01*
X78812Y15660D01*
X78660Y15679D01*
X78508Y15702D01*
X78358Y15730D01*
X78208Y15761D01*
X78058Y15796D01*
X77910Y15834D01*
X77763Y15877D01*
X77617Y15923D01*
X77472Y15973D01*
X77328Y16027D01*
X77186Y16084D01*
X77046Y16145D01*
X76907Y16209D01*
X76769Y16277D01*
X76634Y16349D01*
X76500Y16424D01*
X76368Y16502D01*
X76239Y16584D01*
X76111Y16669D01*
X75986Y16757D01*
X75863Y16848D01*
X75742Y16943D01*
X75624Y17040D01*
X75508Y17141D01*
X75395Y17244D01*
X75285Y17350D01*
X75177Y17459D01*
X75072Y17571D01*
X74970Y17686D01*
X74871Y17803D01*
X74775Y17922D01*
X74682Y18044D01*
X74592Y18168D01*
X74506Y18295D01*
X74423Y18423D01*
X74343Y18554D01*
X74266Y18687D01*
X74193Y18821D01*
X74123Y18958D01*
X74057Y19096D01*
X73994Y19236D01*
X73935Y19377D01*
X73880Y19520D01*
X73828Y19664D01*
X73780Y19810D01*
X73735Y19956D01*
X73695Y20104D01*
X73658Y20253D01*
X73625Y20403D01*
X73596Y20553D01*
X73570Y20704D01*
X73549Y20856D01*
X73531Y21008D01*
X73518Y21161D01*
X73508Y21314D01*
X73502Y21467D01*
X73500Y21620D01*
X109500Y28120D02*
X109502Y28274D01*
X109508Y28429D01*
X109518Y28583D01*
X109532Y28737D01*
X109550Y28890D01*
X109571Y29043D01*
X109597Y29196D01*
X109627Y29347D01*
X109660Y29498D01*
X109698Y29648D01*
X109739Y29797D01*
X109784Y29945D01*
X109833Y30091D01*
X109886Y30237D01*
X109942Y30380D01*
X110002Y30523D01*
X110066Y30663D01*
X110133Y30803D01*
X110204Y30940D01*
X110278Y31075D01*
X110356Y31209D01*
X110437Y31340D01*
X110522Y31469D01*
X110610Y31597D01*
X110701Y31721D01*
X110795Y31844D01*
X110893Y31964D01*
X110993Y32081D01*
X111097Y32196D01*
X111203Y32308D01*
X111312Y32417D01*
X111424Y32523D01*
X111539Y32627D01*
X111656Y32727D01*
X111776Y32825D01*
X111899Y32919D01*
X112023Y33010D01*
X112151Y33098D01*
X112280Y33183D01*
X112411Y33264D01*
X112545Y33342D01*
X112680Y33416D01*
X112817Y33487D01*
X112957Y33554D01*
X113097Y33618D01*
X113240Y33678D01*
X113383Y33734D01*
X113529Y33787D01*
X113675Y33836D01*
X113823Y33881D01*
X113972Y33922D01*
X114122Y33960D01*
X114273Y33993D01*
X114424Y34023D01*
X114577Y34049D01*
X114730Y34070D01*
X114883Y34088D01*
X115037Y34102D01*
X115191Y34112D01*
X115346Y34118D01*
X115500Y34120D01*
X115654Y34118D01*
X115809Y34112D01*
X115963Y34102D01*
X116117Y34088D01*
X116270Y34070D01*
X116423Y34049D01*
X116576Y34023D01*
X116727Y33993D01*
X116878Y33960D01*
X117028Y33922D01*
X117177Y33881D01*
X117325Y33836D01*
X117471Y33787D01*
X117617Y33734D01*
X117760Y33678D01*
X117903Y33618D01*
X118043Y33554D01*
X118183Y33487D01*
X118320Y33416D01*
X118455Y33342D01*
X118589Y33264D01*
X118720Y33183D01*
X118849Y33098D01*
X118977Y33010D01*
X119101Y32919D01*
X119224Y32825D01*
X119344Y32727D01*
X119461Y32627D01*
X119576Y32523D01*
X119688Y32417D01*
X119797Y32308D01*
X119903Y32196D01*
X120007Y32081D01*
X120107Y31964D01*
X120205Y31844D01*
X120299Y31721D01*
X120390Y31597D01*
X120478Y31469D01*
X120563Y31340D01*
X120644Y31209D01*
X120722Y31075D01*
X120796Y30940D01*
X120867Y30803D01*
X120934Y30663D01*
X120998Y30523D01*
X121058Y30380D01*
X121114Y30237D01*
X121167Y30091D01*
X121216Y29945D01*
X121261Y29797D01*
X121302Y29648D01*
X121340Y29498D01*
X121373Y29347D01*
X121403Y29196D01*
X121429Y29043D01*
X121450Y28890D01*
X121468Y28737D01*
X121482Y28583D01*
X121492Y28429D01*
X121498Y28274D01*
X121500Y28120D01*
X121498Y27966D01*
X121492Y27811D01*
X121482Y27657D01*
X121468Y27503D01*
X121450Y27350D01*
X121429Y27197D01*
X121403Y27044D01*
X121373Y26893D01*
X121340Y26742D01*
X121302Y26592D01*
X121261Y26443D01*
X121216Y26295D01*
X121167Y26149D01*
X121114Y26003D01*
X121058Y25860D01*
X120998Y25717D01*
X120934Y25577D01*
X120867Y25437D01*
X120796Y25300D01*
X120722Y25165D01*
X120644Y25031D01*
X120563Y24900D01*
X120478Y24771D01*
X120390Y24643D01*
X120299Y24519D01*
X120205Y24396D01*
X120107Y24276D01*
X120007Y24159D01*
X119903Y24044D01*
X119797Y23932D01*
X119688Y23823D01*
X119576Y23717D01*
X119461Y23613D01*
X119344Y23513D01*
X119224Y23415D01*
X119101Y23321D01*
X118977Y23230D01*
X118849Y23142D01*
X118720Y23057D01*
X118589Y22976D01*
X118455Y22898D01*
X118320Y22824D01*
X118183Y22753D01*
X118043Y22686D01*
X117903Y22622D01*
X117760Y22562D01*
X117617Y22506D01*
X117471Y22453D01*
X117325Y22404D01*
X117177Y22359D01*
X117028Y22318D01*
X116878Y22280D01*
X116727Y22247D01*
X116576Y22217D01*
X116423Y22191D01*
X116270Y22170D01*
X116117Y22152D01*
X115963Y22138D01*
X115809Y22128D01*
X115654Y22122D01*
X115500Y22120D01*
X115346Y22122D01*
X115191Y22128D01*
X115037Y22138D01*
X114883Y22152D01*
X114730Y22170D01*
X114577Y22191D01*
X114424Y22217D01*
X114273Y22247D01*
X114122Y22280D01*
X113972Y22318D01*
X113823Y22359D01*
X113675Y22404D01*
X113529Y22453D01*
X113383Y22506D01*
X113240Y22562D01*
X113097Y22622D01*
X112957Y22686D01*
X112817Y22753D01*
X112680Y22824D01*
X112545Y22898D01*
X112411Y22976D01*
X112280Y23057D01*
X112151Y23142D01*
X112023Y23230D01*
X111899Y23321D01*
X111776Y23415D01*
X111656Y23513D01*
X111539Y23613D01*
X111424Y23717D01*
X111312Y23823D01*
X111203Y23932D01*
X111097Y24044D01*
X110993Y24159D01*
X110893Y24276D01*
X110795Y24396D01*
X110701Y24519D01*
X110610Y24643D01*
X110522Y24771D01*
X110437Y24900D01*
X110356Y25031D01*
X110278Y25165D01*
X110204Y25300D01*
X110133Y25437D01*
X110066Y25577D01*
X110002Y25717D01*
X109942Y25860D01*
X109886Y26003D01*
X109833Y26149D01*
X109784Y26295D01*
X109739Y26443D01*
X109698Y26592D01*
X109660Y26742D01*
X109627Y26893D01*
X109597Y27044D01*
X109571Y27197D01*
X109550Y27350D01*
X109532Y27503D01*
X109518Y27657D01*
X109508Y27811D01*
X109502Y27966D01*
X109500Y28120D01*
X154500Y28120D02*
X154502Y28274D01*
X154508Y28429D01*
X154518Y28583D01*
X154532Y28737D01*
X154550Y28890D01*
X154571Y29043D01*
X154597Y29196D01*
X154627Y29347D01*
X154660Y29498D01*
X154698Y29648D01*
X154739Y29797D01*
X154784Y29945D01*
X154833Y30091D01*
X154886Y30237D01*
X154942Y30380D01*
X155002Y30523D01*
X155066Y30663D01*
X155133Y30803D01*
X155204Y30940D01*
X155278Y31075D01*
X155356Y31209D01*
X155437Y31340D01*
X155522Y31469D01*
X155610Y31597D01*
X155701Y31721D01*
X155795Y31844D01*
X155893Y31964D01*
X155993Y32081D01*
X156097Y32196D01*
X156203Y32308D01*
X156312Y32417D01*
X156424Y32523D01*
X156539Y32627D01*
X156656Y32727D01*
X156776Y32825D01*
X156899Y32919D01*
X157023Y33010D01*
X157151Y33098D01*
X157280Y33183D01*
X157411Y33264D01*
X157545Y33342D01*
X157680Y33416D01*
X157817Y33487D01*
X157957Y33554D01*
X158097Y33618D01*
X158240Y33678D01*
X158383Y33734D01*
X158529Y33787D01*
X158675Y33836D01*
X158823Y33881D01*
X158972Y33922D01*
X159122Y33960D01*
X159273Y33993D01*
X159424Y34023D01*
X159577Y34049D01*
X159730Y34070D01*
X159883Y34088D01*
X160037Y34102D01*
X160191Y34112D01*
X160346Y34118D01*
X160500Y34120D01*
X160654Y34118D01*
X160809Y34112D01*
X160963Y34102D01*
X161117Y34088D01*
X161270Y34070D01*
X161423Y34049D01*
X161576Y34023D01*
X161727Y33993D01*
X161878Y33960D01*
X162028Y33922D01*
X162177Y33881D01*
X162325Y33836D01*
X162471Y33787D01*
X162617Y33734D01*
X162760Y33678D01*
X162903Y33618D01*
X163043Y33554D01*
X163183Y33487D01*
X163320Y33416D01*
X163455Y33342D01*
X163589Y33264D01*
X163720Y33183D01*
X163849Y33098D01*
X163977Y33010D01*
X164101Y32919D01*
X164224Y32825D01*
X164344Y32727D01*
X164461Y32627D01*
X164576Y32523D01*
X164688Y32417D01*
X164797Y32308D01*
X164903Y32196D01*
X165007Y32081D01*
X165107Y31964D01*
X165205Y31844D01*
X165299Y31721D01*
X165390Y31597D01*
X165478Y31469D01*
X165563Y31340D01*
X165644Y31209D01*
X165722Y31075D01*
X165796Y30940D01*
X165867Y30803D01*
X165934Y30663D01*
X165998Y30523D01*
X166058Y30380D01*
X166114Y30237D01*
X166167Y30091D01*
X166216Y29945D01*
X166261Y29797D01*
X166302Y29648D01*
X166340Y29498D01*
X166373Y29347D01*
X166403Y29196D01*
X166429Y29043D01*
X166450Y28890D01*
X166468Y28737D01*
X166482Y28583D01*
X166492Y28429D01*
X166498Y28274D01*
X166500Y28120D01*
X166498Y27966D01*
X166492Y27811D01*
X166482Y27657D01*
X166468Y27503D01*
X166450Y27350D01*
X166429Y27197D01*
X166403Y27044D01*
X166373Y26893D01*
X166340Y26742D01*
X166302Y26592D01*
X166261Y26443D01*
X166216Y26295D01*
X166167Y26149D01*
X166114Y26003D01*
X166058Y25860D01*
X165998Y25717D01*
X165934Y25577D01*
X165867Y25437D01*
X165796Y25300D01*
X165722Y25165D01*
X165644Y25031D01*
X165563Y24900D01*
X165478Y24771D01*
X165390Y24643D01*
X165299Y24519D01*
X165205Y24396D01*
X165107Y24276D01*
X165007Y24159D01*
X164903Y24044D01*
X164797Y23932D01*
X164688Y23823D01*
X164576Y23717D01*
X164461Y23613D01*
X164344Y23513D01*
X164224Y23415D01*
X164101Y23321D01*
X163977Y23230D01*
X163849Y23142D01*
X163720Y23057D01*
X163589Y22976D01*
X163455Y22898D01*
X163320Y22824D01*
X163183Y22753D01*
X163043Y22686D01*
X162903Y22622D01*
X162760Y22562D01*
X162617Y22506D01*
X162471Y22453D01*
X162325Y22404D01*
X162177Y22359D01*
X162028Y22318D01*
X161878Y22280D01*
X161727Y22247D01*
X161576Y22217D01*
X161423Y22191D01*
X161270Y22170D01*
X161117Y22152D01*
X160963Y22138D01*
X160809Y22128D01*
X160654Y22122D01*
X160500Y22120D01*
X160346Y22122D01*
X160191Y22128D01*
X160037Y22138D01*
X159883Y22152D01*
X159730Y22170D01*
X159577Y22191D01*
X159424Y22217D01*
X159273Y22247D01*
X159122Y22280D01*
X158972Y22318D01*
X158823Y22359D01*
X158675Y22404D01*
X158529Y22453D01*
X158383Y22506D01*
X158240Y22562D01*
X158097Y22622D01*
X157957Y22686D01*
X157817Y22753D01*
X157680Y22824D01*
X157545Y22898D01*
X157411Y22976D01*
X157280Y23057D01*
X157151Y23142D01*
X157023Y23230D01*
X156899Y23321D01*
X156776Y23415D01*
X156656Y23513D01*
X156539Y23613D01*
X156424Y23717D01*
X156312Y23823D01*
X156203Y23932D01*
X156097Y24044D01*
X155993Y24159D01*
X155893Y24276D01*
X155795Y24396D01*
X155701Y24519D01*
X155610Y24643D01*
X155522Y24771D01*
X155437Y24900D01*
X155356Y25031D01*
X155278Y25165D01*
X155204Y25300D01*
X155133Y25437D01*
X155066Y25577D01*
X155002Y25717D01*
X154942Y25860D01*
X154886Y26003D01*
X154833Y26149D01*
X154784Y26295D01*
X154739Y26443D01*
X154698Y26592D01*
X154660Y26742D01*
X154627Y26893D01*
X154597Y27044D01*
X154571Y27197D01*
X154550Y27350D01*
X154532Y27503D01*
X154518Y27657D01*
X154508Y27811D01*
X154502Y27966D01*
X154500Y28120D01*
M02*
