G04 EAGLE Gerber RS-274X export*
G75*
%MOMM*%
%FSLAX34Y34*%
%LPD*%
%INTop Layer*%
%IPPOS*%
%AMOC8*
5,1,8,0,0,1.08239X$1,22.5*%
G01*
%ADD10R,0.700000X0.600000*%
%ADD11R,0.600000X0.700000*%
%ADD12C,1.420000*%
%ADD13C,1.900000*%
%ADD14R,1.778000X1.778000*%
%ADD15C,1.778000*%
%ADD16R,1.080000X1.050000*%
%ADD17R,1.450000X0.650000*%
%ADD18R,0.540000X1.400000*%
%ADD19R,0.280000X1.260000*%
%ADD20R,1.260000X0.280000*%
%ADD21R,2.400000X2.400000*%
%ADD22C,1.200000*%
%ADD23R,1.400000X1.000000*%
%ADD24R,1.200000X1.900000*%
%ADD25R,25.580000X1.210000*%
%ADD26R,9.180000X2.210000*%
%ADD27R,2.180000X6.170000*%
%ADD28R,10.180000X1.290000*%
%ADD29R,1.100000X2.530000*%
%ADD30R,1.200000X4.220000*%
%ADD31R,3.200000X1.210000*%
%ADD32R,0.460000X1.000000*%
%ADD33R,10.180000X1.000000*%
%ADD34C,0.500000*%
%ADD35C,0.270000*%
%ADD36C,0.804800*%
%ADD37C,0.654800*%
%ADD38C,0.704800*%
%ADD39C,0.700000*%
%ADD40C,0.300000*%
%ADD41C,0.200000*%
%ADD42C,0.152400*%
%ADD43C,1.400000*%
%ADD44C,0.460000*%

G36*
X9544Y5087D02*
X9544Y5087D01*
X9587Y5084D01*
X9683Y5107D01*
X9781Y5121D01*
X9820Y5138D01*
X9862Y5148D01*
X9948Y5196D01*
X10038Y5237D01*
X10070Y5265D01*
X10108Y5286D01*
X10177Y5356D01*
X10252Y5420D01*
X10276Y5456D01*
X10306Y5487D01*
X10352Y5574D01*
X10406Y5656D01*
X10419Y5697D01*
X10439Y5735D01*
X10460Y5832D01*
X10489Y5926D01*
X10489Y5969D01*
X10498Y6011D01*
X10491Y6109D01*
X10493Y6208D01*
X10481Y6249D01*
X10478Y6292D01*
X10447Y6372D01*
X10417Y6480D01*
X10386Y6531D01*
X10367Y6580D01*
X10332Y6639D01*
X10159Y7285D01*
X10159Y14511D01*
X20590Y14511D01*
X20653Y14520D01*
X20718Y14519D01*
X20792Y14540D01*
X20869Y14551D01*
X20928Y14577D01*
X20990Y14594D01*
X21056Y14635D01*
X21126Y14667D01*
X21175Y14709D01*
X21230Y14742D01*
X21281Y14800D01*
X21340Y14850D01*
X21376Y14904D01*
X21419Y14952D01*
X21452Y15021D01*
X21495Y15086D01*
X21514Y15148D01*
X21542Y15205D01*
X21552Y15275D01*
X21577Y15356D01*
X21578Y15441D01*
X21589Y15510D01*
X21589Y16511D01*
X21591Y16511D01*
X21591Y15510D01*
X21600Y15446D01*
X21599Y15382D01*
X21620Y15307D01*
X21631Y15231D01*
X21657Y15172D01*
X21674Y15110D01*
X21715Y15044D01*
X21747Y14974D01*
X21789Y14925D01*
X21822Y14870D01*
X21880Y14818D01*
X21930Y14760D01*
X21984Y14724D01*
X22032Y14681D01*
X22101Y14648D01*
X22166Y14605D01*
X22228Y14586D01*
X22286Y14558D01*
X22355Y14547D01*
X22436Y14523D01*
X22521Y14522D01*
X22590Y14511D01*
X33021Y14511D01*
X33021Y7285D01*
X32848Y6639D01*
X32813Y6580D01*
X32797Y6540D01*
X32774Y6504D01*
X32745Y6409D01*
X32708Y6318D01*
X32704Y6275D01*
X32691Y6234D01*
X32690Y6136D01*
X32680Y6037D01*
X32688Y5995D01*
X32687Y5952D01*
X32714Y5857D01*
X32732Y5760D01*
X32751Y5722D01*
X32763Y5680D01*
X32814Y5596D01*
X32859Y5508D01*
X32888Y5477D01*
X32911Y5440D01*
X32984Y5374D01*
X33051Y5302D01*
X33088Y5280D01*
X33120Y5251D01*
X33209Y5208D01*
X33294Y5158D01*
X33335Y5147D01*
X33374Y5128D01*
X33458Y5115D01*
X33567Y5087D01*
X33627Y5089D01*
X33678Y5081D01*
X269920Y5081D01*
X269984Y5090D01*
X270048Y5089D01*
X270123Y5110D01*
X270199Y5121D01*
X270258Y5147D01*
X270320Y5164D01*
X270386Y5205D01*
X270456Y5237D01*
X270505Y5279D01*
X270560Y5312D01*
X270612Y5370D01*
X270670Y5420D01*
X270706Y5474D01*
X270749Y5522D01*
X270782Y5591D01*
X270825Y5656D01*
X270844Y5718D01*
X270872Y5775D01*
X270883Y5845D01*
X270907Y5926D01*
X270908Y6011D01*
X270919Y6080D01*
X270919Y354680D01*
X270910Y354744D01*
X270911Y354808D01*
X270890Y354883D01*
X270879Y354959D01*
X270853Y355018D01*
X270836Y355080D01*
X270795Y355146D01*
X270763Y355216D01*
X270721Y355265D01*
X270688Y355320D01*
X270630Y355372D01*
X270580Y355430D01*
X270526Y355466D01*
X270478Y355509D01*
X270409Y355542D01*
X270344Y355585D01*
X270282Y355604D01*
X270225Y355632D01*
X270155Y355643D01*
X270074Y355667D01*
X269989Y355668D01*
X269920Y355679D01*
X198624Y355679D01*
X198560Y355670D01*
X198496Y355671D01*
X198421Y355650D01*
X198345Y355639D01*
X198286Y355613D01*
X198224Y355596D01*
X198158Y355555D01*
X198088Y355523D01*
X198039Y355481D01*
X197984Y355448D01*
X197932Y355390D01*
X197874Y355340D01*
X197838Y355286D01*
X197795Y355238D01*
X197762Y355169D01*
X197719Y355104D01*
X197700Y355042D01*
X197672Y354985D01*
X197661Y354915D01*
X197637Y354834D01*
X197636Y354749D01*
X197625Y354680D01*
X197625Y350048D01*
X196732Y349155D01*
X184468Y349155D01*
X183575Y350048D01*
X183575Y354680D01*
X183566Y354744D01*
X183567Y354808D01*
X183546Y354883D01*
X183535Y354959D01*
X183509Y355018D01*
X183492Y355080D01*
X183451Y355146D01*
X183419Y355216D01*
X183377Y355265D01*
X183344Y355320D01*
X183286Y355372D01*
X183236Y355430D01*
X183182Y355466D01*
X183134Y355509D01*
X183065Y355542D01*
X183000Y355585D01*
X182938Y355604D01*
X182881Y355632D01*
X182811Y355643D01*
X182730Y355667D01*
X182645Y355668D01*
X182576Y355679D01*
X177624Y355679D01*
X177560Y355670D01*
X177496Y355671D01*
X177421Y355650D01*
X177345Y355639D01*
X177286Y355613D01*
X177224Y355596D01*
X177158Y355555D01*
X177088Y355523D01*
X177039Y355481D01*
X176984Y355448D01*
X176932Y355390D01*
X176874Y355340D01*
X176838Y355286D01*
X176795Y355238D01*
X176762Y355169D01*
X176719Y355104D01*
X176700Y355042D01*
X176672Y354985D01*
X176661Y354915D01*
X176637Y354834D01*
X176636Y354749D01*
X176625Y354680D01*
X176625Y350048D01*
X175732Y349155D01*
X165200Y349155D01*
X165136Y349146D01*
X165072Y349147D01*
X164997Y349126D01*
X164921Y349115D01*
X164862Y349089D01*
X164800Y349072D01*
X164734Y349031D01*
X164664Y348999D01*
X164615Y348957D01*
X164560Y348924D01*
X164508Y348866D01*
X164450Y348816D01*
X164414Y348762D01*
X164371Y348714D01*
X164338Y348645D01*
X164295Y348580D01*
X164276Y348518D01*
X164248Y348461D01*
X164237Y348391D01*
X164213Y348310D01*
X164212Y348225D01*
X164201Y348156D01*
X164201Y333170D01*
X164214Y333075D01*
X164219Y332979D01*
X164234Y332936D01*
X164241Y332891D01*
X164280Y332803D01*
X164312Y332712D01*
X164337Y332678D01*
X164357Y332634D01*
X164440Y332537D01*
X164493Y332464D01*
X168979Y327978D01*
X168979Y327484D01*
X168992Y327389D01*
X168997Y327293D01*
X169012Y327250D01*
X169019Y327205D01*
X169058Y327117D01*
X169090Y327027D01*
X169115Y326992D01*
X169135Y326948D01*
X169218Y326851D01*
X169271Y326778D01*
X169422Y326627D01*
X169498Y326570D01*
X169570Y326505D01*
X169611Y326485D01*
X169647Y326458D01*
X169737Y326424D01*
X169824Y326382D01*
X169866Y326376D01*
X169911Y326359D01*
X170039Y326349D01*
X170128Y326335D01*
X172962Y326335D01*
X173855Y325442D01*
X173855Y317178D01*
X173447Y316771D01*
X173390Y316694D01*
X173325Y316623D01*
X173305Y316582D01*
X173278Y316546D01*
X173244Y316455D01*
X173202Y316369D01*
X173196Y316327D01*
X173179Y316282D01*
X173169Y316154D01*
X173155Y316065D01*
X173155Y315125D01*
X173168Y315031D01*
X173173Y314934D01*
X173188Y314891D01*
X173195Y314846D01*
X173234Y314759D01*
X173266Y314668D01*
X173291Y314633D01*
X173311Y314589D01*
X173394Y314492D01*
X173447Y314419D01*
X173855Y314012D01*
X173855Y305748D01*
X173669Y305563D01*
X173646Y305532D01*
X173627Y305516D01*
X173618Y305502D01*
X173598Y305483D01*
X173553Y305408D01*
X173500Y305337D01*
X173486Y305301D01*
X173472Y305280D01*
X173468Y305265D01*
X173454Y305241D01*
X173432Y305156D01*
X173401Y305074D01*
X173398Y305035D01*
X173390Y305010D01*
X173390Y304994D01*
X173383Y304968D01*
X173385Y304880D01*
X173379Y304792D01*
X173386Y304755D01*
X173386Y304728D01*
X173390Y304712D01*
X173391Y304686D01*
X173418Y304602D01*
X173436Y304516D01*
X173454Y304484D01*
X173461Y304456D01*
X173471Y304441D01*
X173478Y304418D01*
X173527Y304345D01*
X173569Y304267D01*
X173593Y304242D01*
X173609Y304216D01*
X173623Y304203D01*
X173636Y304184D01*
X173697Y304135D01*
X173766Y304065D01*
X173795Y304049D01*
X173819Y304027D01*
X173851Y304011D01*
X173876Y303991D01*
X173890Y303983D01*
X174363Y303510D01*
X174698Y302931D01*
X174871Y302285D01*
X174871Y299949D01*
X169830Y299949D01*
X169767Y299940D01*
X169702Y299941D01*
X169628Y299920D01*
X169551Y299909D01*
X169493Y299883D01*
X169431Y299866D01*
X169365Y299825D01*
X169294Y299793D01*
X169245Y299751D01*
X169191Y299718D01*
X169139Y299660D01*
X169080Y299610D01*
X169045Y299556D01*
X169002Y299508D01*
X168968Y299439D01*
X168925Y299374D01*
X168907Y299312D01*
X168879Y299255D01*
X168868Y299185D01*
X168843Y299104D01*
X168842Y299019D01*
X168831Y298950D01*
X168831Y298949D01*
X168830Y298949D01*
X168766Y298940D01*
X168702Y298941D01*
X168627Y298920D01*
X168551Y298909D01*
X168492Y298883D01*
X168430Y298866D01*
X168364Y298825D01*
X168294Y298793D01*
X168245Y298751D01*
X168190Y298717D01*
X168138Y298660D01*
X168080Y298610D01*
X168044Y298556D01*
X168001Y298508D01*
X167968Y298439D01*
X167925Y298374D01*
X167906Y298312D01*
X167878Y298254D01*
X167867Y298185D01*
X167843Y298104D01*
X167842Y298019D01*
X167831Y297950D01*
X167831Y292409D01*
X165995Y292409D01*
X165349Y292582D01*
X164770Y292917D01*
X164297Y293390D01*
X164080Y293765D01*
X164047Y293807D01*
X164022Y293855D01*
X163961Y293918D01*
X163906Y293987D01*
X163863Y294018D01*
X163825Y294057D01*
X163749Y294100D01*
X163677Y294151D01*
X163627Y294169D01*
X163580Y294196D01*
X163494Y294216D01*
X163411Y294245D01*
X163358Y294248D01*
X163305Y294261D01*
X163217Y294256D01*
X163130Y294261D01*
X163077Y294249D01*
X163024Y294246D01*
X162941Y294217D01*
X162855Y294198D01*
X162808Y294171D01*
X162757Y294154D01*
X162694Y294108D01*
X162609Y294060D01*
X162558Y294008D01*
X162508Y293972D01*
X161962Y293425D01*
X154698Y293425D01*
X153805Y294318D01*
X153805Y302582D01*
X154213Y302989D01*
X154270Y303066D01*
X154335Y303137D01*
X154355Y303178D01*
X154382Y303214D01*
X154416Y303305D01*
X154458Y303391D01*
X154464Y303433D01*
X154481Y303478D01*
X154491Y303606D01*
X154505Y303695D01*
X154505Y304635D01*
X154492Y304729D01*
X154487Y304826D01*
X154472Y304869D01*
X154465Y304914D01*
X154426Y305001D01*
X154394Y305092D01*
X154369Y305127D01*
X154349Y305171D01*
X154266Y305268D01*
X154213Y305341D01*
X153791Y305763D01*
X153714Y305820D01*
X153643Y305885D01*
X153602Y305905D01*
X153566Y305932D01*
X153475Y305966D01*
X153389Y306008D01*
X153347Y306014D01*
X153302Y306031D01*
X153174Y306041D01*
X153085Y306055D01*
X138024Y306055D01*
X137960Y306046D01*
X137896Y306047D01*
X137821Y306026D01*
X137745Y306015D01*
X137686Y305989D01*
X137624Y305972D01*
X137558Y305931D01*
X137488Y305899D01*
X137439Y305857D01*
X137384Y305824D01*
X137332Y305766D01*
X137274Y305716D01*
X137238Y305662D01*
X137195Y305614D01*
X137162Y305545D01*
X137119Y305480D01*
X137100Y305418D01*
X137072Y305361D01*
X137061Y305291D01*
X137037Y305210D01*
X137036Y305125D01*
X137025Y305056D01*
X137025Y299398D01*
X136839Y299213D01*
X136807Y299170D01*
X136768Y299133D01*
X136723Y299058D01*
X136670Y298987D01*
X136651Y298937D01*
X136624Y298891D01*
X136602Y298806D01*
X136571Y298724D01*
X136566Y298670D01*
X136553Y298618D01*
X136555Y298530D01*
X136549Y298442D01*
X136560Y298390D01*
X136561Y298336D01*
X136588Y298252D01*
X136606Y298166D01*
X136632Y298119D01*
X136648Y298068D01*
X136697Y297995D01*
X136739Y297917D01*
X136776Y297879D01*
X136806Y297834D01*
X136867Y297785D01*
X136936Y297715D01*
X136998Y297680D01*
X137046Y297641D01*
X137060Y297633D01*
X137533Y297160D01*
X137868Y296581D01*
X138041Y295935D01*
X138041Y293599D01*
X133000Y293599D01*
X132937Y293590D01*
X132872Y293591D01*
X132798Y293570D01*
X132721Y293559D01*
X132663Y293533D01*
X132601Y293516D01*
X132535Y293475D01*
X132464Y293443D01*
X132415Y293401D01*
X132361Y293368D01*
X132309Y293310D01*
X132250Y293260D01*
X132215Y293206D01*
X132172Y293158D01*
X132138Y293089D01*
X132095Y293024D01*
X132077Y292962D01*
X132049Y292905D01*
X132038Y292835D01*
X132013Y292754D01*
X132012Y292669D01*
X132001Y292600D01*
X132001Y292599D01*
X132000Y292599D01*
X131936Y292590D01*
X131872Y292591D01*
X131797Y292570D01*
X131721Y292559D01*
X131662Y292533D01*
X131600Y292516D01*
X131534Y292475D01*
X131464Y292443D01*
X131415Y292401D01*
X131360Y292367D01*
X131308Y292310D01*
X131250Y292260D01*
X131214Y292206D01*
X131171Y292158D01*
X131138Y292089D01*
X131095Y292024D01*
X131076Y291962D01*
X131048Y291904D01*
X131037Y291835D01*
X131013Y291754D01*
X131012Y291669D01*
X131001Y291600D01*
X131001Y286059D01*
X129165Y286059D01*
X128519Y286232D01*
X127940Y286567D01*
X127467Y287040D01*
X127250Y287415D01*
X127217Y287457D01*
X127192Y287505D01*
X127131Y287568D01*
X127076Y287637D01*
X127033Y287668D01*
X126995Y287707D01*
X126919Y287750D01*
X126847Y287801D01*
X126797Y287819D01*
X126750Y287846D01*
X126664Y287866D01*
X126581Y287895D01*
X126528Y287898D01*
X126475Y287911D01*
X126387Y287906D01*
X126300Y287911D01*
X126248Y287899D01*
X126194Y287896D01*
X126110Y287867D01*
X126025Y287848D01*
X125978Y287821D01*
X125927Y287804D01*
X125864Y287758D01*
X125779Y287710D01*
X125728Y287658D01*
X125678Y287622D01*
X125132Y287075D01*
X117868Y287075D01*
X116975Y287968D01*
X116975Y296232D01*
X117383Y296639D01*
X117440Y296716D01*
X117505Y296787D01*
X117525Y296828D01*
X117552Y296864D01*
X117586Y296955D01*
X117628Y297041D01*
X117634Y297083D01*
X117651Y297128D01*
X117661Y297256D01*
X117675Y297345D01*
X117675Y298285D01*
X117662Y298379D01*
X117657Y298476D01*
X117642Y298519D01*
X117635Y298564D01*
X117596Y298651D01*
X117564Y298742D01*
X117539Y298777D01*
X117519Y298821D01*
X117436Y298918D01*
X117383Y298991D01*
X116961Y299413D01*
X116884Y299470D01*
X116813Y299535D01*
X116772Y299555D01*
X116736Y299582D01*
X116645Y299616D01*
X116559Y299658D01*
X116517Y299664D01*
X116472Y299681D01*
X116344Y299691D01*
X116255Y299705D01*
X100915Y299705D01*
X100821Y299692D01*
X100724Y299687D01*
X100681Y299672D01*
X100636Y299665D01*
X100549Y299626D01*
X100458Y299594D01*
X100423Y299569D01*
X100379Y299549D01*
X100282Y299466D01*
X100209Y299413D01*
X99302Y298505D01*
X92038Y298505D01*
X90877Y299667D01*
X90825Y299706D01*
X90780Y299752D01*
X90713Y299790D01*
X90651Y299836D01*
X90591Y299859D01*
X90535Y299891D01*
X90460Y299909D01*
X90387Y299936D01*
X90323Y299941D01*
X90260Y299956D01*
X90183Y299952D01*
X90106Y299958D01*
X90043Y299945D01*
X89979Y299941D01*
X89906Y299916D01*
X89830Y299900D01*
X89773Y299870D01*
X89712Y299849D01*
X89656Y299807D01*
X89581Y299768D01*
X89520Y299709D01*
X89463Y299667D01*
X88302Y298505D01*
X84724Y298505D01*
X84660Y298496D01*
X84596Y298497D01*
X84521Y298476D01*
X84445Y298465D01*
X84386Y298439D01*
X84324Y298422D01*
X84258Y298381D01*
X84188Y298349D01*
X84139Y298307D01*
X84084Y298274D01*
X84032Y298216D01*
X83974Y298166D01*
X83938Y298112D01*
X83895Y298064D01*
X83862Y297995D01*
X83819Y297930D01*
X83800Y297868D01*
X83772Y297811D01*
X83761Y297741D01*
X83737Y297660D01*
X83736Y297575D01*
X83725Y297506D01*
X83725Y279789D01*
X83729Y279757D01*
X83727Y279725D01*
X83749Y279618D01*
X83765Y279510D01*
X83778Y279480D01*
X83784Y279449D01*
X83836Y279352D01*
X83881Y279253D01*
X83902Y279228D01*
X83917Y279200D01*
X83993Y279122D01*
X84064Y279039D01*
X84091Y279021D01*
X84114Y278998D01*
X84209Y278944D01*
X84300Y278884D01*
X84331Y278875D01*
X84359Y278859D01*
X84465Y278834D01*
X84570Y278802D01*
X84602Y278801D01*
X84633Y278794D01*
X84743Y278799D01*
X84852Y278798D01*
X84883Y278807D01*
X84915Y278808D01*
X85018Y278844D01*
X85124Y278873D01*
X85151Y278890D01*
X85182Y278901D01*
X85255Y278954D01*
X85364Y279021D01*
X85396Y279057D01*
X85431Y279082D01*
X87233Y280885D01*
X90576Y280885D01*
X90640Y280894D01*
X90704Y280893D01*
X90779Y280914D01*
X90855Y280925D01*
X90914Y280951D01*
X90976Y280968D01*
X91042Y281009D01*
X91112Y281041D01*
X91161Y281083D01*
X91216Y281116D01*
X91268Y281174D01*
X91326Y281224D01*
X91362Y281278D01*
X91405Y281326D01*
X91438Y281395D01*
X91481Y281460D01*
X91500Y281522D01*
X91528Y281579D01*
X91539Y281649D01*
X91563Y281730D01*
X91564Y281815D01*
X91575Y281884D01*
X91575Y283532D01*
X92468Y284425D01*
X99732Y284425D01*
X100278Y283878D01*
X100321Y283846D01*
X100358Y283807D01*
X100433Y283762D01*
X100504Y283709D01*
X100554Y283690D01*
X100600Y283662D01*
X100685Y283640D01*
X100768Y283609D01*
X100821Y283605D01*
X100873Y283592D01*
X100961Y283594D01*
X101049Y283587D01*
X101101Y283598D01*
X101155Y283600D01*
X101239Y283627D01*
X101325Y283645D01*
X101372Y283670D01*
X101423Y283687D01*
X101496Y283736D01*
X101574Y283777D01*
X101613Y283815D01*
X101657Y283845D01*
X101706Y283906D01*
X101776Y283974D01*
X101812Y284037D01*
X101850Y284085D01*
X102067Y284460D01*
X102540Y284933D01*
X103119Y285268D01*
X103765Y285441D01*
X105601Y285441D01*
X105601Y279900D01*
X105610Y279837D01*
X105609Y279772D01*
X105630Y279698D01*
X105641Y279621D01*
X105667Y279563D01*
X105684Y279501D01*
X105725Y279435D01*
X105742Y279397D01*
X105738Y279389D01*
X105695Y279324D01*
X105676Y279262D01*
X105648Y279204D01*
X105637Y279135D01*
X105613Y279054D01*
X105612Y278969D01*
X105601Y278900D01*
X105601Y273359D01*
X103765Y273359D01*
X103119Y273532D01*
X102540Y273867D01*
X102067Y274340D01*
X101850Y274715D01*
X101817Y274757D01*
X101792Y274805D01*
X101731Y274868D01*
X101676Y274937D01*
X101633Y274968D01*
X101595Y275007D01*
X101519Y275050D01*
X101447Y275101D01*
X101397Y275119D01*
X101350Y275146D01*
X101264Y275166D01*
X101181Y275195D01*
X101128Y275198D01*
X101075Y275211D01*
X100987Y275206D01*
X100900Y275211D01*
X100848Y275199D01*
X100794Y275196D01*
X100710Y275167D01*
X100625Y275148D01*
X100578Y275121D01*
X100527Y275104D01*
X100464Y275058D01*
X100379Y275010D01*
X100328Y274958D01*
X100278Y274922D01*
X99732Y274375D01*
X99314Y274375D01*
X99282Y274371D01*
X99249Y274373D01*
X99143Y274351D01*
X99034Y274335D01*
X99005Y274322D01*
X98973Y274316D01*
X98877Y274264D01*
X98777Y274219D01*
X98753Y274198D01*
X98724Y274183D01*
X98646Y274107D01*
X98563Y274036D01*
X98545Y274009D01*
X98522Y273986D01*
X98469Y273891D01*
X98409Y273800D01*
X98399Y273769D01*
X98383Y273741D01*
X98358Y273635D01*
X98326Y273530D01*
X98326Y273498D01*
X98318Y273467D01*
X98324Y273357D01*
X98323Y273248D01*
X98331Y273217D01*
X98333Y273185D01*
X98369Y273082D01*
X98398Y272976D01*
X98415Y272949D01*
X98425Y272918D01*
X98479Y272845D01*
X98546Y272736D01*
X98582Y272704D01*
X98607Y272669D01*
X100049Y271228D01*
X100049Y267252D01*
X97238Y264441D01*
X93262Y264441D01*
X90831Y266873D01*
X90805Y266892D01*
X90784Y266917D01*
X90692Y266977D01*
X90605Y267042D01*
X90575Y267054D01*
X90548Y267071D01*
X90443Y267103D01*
X90341Y267142D01*
X90309Y267144D01*
X90278Y267154D01*
X90169Y267155D01*
X90060Y267164D01*
X90028Y267157D01*
X89996Y267157D01*
X89891Y267128D01*
X89784Y267106D01*
X89755Y267091D01*
X89724Y267082D01*
X89631Y267025D01*
X89535Y266974D01*
X89512Y266951D01*
X89484Y266934D01*
X89411Y266853D01*
X89333Y266777D01*
X89317Y266749D01*
X89295Y266725D01*
X89248Y266627D01*
X89194Y266531D01*
X89186Y266500D01*
X89172Y266471D01*
X89158Y266382D01*
X89129Y266257D01*
X89131Y266208D01*
X89125Y266166D01*
X89125Y260087D01*
X89137Y260002D01*
X89139Y259917D01*
X89157Y259863D01*
X89165Y259808D01*
X89200Y259730D01*
X89226Y259648D01*
X89258Y259602D01*
X89281Y259551D01*
X89336Y259486D01*
X89384Y259415D01*
X89425Y259382D01*
X89464Y259336D01*
X89558Y259275D01*
X89624Y259221D01*
X89760Y259143D01*
X90233Y258670D01*
X90311Y258534D01*
X90364Y258467D01*
X90409Y258394D01*
X90451Y258357D01*
X90485Y258313D01*
X90555Y258263D01*
X90618Y258205D01*
X90669Y258181D01*
X90715Y258148D01*
X90795Y258120D01*
X90872Y258082D01*
X90924Y258074D01*
X90981Y258054D01*
X91092Y258048D01*
X91177Y258035D01*
X103432Y258035D01*
X103539Y257927D01*
X103616Y257870D01*
X103687Y257805D01*
X103728Y257785D01*
X103764Y257758D01*
X103855Y257724D01*
X103941Y257682D01*
X103983Y257676D01*
X104028Y257659D01*
X104156Y257649D01*
X104245Y257635D01*
X105751Y257635D01*
X105846Y257648D01*
X105942Y257653D01*
X105985Y257668D01*
X106030Y257675D01*
X106117Y257714D01*
X106208Y257746D01*
X106243Y257771D01*
X106287Y257791D01*
X106384Y257874D01*
X106457Y257927D01*
X107043Y258513D01*
X113937Y258513D01*
X114523Y257927D01*
X114600Y257870D01*
X114671Y257805D01*
X114712Y257785D01*
X114748Y257758D01*
X114838Y257724D01*
X114925Y257682D01*
X114967Y257676D01*
X115012Y257659D01*
X115140Y257649D01*
X115229Y257635D01*
X123176Y257635D01*
X123240Y257644D01*
X123304Y257643D01*
X123379Y257664D01*
X123455Y257675D01*
X123514Y257701D01*
X123576Y257718D01*
X123642Y257759D01*
X123712Y257791D01*
X123761Y257833D01*
X123816Y257866D01*
X123868Y257924D01*
X123926Y257974D01*
X123962Y258028D01*
X124005Y258076D01*
X124038Y258145D01*
X124081Y258210D01*
X124100Y258272D01*
X124128Y258329D01*
X124139Y258399D01*
X124163Y258480D01*
X124164Y258565D01*
X124175Y258634D01*
X124175Y267842D01*
X125068Y268735D01*
X128176Y268735D01*
X128240Y268744D01*
X128304Y268743D01*
X128379Y268764D01*
X128455Y268775D01*
X128514Y268801D01*
X128576Y268818D01*
X128642Y268859D01*
X128712Y268891D01*
X128761Y268933D01*
X128816Y268966D01*
X128868Y269024D01*
X128926Y269074D01*
X128962Y269128D01*
X129005Y269176D01*
X129038Y269245D01*
X129081Y269310D01*
X129100Y269372D01*
X129128Y269429D01*
X129139Y269499D01*
X129163Y269580D01*
X129164Y269665D01*
X129175Y269734D01*
X129175Y274136D01*
X129383Y274343D01*
X129440Y274420D01*
X129505Y274491D01*
X129525Y274532D01*
X129552Y274569D01*
X129586Y274659D01*
X129628Y274745D01*
X129634Y274787D01*
X129651Y274833D01*
X129661Y274960D01*
X129675Y275050D01*
X129675Y279722D01*
X130568Y280615D01*
X137832Y280615D01*
X138378Y280068D01*
X138421Y280036D01*
X138458Y279997D01*
X138533Y279952D01*
X138604Y279899D01*
X138654Y279880D01*
X138700Y279852D01*
X138785Y279830D01*
X138868Y279799D01*
X138921Y279795D01*
X138973Y279782D01*
X139061Y279784D01*
X139149Y279777D01*
X139201Y279788D01*
X139255Y279790D01*
X139339Y279817D01*
X139425Y279835D01*
X139472Y279860D01*
X139523Y279877D01*
X139596Y279926D01*
X139674Y279967D01*
X139713Y280005D01*
X139757Y280035D01*
X139806Y280096D01*
X139876Y280164D01*
X139912Y280227D01*
X139950Y280275D01*
X140167Y280650D01*
X140640Y281123D01*
X141219Y281458D01*
X141865Y281631D01*
X143701Y281631D01*
X143701Y276090D01*
X143710Y276027D01*
X143709Y275962D01*
X143730Y275888D01*
X143741Y275811D01*
X143767Y275753D01*
X143784Y275691D01*
X143825Y275625D01*
X143857Y275554D01*
X143898Y275505D01*
X143932Y275451D01*
X143990Y275399D01*
X144040Y275340D01*
X144094Y275305D01*
X144142Y275262D01*
X144211Y275228D01*
X144276Y275185D01*
X144338Y275167D01*
X144395Y275139D01*
X144465Y275128D01*
X144546Y275103D01*
X144631Y275102D01*
X144700Y275091D01*
X144701Y275091D01*
X144701Y275090D01*
X144710Y275026D01*
X144709Y274962D01*
X144730Y274887D01*
X144741Y274811D01*
X144767Y274752D01*
X144784Y274690D01*
X144825Y274624D01*
X144857Y274554D01*
X144899Y274505D01*
X144933Y274450D01*
X144990Y274398D01*
X145040Y274340D01*
X145094Y274304D01*
X145142Y274261D01*
X145211Y274228D01*
X145276Y274185D01*
X145338Y274166D01*
X145396Y274138D01*
X145465Y274127D01*
X145546Y274103D01*
X145631Y274102D01*
X145700Y274091D01*
X150741Y274091D01*
X150741Y271755D01*
X150541Y271009D01*
X150534Y270955D01*
X150519Y270904D01*
X150517Y270816D01*
X150507Y270729D01*
X150515Y270676D01*
X150515Y270622D01*
X150538Y270537D01*
X150553Y270450D01*
X150576Y270402D01*
X150590Y270350D01*
X150636Y270275D01*
X150674Y270196D01*
X150710Y270156D01*
X150738Y270110D01*
X150804Y270051D01*
X150862Y269986D01*
X150908Y269957D01*
X150947Y269921D01*
X151027Y269883D01*
X151101Y269836D01*
X151153Y269822D01*
X151201Y269798D01*
X151279Y269786D01*
X151373Y269760D01*
X151445Y269760D01*
X151506Y269751D01*
X154035Y269751D01*
X154681Y269578D01*
X155260Y269243D01*
X155733Y268770D01*
X156068Y268191D01*
X156241Y267545D01*
X156241Y259709D01*
X148700Y259709D01*
X148636Y259700D01*
X148572Y259701D01*
X148498Y259680D01*
X148421Y259669D01*
X148362Y259643D01*
X148300Y259626D01*
X148234Y259585D01*
X148164Y259553D01*
X148115Y259511D01*
X148060Y259478D01*
X148009Y259420D01*
X147950Y259370D01*
X147914Y259316D01*
X147871Y259268D01*
X147838Y259199D01*
X147795Y259134D01*
X147776Y259072D01*
X147748Y259015D01*
X147738Y258945D01*
X147713Y258864D01*
X147712Y258779D01*
X147701Y258710D01*
X147701Y257709D01*
X146700Y257709D01*
X146636Y257700D01*
X146572Y257701D01*
X146497Y257680D01*
X146421Y257669D01*
X146362Y257643D01*
X146300Y257626D01*
X146234Y257585D01*
X146164Y257553D01*
X146115Y257511D01*
X146060Y257478D01*
X146008Y257420D01*
X145950Y257370D01*
X145914Y257316D01*
X145871Y257268D01*
X145838Y257199D01*
X145795Y257134D01*
X145776Y257072D01*
X145748Y257014D01*
X145738Y256945D01*
X145713Y256864D01*
X145712Y256779D01*
X145701Y256710D01*
X145701Y245669D01*
X143593Y245669D01*
X143561Y245665D01*
X143529Y245667D01*
X143422Y245645D01*
X143314Y245629D01*
X143285Y245616D01*
X143253Y245610D01*
X143156Y245558D01*
X143057Y245513D01*
X143033Y245492D01*
X143004Y245477D01*
X142926Y245401D01*
X142843Y245330D01*
X142825Y245303D01*
X142802Y245280D01*
X142748Y245185D01*
X142688Y245094D01*
X142679Y245063D01*
X142663Y245035D01*
X142638Y244929D01*
X142606Y244824D01*
X142605Y244792D01*
X142598Y244761D01*
X142604Y244651D01*
X142602Y244542D01*
X142611Y244511D01*
X142612Y244479D01*
X142648Y244376D01*
X142677Y244270D01*
X142694Y244243D01*
X142705Y244212D01*
X142758Y244139D01*
X142825Y244030D01*
X142862Y243998D01*
X142887Y243963D01*
X143023Y243827D01*
X143099Y243770D01*
X143171Y243705D01*
X143212Y243685D01*
X143248Y243658D01*
X143338Y243624D01*
X143425Y243582D01*
X143467Y243576D01*
X143512Y243559D01*
X143640Y243549D01*
X143729Y243535D01*
X154332Y243535D01*
X154738Y243128D01*
X154790Y243089D01*
X154835Y243043D01*
X154902Y243005D01*
X154964Y242959D01*
X155024Y242936D01*
X155080Y242904D01*
X155155Y242886D01*
X155228Y242859D01*
X155292Y242854D01*
X155354Y242839D01*
X155432Y242843D01*
X155509Y242837D01*
X155572Y242850D01*
X155636Y242854D01*
X155709Y242879D01*
X155785Y242895D01*
X155842Y242925D01*
X155903Y242946D01*
X155959Y242987D01*
X156034Y243027D01*
X156095Y243087D01*
X156152Y243128D01*
X156812Y243788D01*
X156844Y243831D01*
X156883Y243868D01*
X156928Y243943D01*
X156981Y244014D01*
X157000Y244064D01*
X157028Y244110D01*
X157050Y244195D01*
X157081Y244278D01*
X157085Y244331D01*
X157098Y244383D01*
X157096Y244471D01*
X157103Y244559D01*
X157092Y244611D01*
X157090Y244665D01*
X157063Y244749D01*
X157045Y244835D01*
X157020Y244882D01*
X157003Y244933D01*
X156954Y245006D01*
X156913Y245084D01*
X156875Y245123D01*
X156845Y245167D01*
X156784Y245216D01*
X156716Y245286D01*
X156653Y245322D01*
X156605Y245360D01*
X156230Y245577D01*
X156037Y245770D01*
X155977Y245815D01*
X155923Y245868D01*
X155865Y245899D01*
X155811Y245939D01*
X155741Y245966D01*
X155675Y246001D01*
X155610Y246015D01*
X155547Y246039D01*
X155473Y246045D01*
X155399Y246060D01*
X155333Y246056D01*
X155266Y246061D01*
X155193Y246045D01*
X155118Y246040D01*
X155061Y246018D01*
X154990Y246003D01*
X154904Y245957D01*
X154831Y245929D01*
X154681Y245842D01*
X154035Y245669D01*
X149699Y245669D01*
X149699Y255711D01*
X156079Y255711D01*
X156185Y255726D01*
X156292Y255734D01*
X156322Y255745D01*
X156359Y255751D01*
X156494Y255812D01*
X156579Y255845D01*
X156809Y255978D01*
X157455Y256151D01*
X159791Y256151D01*
X159791Y251110D01*
X159800Y251047D01*
X159799Y250982D01*
X159820Y250908D01*
X159831Y250831D01*
X159857Y250773D01*
X159874Y250711D01*
X159915Y250645D01*
X159947Y250574D01*
X159988Y250525D01*
X160022Y250471D01*
X160080Y250419D01*
X160130Y250360D01*
X160184Y250325D01*
X160232Y250282D01*
X160301Y250248D01*
X160366Y250205D01*
X160428Y250187D01*
X160485Y250159D01*
X160555Y250148D01*
X160636Y250123D01*
X160721Y250122D01*
X160790Y250111D01*
X160791Y250111D01*
X160791Y250110D01*
X160800Y250046D01*
X160799Y249982D01*
X160820Y249907D01*
X160831Y249831D01*
X160857Y249772D01*
X160874Y249710D01*
X160915Y249644D01*
X160947Y249574D01*
X160989Y249525D01*
X161023Y249470D01*
X161080Y249418D01*
X161130Y249360D01*
X161184Y249324D01*
X161232Y249281D01*
X161301Y249248D01*
X161366Y249205D01*
X161428Y249186D01*
X161486Y249158D01*
X161555Y249147D01*
X161636Y249123D01*
X161721Y249122D01*
X161790Y249111D01*
X167331Y249111D01*
X167331Y247275D01*
X167158Y246629D01*
X166823Y246050D01*
X166350Y245577D01*
X165975Y245360D01*
X165933Y245327D01*
X165885Y245302D01*
X165822Y245241D01*
X165753Y245186D01*
X165722Y245143D01*
X165683Y245105D01*
X165640Y245029D01*
X165589Y244957D01*
X165571Y244907D01*
X165544Y244860D01*
X165524Y244774D01*
X165495Y244691D01*
X165492Y244638D01*
X165479Y244585D01*
X165484Y244497D01*
X165479Y244410D01*
X165491Y244358D01*
X165494Y244304D01*
X165523Y244220D01*
X165542Y244135D01*
X165569Y244088D01*
X165586Y244037D01*
X165632Y243974D01*
X165680Y243889D01*
X165732Y243838D01*
X165768Y243788D01*
X166315Y243242D01*
X166315Y235978D01*
X165422Y235085D01*
X157158Y235085D01*
X156931Y235313D01*
X156905Y235333D01*
X156884Y235357D01*
X156792Y235417D01*
X156705Y235482D01*
X156675Y235494D01*
X156648Y235511D01*
X156543Y235543D01*
X156441Y235582D01*
X156409Y235584D01*
X156378Y235594D01*
X156269Y235595D01*
X156160Y235604D01*
X156128Y235597D01*
X156096Y235598D01*
X155991Y235568D01*
X155884Y235546D01*
X155855Y235531D01*
X155824Y235522D01*
X155731Y235465D01*
X155635Y235414D01*
X155612Y235391D01*
X155584Y235374D01*
X155511Y235293D01*
X155433Y235217D01*
X155417Y235189D01*
X155395Y235165D01*
X155348Y235066D01*
X155294Y234972D01*
X155286Y234940D01*
X155272Y234911D01*
X155258Y234822D01*
X155229Y234697D01*
X155231Y234649D01*
X155225Y234607D01*
X155225Y222378D01*
X154332Y221485D01*
X141056Y221485D01*
X141029Y221513D01*
X140961Y221551D01*
X140899Y221598D01*
X140839Y221621D01*
X140783Y221652D01*
X140708Y221670D01*
X140636Y221698D01*
X140572Y221702D01*
X140509Y221717D01*
X140432Y221713D01*
X140354Y221719D01*
X140291Y221706D01*
X140227Y221703D01*
X140154Y221678D01*
X140078Y221662D01*
X140022Y221632D01*
X139961Y221610D01*
X139904Y221569D01*
X139829Y221529D01*
X139769Y221470D01*
X139712Y221429D01*
X139260Y220977D01*
X138681Y220642D01*
X138035Y220469D01*
X137428Y220469D01*
X137396Y220465D01*
X137364Y220467D01*
X137257Y220445D01*
X137149Y220429D01*
X137119Y220416D01*
X137088Y220410D01*
X136991Y220358D01*
X136892Y220313D01*
X136867Y220292D01*
X136839Y220277D01*
X136760Y220201D01*
X136677Y220130D01*
X136660Y220103D01*
X136637Y220080D01*
X136583Y219985D01*
X136523Y219894D01*
X136513Y219863D01*
X136498Y219835D01*
X136472Y219729D01*
X136440Y219624D01*
X136440Y219592D01*
X136433Y219561D01*
X136438Y219451D01*
X136437Y219342D01*
X136445Y219311D01*
X136447Y219279D01*
X136483Y219176D01*
X136512Y219070D01*
X136529Y219043D01*
X136539Y219012D01*
X136593Y218939D01*
X136660Y218830D01*
X136696Y218798D01*
X136721Y218763D01*
X138610Y216874D01*
X158735Y196750D01*
X158735Y185196D01*
X158739Y185164D01*
X158737Y185132D01*
X158759Y185025D01*
X158775Y184917D01*
X158788Y184887D01*
X158794Y184856D01*
X158846Y184759D01*
X158891Y184660D01*
X158912Y184635D01*
X158927Y184607D01*
X159003Y184528D01*
X159074Y184445D01*
X159101Y184428D01*
X159124Y184405D01*
X159219Y184351D01*
X159310Y184291D01*
X159341Y184281D01*
X159369Y184266D01*
X159475Y184240D01*
X159580Y184209D01*
X159612Y184208D01*
X159644Y184201D01*
X159753Y184206D01*
X159862Y184205D01*
X159893Y184213D01*
X159925Y184215D01*
X160028Y184251D01*
X160134Y184280D01*
X160161Y184297D01*
X160192Y184308D01*
X160265Y184361D01*
X160374Y184428D01*
X160406Y184464D01*
X160441Y184489D01*
X160783Y184831D01*
X160840Y184908D01*
X160905Y184980D01*
X160925Y185021D01*
X160952Y185057D01*
X160986Y185147D01*
X161028Y185233D01*
X161034Y185275D01*
X161051Y185321D01*
X161061Y185448D01*
X161075Y185538D01*
X161075Y199787D01*
X165973Y204685D01*
X167255Y204685D01*
X167349Y204698D01*
X167446Y204703D01*
X167489Y204718D01*
X167534Y204725D01*
X167621Y204764D01*
X167712Y204796D01*
X167747Y204821D01*
X167791Y204841D01*
X167874Y204912D01*
X167916Y204938D01*
X167933Y204957D01*
X167961Y204977D01*
X167983Y204999D01*
X167995Y205016D01*
X168005Y205024D01*
X168028Y205060D01*
X168040Y205076D01*
X168105Y205147D01*
X168125Y205188D01*
X168152Y205224D01*
X168186Y205315D01*
X168228Y205401D01*
X168234Y205443D01*
X168251Y205488D01*
X168261Y205616D01*
X168275Y205705D01*
X168275Y207045D01*
X168262Y207139D01*
X168257Y207236D01*
X168242Y207279D01*
X168235Y207324D01*
X168196Y207411D01*
X168164Y207502D01*
X168139Y207537D01*
X168119Y207581D01*
X168036Y207678D01*
X167983Y207751D01*
X167775Y207958D01*
X167775Y216222D01*
X168668Y217115D01*
X175932Y217115D01*
X176478Y216568D01*
X176521Y216536D01*
X176558Y216497D01*
X176633Y216452D01*
X176704Y216399D01*
X176754Y216380D01*
X176800Y216352D01*
X176885Y216330D01*
X176968Y216299D01*
X177021Y216295D01*
X177073Y216282D01*
X177161Y216284D01*
X177249Y216277D01*
X177301Y216288D01*
X177355Y216290D01*
X177439Y216317D01*
X177525Y216335D01*
X177572Y216360D01*
X177623Y216377D01*
X177696Y216426D01*
X177774Y216467D01*
X177813Y216505D01*
X177857Y216535D01*
X177906Y216596D01*
X177976Y216664D01*
X178012Y216727D01*
X178050Y216775D01*
X178267Y217150D01*
X178740Y217623D01*
X179319Y217958D01*
X179965Y218131D01*
X181801Y218131D01*
X181801Y212590D01*
X181810Y212527D01*
X181809Y212462D01*
X181830Y212388D01*
X181841Y212311D01*
X181867Y212253D01*
X181884Y212191D01*
X181925Y212125D01*
X181942Y212087D01*
X181938Y212079D01*
X181895Y212014D01*
X181876Y211952D01*
X181848Y211894D01*
X181837Y211825D01*
X181813Y211744D01*
X181812Y211659D01*
X181801Y211590D01*
X181801Y201160D01*
X181810Y201097D01*
X181809Y201032D01*
X181830Y200958D01*
X181841Y200881D01*
X181867Y200823D01*
X181884Y200761D01*
X181925Y200695D01*
X181942Y200657D01*
X181938Y200649D01*
X181895Y200584D01*
X181876Y200522D01*
X181848Y200464D01*
X181837Y200395D01*
X181813Y200314D01*
X181812Y200229D01*
X181801Y200160D01*
X181801Y189730D01*
X181810Y189667D01*
X181809Y189602D01*
X181830Y189528D01*
X181841Y189451D01*
X181867Y189393D01*
X181884Y189331D01*
X181925Y189265D01*
X181957Y189194D01*
X181998Y189145D01*
X182032Y189091D01*
X182090Y189039D01*
X182140Y188980D01*
X182194Y188945D01*
X182242Y188902D01*
X182311Y188868D01*
X182376Y188825D01*
X182438Y188807D01*
X182495Y188779D01*
X182565Y188768D01*
X182646Y188743D01*
X182731Y188742D01*
X182800Y188731D01*
X183800Y188731D01*
X183864Y188740D01*
X183928Y188739D01*
X184003Y188760D01*
X184079Y188771D01*
X184138Y188797D01*
X184200Y188814D01*
X184266Y188855D01*
X184336Y188887D01*
X184385Y188929D01*
X184440Y188963D01*
X184492Y189020D01*
X184550Y189070D01*
X184586Y189124D01*
X184629Y189172D01*
X184662Y189241D01*
X184705Y189306D01*
X184724Y189368D01*
X184752Y189426D01*
X184763Y189495D01*
X184787Y189576D01*
X184788Y189661D01*
X184799Y189730D01*
X184799Y199161D01*
X188841Y199161D01*
X188841Y196825D01*
X188668Y196179D01*
X188317Y195571D01*
X188300Y195555D01*
X188262Y195488D01*
X188215Y195426D01*
X188193Y195366D01*
X188161Y195310D01*
X188143Y195234D01*
X188116Y195162D01*
X188111Y195098D01*
X188096Y195035D01*
X188100Y194958D01*
X188094Y194881D01*
X188107Y194818D01*
X188107Y194810D01*
X188108Y194808D01*
X188111Y194753D01*
X188136Y194680D01*
X188152Y194605D01*
X188177Y194557D01*
X188182Y194539D01*
X188189Y194527D01*
X188203Y194487D01*
X188244Y194431D01*
X188284Y194356D01*
X188311Y194328D01*
X188668Y193711D01*
X188841Y193065D01*
X188841Y190553D01*
X188845Y190521D01*
X188843Y190489D01*
X188865Y190382D01*
X188881Y190274D01*
X188894Y190244D01*
X188900Y190213D01*
X188952Y190117D01*
X188997Y190017D01*
X189018Y189992D01*
X189033Y189964D01*
X189109Y189886D01*
X189180Y189803D01*
X189207Y189785D01*
X189230Y189762D01*
X189325Y189708D01*
X189416Y189648D01*
X189447Y189639D01*
X189475Y189623D01*
X189582Y189598D01*
X189686Y189566D01*
X189718Y189565D01*
X189749Y189558D01*
X189859Y189563D01*
X189968Y189562D01*
X189999Y189571D01*
X190031Y189572D01*
X190134Y189608D01*
X190240Y189637D01*
X190267Y189654D01*
X190298Y189665D01*
X190371Y189718D01*
X190480Y189785D01*
X190512Y189821D01*
X190547Y189847D01*
X198813Y198113D01*
X198870Y198189D01*
X198935Y198261D01*
X198955Y198302D01*
X198982Y198338D01*
X199016Y198428D01*
X199058Y198515D01*
X199064Y198557D01*
X199081Y198602D01*
X199091Y198730D01*
X199105Y198819D01*
X199105Y208152D01*
X199998Y209045D01*
X204917Y209045D01*
X204949Y209049D01*
X204981Y209047D01*
X205088Y209069D01*
X205196Y209085D01*
X205225Y209098D01*
X205257Y209104D01*
X205353Y209156D01*
X205453Y209201D01*
X205477Y209222D01*
X205506Y209237D01*
X205584Y209313D01*
X205667Y209384D01*
X205685Y209411D01*
X205708Y209434D01*
X205762Y209529D01*
X205821Y209620D01*
X205831Y209651D01*
X205847Y209679D01*
X205872Y209785D01*
X205904Y209890D01*
X205904Y209922D01*
X205912Y209953D01*
X205906Y210063D01*
X205908Y210172D01*
X205899Y210203D01*
X205897Y210235D01*
X205862Y210338D01*
X205832Y210444D01*
X205815Y210471D01*
X205805Y210502D01*
X205752Y210575D01*
X205684Y210684D01*
X205648Y210716D01*
X205623Y210751D01*
X204605Y211768D01*
X204605Y220032D01*
X205498Y220925D01*
X212762Y220925D01*
X213308Y220378D01*
X213351Y220346D01*
X213388Y220306D01*
X213464Y220261D01*
X213534Y220209D01*
X213584Y220190D01*
X213630Y220162D01*
X213715Y220140D01*
X213798Y220109D01*
X213851Y220105D01*
X213903Y220091D01*
X213991Y220094D01*
X214079Y220087D01*
X214131Y220098D01*
X214185Y220100D01*
X214269Y220127D01*
X214355Y220145D01*
X214402Y220170D01*
X214454Y220187D01*
X214526Y220236D01*
X214604Y220277D01*
X214643Y220315D01*
X214687Y220345D01*
X214736Y220406D01*
X214806Y220474D01*
X214842Y220537D01*
X214880Y220585D01*
X215097Y220960D01*
X215570Y221433D01*
X216149Y221768D01*
X216795Y221941D01*
X218631Y221941D01*
X218631Y216400D01*
X218640Y216337D01*
X218639Y216272D01*
X218660Y216198D01*
X218671Y216121D01*
X218697Y216063D01*
X218714Y216001D01*
X218755Y215935D01*
X218787Y215864D01*
X218828Y215815D01*
X218862Y215761D01*
X218920Y215709D01*
X218970Y215650D01*
X219024Y215615D01*
X219072Y215572D01*
X219141Y215538D01*
X219206Y215495D01*
X219268Y215477D01*
X219325Y215449D01*
X219395Y215438D01*
X219476Y215413D01*
X219561Y215412D01*
X219630Y215401D01*
X219631Y215401D01*
X219631Y215400D01*
X219640Y215336D01*
X219639Y215272D01*
X219660Y215197D01*
X219671Y215121D01*
X219697Y215062D01*
X219714Y215000D01*
X219755Y214934D01*
X219787Y214864D01*
X219829Y214815D01*
X219863Y214760D01*
X219920Y214708D01*
X219970Y214650D01*
X220024Y214614D01*
X220072Y214571D01*
X220141Y214538D01*
X220206Y214495D01*
X220268Y214476D01*
X220326Y214448D01*
X220395Y214437D01*
X220476Y214413D01*
X220561Y214412D01*
X220630Y214401D01*
X225671Y214401D01*
X225671Y212065D01*
X225471Y211319D01*
X225464Y211265D01*
X225449Y211214D01*
X225447Y211126D01*
X225437Y211039D01*
X225445Y210986D01*
X225445Y210932D01*
X225468Y210847D01*
X225483Y210760D01*
X225506Y210712D01*
X225520Y210660D01*
X225566Y210585D01*
X225604Y210506D01*
X225640Y210466D01*
X225668Y210420D01*
X225734Y210361D01*
X225792Y210296D01*
X225838Y210267D01*
X225877Y210231D01*
X225957Y210193D01*
X226031Y210146D01*
X226083Y210132D01*
X226131Y210108D01*
X226209Y210096D01*
X226303Y210070D01*
X226375Y210070D01*
X226436Y210061D01*
X228965Y210061D01*
X229611Y209888D01*
X230190Y209553D01*
X230663Y209080D01*
X230998Y208501D01*
X231171Y207855D01*
X231171Y200019D01*
X223630Y200019D01*
X223566Y200010D01*
X223502Y200011D01*
X223428Y199990D01*
X223351Y199979D01*
X223292Y199953D01*
X223230Y199936D01*
X223164Y199895D01*
X223094Y199863D01*
X223045Y199821D01*
X222990Y199788D01*
X222939Y199730D01*
X222880Y199680D01*
X222844Y199626D01*
X222801Y199578D01*
X222768Y199509D01*
X222725Y199444D01*
X222706Y199382D01*
X222678Y199325D01*
X222668Y199255D01*
X222643Y199174D01*
X222642Y199089D01*
X222631Y199020D01*
X222631Y198019D01*
X221630Y198019D01*
X221566Y198010D01*
X221502Y198011D01*
X221427Y197990D01*
X221351Y197979D01*
X221292Y197953D01*
X221230Y197936D01*
X221164Y197895D01*
X221094Y197863D01*
X221045Y197821D01*
X220990Y197788D01*
X220938Y197730D01*
X220880Y197680D01*
X220844Y197626D01*
X220801Y197578D01*
X220768Y197509D01*
X220725Y197444D01*
X220706Y197382D01*
X220678Y197324D01*
X220668Y197255D01*
X220643Y197174D01*
X220642Y197089D01*
X220631Y197020D01*
X220631Y185979D01*
X220054Y185979D01*
X220022Y185975D01*
X219989Y185977D01*
X219882Y185955D01*
X219774Y185939D01*
X219745Y185926D01*
X219713Y185920D01*
X219617Y185868D01*
X219518Y185823D01*
X219493Y185802D01*
X219464Y185787D01*
X219386Y185711D01*
X219303Y185640D01*
X219286Y185613D01*
X219262Y185590D01*
X219209Y185495D01*
X219149Y185404D01*
X219139Y185373D01*
X219123Y185345D01*
X219098Y185239D01*
X219066Y185134D01*
X219066Y185102D01*
X219059Y185070D01*
X219064Y184961D01*
X219063Y184852D01*
X219071Y184821D01*
X219073Y184789D01*
X219109Y184686D01*
X219138Y184580D01*
X219155Y184553D01*
X219165Y184522D01*
X219219Y184449D01*
X219286Y184340D01*
X219316Y184314D01*
X219320Y184306D01*
X219329Y184298D01*
X219347Y184273D01*
X219483Y184137D01*
X219560Y184080D01*
X219631Y184015D01*
X219672Y183995D01*
X219709Y183968D01*
X219799Y183934D01*
X219885Y183892D01*
X219927Y183886D01*
X219973Y183869D01*
X220100Y183859D01*
X220190Y183845D01*
X229394Y183845D01*
X229450Y183831D01*
X229523Y183804D01*
X229587Y183799D01*
X229649Y183784D01*
X229727Y183788D01*
X229804Y183782D01*
X229867Y183795D01*
X229931Y183799D01*
X230004Y183824D01*
X230080Y183840D01*
X230137Y183870D01*
X230198Y183891D01*
X230254Y183932D01*
X230329Y183972D01*
X230390Y184031D01*
X230447Y184073D01*
X230472Y184098D01*
X230504Y184141D01*
X230543Y184178D01*
X230589Y184254D01*
X230641Y184324D01*
X230660Y184374D01*
X230688Y184420D01*
X230710Y184505D01*
X230741Y184588D01*
X230745Y184641D01*
X230758Y184693D01*
X230756Y184781D01*
X230763Y184869D01*
X230752Y184921D01*
X230750Y184975D01*
X230723Y185059D01*
X230705Y185145D01*
X230680Y185192D01*
X230663Y185243D01*
X230614Y185316D01*
X230573Y185394D01*
X230535Y185433D01*
X230505Y185477D01*
X230444Y185526D01*
X230376Y185596D01*
X230313Y185632D01*
X230265Y185670D01*
X229846Y185912D01*
X229757Y185948D01*
X229671Y185992D01*
X229626Y186001D01*
X229584Y186018D01*
X229488Y186027D01*
X229394Y186045D01*
X229352Y186041D01*
X229303Y186045D01*
X229177Y186022D01*
X229087Y186012D01*
X228964Y185979D01*
X224629Y185979D01*
X224629Y196021D01*
X229739Y196021D01*
X229845Y196036D01*
X229952Y196044D01*
X229982Y196055D01*
X230019Y196061D01*
X230154Y196122D01*
X230239Y196155D01*
X230469Y196288D01*
X231115Y196461D01*
X233451Y196461D01*
X233451Y191420D01*
X233460Y191357D01*
X233459Y191292D01*
X233480Y191218D01*
X233491Y191141D01*
X233517Y191083D01*
X233534Y191021D01*
X233575Y190955D01*
X233607Y190884D01*
X233648Y190835D01*
X233682Y190781D01*
X233740Y190729D01*
X233790Y190670D01*
X233844Y190635D01*
X233892Y190592D01*
X233961Y190558D01*
X234026Y190515D01*
X234088Y190497D01*
X234145Y190469D01*
X234215Y190458D01*
X234296Y190433D01*
X234381Y190432D01*
X234450Y190421D01*
X234451Y190421D01*
X234451Y190420D01*
X234460Y190356D01*
X234459Y190292D01*
X234480Y190217D01*
X234491Y190141D01*
X234517Y190082D01*
X234534Y190020D01*
X234575Y189954D01*
X234607Y189884D01*
X234649Y189835D01*
X234683Y189780D01*
X234740Y189728D01*
X234790Y189670D01*
X234844Y189634D01*
X234892Y189591D01*
X234961Y189558D01*
X235026Y189515D01*
X235088Y189496D01*
X235146Y189468D01*
X235215Y189457D01*
X235296Y189433D01*
X235381Y189432D01*
X235450Y189421D01*
X240991Y189421D01*
X240991Y187585D01*
X240818Y186939D01*
X240483Y186360D01*
X240010Y185887D01*
X239635Y185670D01*
X239593Y185637D01*
X239545Y185612D01*
X239482Y185551D01*
X239413Y185496D01*
X239382Y185453D01*
X239343Y185415D01*
X239300Y185339D01*
X239249Y185267D01*
X239231Y185217D01*
X239204Y185170D01*
X239184Y185084D01*
X239155Y185001D01*
X239152Y184948D01*
X239139Y184895D01*
X239144Y184807D01*
X239139Y184720D01*
X239151Y184668D01*
X239154Y184614D01*
X239183Y184530D01*
X239202Y184445D01*
X239229Y184398D01*
X239246Y184347D01*
X239292Y184284D01*
X239340Y184199D01*
X239392Y184148D01*
X239428Y184098D01*
X239975Y183552D01*
X239975Y176288D01*
X239082Y175395D01*
X234410Y175395D01*
X234315Y175382D01*
X234219Y175377D01*
X234175Y175362D01*
X234130Y175355D01*
X234043Y175316D01*
X233952Y175284D01*
X233918Y175259D01*
X233874Y175239D01*
X233776Y175156D01*
X233703Y175103D01*
X230447Y171847D01*
X230390Y171770D01*
X230325Y171699D01*
X230305Y171658D01*
X230278Y171621D01*
X230244Y171531D01*
X230202Y171445D01*
X230196Y171403D01*
X230179Y171357D01*
X230169Y171230D01*
X230155Y171140D01*
X230155Y162688D01*
X229262Y161795D01*
X215986Y161795D01*
X215959Y161823D01*
X215891Y161861D01*
X215829Y161908D01*
X215769Y161931D01*
X215713Y161962D01*
X215638Y161980D01*
X215566Y162008D01*
X215502Y162012D01*
X215439Y162027D01*
X215362Y162023D01*
X215284Y162029D01*
X215221Y162016D01*
X215157Y162013D01*
X215084Y161988D01*
X215008Y161972D01*
X214952Y161942D01*
X214891Y161920D01*
X214834Y161879D01*
X214759Y161839D01*
X214699Y161780D01*
X214642Y161739D01*
X214190Y161287D01*
X213611Y160952D01*
X212965Y160779D01*
X208629Y160779D01*
X208629Y171820D01*
X208620Y171884D01*
X208621Y171948D01*
X208600Y172022D01*
X208589Y172099D01*
X208563Y172158D01*
X208546Y172220D01*
X208505Y172286D01*
X208473Y172356D01*
X208431Y172405D01*
X208398Y172460D01*
X208340Y172511D01*
X208290Y172570D01*
X208236Y172606D01*
X208188Y172649D01*
X208119Y172682D01*
X208054Y172725D01*
X207992Y172744D01*
X207935Y172772D01*
X207865Y172782D01*
X207784Y172807D01*
X207699Y172808D01*
X207630Y172819D01*
X206629Y172819D01*
X206629Y173820D01*
X206620Y173884D01*
X206621Y173948D01*
X206600Y174023D01*
X206589Y174099D01*
X206563Y174158D01*
X206546Y174220D01*
X206505Y174286D01*
X206473Y174356D01*
X206431Y174405D01*
X206398Y174460D01*
X206340Y174512D01*
X206290Y174570D01*
X206236Y174606D01*
X206188Y174649D01*
X206119Y174682D01*
X206054Y174725D01*
X205992Y174744D01*
X205934Y174772D01*
X205865Y174782D01*
X205784Y174807D01*
X205699Y174808D01*
X205630Y174819D01*
X198089Y174819D01*
X198089Y176522D01*
X198085Y176554D01*
X198087Y176586D01*
X198065Y176693D01*
X198049Y176801D01*
X198036Y176831D01*
X198030Y176862D01*
X197978Y176959D01*
X197933Y177058D01*
X197912Y177083D01*
X197897Y177111D01*
X197821Y177190D01*
X197750Y177272D01*
X197723Y177290D01*
X197700Y177313D01*
X197605Y177367D01*
X197514Y177427D01*
X197483Y177436D01*
X197455Y177452D01*
X197349Y177477D01*
X197244Y177509D01*
X197212Y177510D01*
X197181Y177517D01*
X197071Y177512D01*
X196962Y177513D01*
X196931Y177505D01*
X196899Y177503D01*
X196796Y177467D01*
X196690Y177438D01*
X196663Y177421D01*
X196632Y177410D01*
X196559Y177357D01*
X196450Y177290D01*
X196418Y177254D01*
X196383Y177229D01*
X181835Y162680D01*
X181797Y162629D01*
X181750Y162584D01*
X181712Y162517D01*
X181666Y162455D01*
X181643Y162395D01*
X181611Y162339D01*
X181594Y162263D01*
X181566Y162191D01*
X181561Y162127D01*
X181547Y162064D01*
X181551Y161987D01*
X181545Y161910D01*
X181558Y161847D01*
X181561Y161783D01*
X181586Y161709D01*
X181602Y161634D01*
X181632Y161577D01*
X181635Y161568D01*
X181637Y161563D01*
X181638Y161562D01*
X181653Y161516D01*
X181695Y161460D01*
X181700Y161449D01*
X181708Y161394D01*
X181707Y161329D01*
X181728Y161255D01*
X181739Y161178D01*
X181765Y161120D01*
X181783Y161058D01*
X181823Y160992D01*
X181855Y160921D01*
X181897Y160872D01*
X181931Y160818D01*
X181988Y160766D01*
X182039Y160707D01*
X182092Y160672D01*
X182140Y160629D01*
X182210Y160595D01*
X182274Y160552D01*
X182336Y160534D01*
X182394Y160506D01*
X182463Y160495D01*
X182544Y160470D01*
X182629Y160469D01*
X182635Y160468D01*
X186711Y156392D01*
X186787Y156334D01*
X186859Y156270D01*
X186900Y156250D01*
X186936Y156222D01*
X187026Y156189D01*
X187113Y156147D01*
X187155Y156140D01*
X187200Y156123D01*
X187328Y156113D01*
X187417Y156099D01*
X194183Y156099D01*
X200264Y150017D01*
X200341Y149960D01*
X200413Y149895D01*
X200454Y149875D01*
X200490Y149848D01*
X200580Y149814D01*
X200666Y149772D01*
X200708Y149766D01*
X200754Y149749D01*
X200882Y149739D01*
X200971Y149725D01*
X203522Y149725D01*
X204415Y148832D01*
X204415Y141568D01*
X203868Y141022D01*
X203836Y140979D01*
X203797Y140942D01*
X203752Y140867D01*
X203699Y140796D01*
X203680Y140746D01*
X203652Y140700D01*
X203630Y140615D01*
X203599Y140532D01*
X203595Y140479D01*
X203582Y140427D01*
X203584Y140339D01*
X203577Y140251D01*
X203588Y140199D01*
X203590Y140145D01*
X203617Y140061D01*
X203635Y139975D01*
X203660Y139928D01*
X203677Y139877D01*
X203726Y139804D01*
X203767Y139726D01*
X203805Y139687D01*
X203835Y139643D01*
X203896Y139594D01*
X203964Y139524D01*
X204027Y139488D01*
X204075Y139450D01*
X204450Y139233D01*
X204923Y138760D01*
X205258Y138181D01*
X205431Y137535D01*
X205431Y135699D01*
X199890Y135699D01*
X199827Y135690D01*
X199762Y135691D01*
X199688Y135670D01*
X199611Y135659D01*
X199553Y135633D01*
X199491Y135616D01*
X199425Y135575D01*
X199387Y135558D01*
X199379Y135562D01*
X199314Y135605D01*
X199252Y135624D01*
X199194Y135652D01*
X199125Y135663D01*
X199044Y135687D01*
X198959Y135688D01*
X198890Y135699D01*
X193349Y135699D01*
X193349Y137535D01*
X193522Y138181D01*
X193857Y138760D01*
X194330Y139233D01*
X194705Y139450D01*
X194747Y139483D01*
X194795Y139508D01*
X194858Y139569D01*
X194927Y139624D01*
X194958Y139667D01*
X194997Y139705D01*
X195040Y139781D01*
X195091Y139853D01*
X195109Y139903D01*
X195136Y139950D01*
X195156Y140036D01*
X195185Y140119D01*
X195188Y140172D01*
X195201Y140225D01*
X195196Y140313D01*
X195201Y140400D01*
X195189Y140452D01*
X195186Y140506D01*
X195157Y140590D01*
X195138Y140675D01*
X195111Y140722D01*
X195094Y140773D01*
X195048Y140836D01*
X195000Y140921D01*
X194948Y140972D01*
X194912Y141022D01*
X194365Y141568D01*
X194365Y144119D01*
X194352Y144214D01*
X194347Y144310D01*
X194332Y144353D01*
X194325Y144398D01*
X194286Y144486D01*
X194254Y144577D01*
X194229Y144611D01*
X194209Y144655D01*
X194126Y144752D01*
X194073Y144826D01*
X191141Y147757D01*
X191064Y147815D01*
X190993Y147879D01*
X190952Y147899D01*
X190916Y147926D01*
X190826Y147960D01*
X190739Y148002D01*
X190697Y148009D01*
X190652Y148026D01*
X190524Y148036D01*
X190435Y148050D01*
X181336Y148050D01*
X181241Y148036D01*
X181145Y148031D01*
X181102Y148016D01*
X181057Y148010D01*
X180970Y147970D01*
X180879Y147939D01*
X180844Y147914D01*
X180800Y147894D01*
X180703Y147810D01*
X180630Y147757D01*
X176547Y143675D01*
X176503Y143672D01*
X176460Y143657D01*
X176415Y143651D01*
X176328Y143611D01*
X176237Y143580D01*
X176202Y143555D01*
X176158Y143535D01*
X176061Y143451D01*
X175988Y143398D01*
X166995Y134405D01*
X152119Y134405D01*
X152024Y134392D01*
X151928Y134387D01*
X151885Y134372D01*
X151840Y134365D01*
X151752Y134326D01*
X151662Y134294D01*
X151627Y134269D01*
X151583Y134249D01*
X151486Y134166D01*
X151413Y134113D01*
X150681Y133381D01*
X149647Y133381D01*
X149552Y133368D01*
X149456Y133363D01*
X149413Y133348D01*
X149368Y133341D01*
X149280Y133302D01*
X149189Y133270D01*
X149155Y133245D01*
X149111Y133225D01*
X149014Y133142D01*
X148940Y133089D01*
X145471Y129619D01*
X87202Y129619D01*
X87170Y129615D01*
X87138Y129617D01*
X87031Y129595D01*
X86923Y129579D01*
X86894Y129566D01*
X86862Y129560D01*
X86766Y129508D01*
X86666Y129463D01*
X86641Y129442D01*
X86613Y129427D01*
X86535Y129351D01*
X86452Y129280D01*
X86434Y129253D01*
X86411Y129230D01*
X86357Y129135D01*
X86297Y129044D01*
X86288Y129013D01*
X86272Y128985D01*
X86247Y128879D01*
X86215Y128774D01*
X86214Y128742D01*
X86207Y128711D01*
X86213Y128601D01*
X86211Y128492D01*
X86220Y128461D01*
X86221Y128429D01*
X86257Y128326D01*
X86286Y128220D01*
X86303Y128193D01*
X86314Y128162D01*
X86367Y128089D01*
X86434Y127980D01*
X86470Y127948D01*
X86496Y127913D01*
X89077Y125332D01*
X89077Y125331D01*
X89076Y125267D01*
X89097Y125192D01*
X89108Y125116D01*
X89134Y125057D01*
X89152Y124995D01*
X89192Y124929D01*
X89224Y124859D01*
X89266Y124810D01*
X89300Y124755D01*
X89357Y124703D01*
X89408Y124644D01*
X89461Y124609D01*
X89509Y124566D01*
X89579Y124532D01*
X89644Y124490D01*
X89705Y124471D01*
X89763Y124443D01*
X89832Y124432D01*
X89913Y124408D01*
X89998Y124406D01*
X90004Y124406D01*
X94734Y119675D01*
X94734Y119674D01*
X94733Y119610D01*
X94754Y119535D01*
X94765Y119459D01*
X94791Y119400D01*
X94808Y119338D01*
X94849Y119272D01*
X94881Y119202D01*
X94923Y119153D01*
X94957Y119098D01*
X95014Y119046D01*
X95064Y118988D01*
X95118Y118952D01*
X95166Y118909D01*
X95235Y118876D01*
X95300Y118833D01*
X95362Y118814D01*
X95420Y118786D01*
X95489Y118775D01*
X95570Y118751D01*
X95655Y118750D01*
X95660Y118749D01*
X100391Y114018D01*
X100391Y114017D01*
X100390Y113953D01*
X100411Y113878D01*
X100422Y113802D01*
X100448Y113743D01*
X100465Y113681D01*
X100506Y113615D01*
X100538Y113545D01*
X100580Y113496D01*
X100613Y113441D01*
X100671Y113389D01*
X100721Y113331D01*
X100775Y113295D01*
X100823Y113252D01*
X100892Y113219D01*
X100957Y113176D01*
X101019Y113157D01*
X101076Y113129D01*
X101146Y113119D01*
X101227Y113094D01*
X101312Y113093D01*
X101381Y113082D01*
X101477Y113082D01*
X101572Y113095D01*
X101669Y113100D01*
X101712Y113115D01*
X101757Y113122D01*
X101844Y113161D01*
X101935Y113193D01*
X101969Y113218D01*
X102014Y113238D01*
X102111Y113321D01*
X102184Y113375D01*
X103094Y114285D01*
X105186Y114285D01*
X107719Y111752D01*
X107796Y111694D01*
X107867Y111629D01*
X107908Y111610D01*
X107945Y111582D01*
X108035Y111548D01*
X108121Y111506D01*
X108163Y111500D01*
X108208Y111483D01*
X108336Y111473D01*
X108426Y111459D01*
X112995Y111459D01*
X130795Y93660D01*
X130795Y93616D01*
X130799Y93584D01*
X130797Y93552D01*
X130819Y93445D01*
X130835Y93337D01*
X130848Y93308D01*
X130854Y93276D01*
X130906Y93180D01*
X130951Y93080D01*
X130972Y93055D01*
X130987Y93027D01*
X131063Y92949D01*
X131134Y92866D01*
X131161Y92848D01*
X131184Y92825D01*
X131279Y92771D01*
X131370Y92711D01*
X131401Y92702D01*
X131429Y92686D01*
X131535Y92661D01*
X131640Y92629D01*
X131672Y92628D01*
X131703Y92621D01*
X131813Y92627D01*
X131922Y92625D01*
X131953Y92634D01*
X131985Y92635D01*
X132088Y92671D01*
X132194Y92700D01*
X132221Y92717D01*
X132252Y92728D01*
X132325Y92781D01*
X132434Y92848D01*
X132466Y92884D01*
X132501Y92910D01*
X135711Y96120D01*
X135712Y96120D01*
X135776Y96119D01*
X135851Y96140D01*
X135928Y96151D01*
X135986Y96178D01*
X136048Y96195D01*
X136114Y96235D01*
X136184Y96267D01*
X136233Y96309D01*
X136288Y96343D01*
X136340Y96400D01*
X136399Y96451D01*
X136434Y96504D01*
X136477Y96552D01*
X136511Y96622D01*
X136553Y96687D01*
X136572Y96748D01*
X136600Y96806D01*
X136611Y96875D01*
X136636Y96956D01*
X136637Y97041D01*
X136638Y97047D01*
X141368Y101777D01*
X141369Y101777D01*
X141433Y101776D01*
X141508Y101797D01*
X141584Y101808D01*
X141643Y101834D01*
X141705Y101852D01*
X141771Y101892D01*
X141841Y101924D01*
X141890Y101966D01*
X141945Y102000D01*
X141997Y102057D01*
X142056Y102108D01*
X142091Y102161D01*
X142134Y102209D01*
X142168Y102279D01*
X142210Y102344D01*
X142229Y102405D01*
X142257Y102463D01*
X142268Y102532D01*
X142292Y102613D01*
X142294Y102698D01*
X142294Y102704D01*
X147025Y107434D01*
X147026Y107434D01*
X147090Y107433D01*
X147165Y107454D01*
X147241Y107465D01*
X147300Y107491D01*
X147362Y107508D01*
X147428Y107549D01*
X147498Y107581D01*
X147547Y107623D01*
X147602Y107657D01*
X147654Y107714D01*
X147712Y107764D01*
X147748Y107818D01*
X147791Y107866D01*
X147824Y107935D01*
X147867Y108000D01*
X147886Y108062D01*
X147914Y108120D01*
X147925Y108189D01*
X147949Y108270D01*
X147950Y108355D01*
X147951Y108360D01*
X152682Y113091D01*
X152683Y113091D01*
X152747Y113090D01*
X152821Y113111D01*
X152898Y113122D01*
X152957Y113148D01*
X153019Y113165D01*
X153085Y113206D01*
X153155Y113238D01*
X153204Y113280D01*
X153259Y113313D01*
X153310Y113371D01*
X153369Y113421D01*
X153405Y113475D01*
X153448Y113523D01*
X153481Y113592D01*
X153524Y113657D01*
X153543Y113719D01*
X153571Y113776D01*
X153581Y113846D01*
X153606Y113927D01*
X153607Y114012D01*
X153608Y114017D01*
X158339Y118748D01*
X158404Y118747D01*
X158478Y118768D01*
X158555Y118779D01*
X158613Y118805D01*
X158675Y118822D01*
X158741Y118863D01*
X158812Y118895D01*
X158861Y118936D01*
X158915Y118970D01*
X158967Y119028D01*
X159026Y119078D01*
X159061Y119132D01*
X159104Y119180D01*
X159138Y119249D01*
X159181Y119314D01*
X159199Y119376D01*
X159227Y119433D01*
X159238Y119503D01*
X159263Y119584D01*
X159264Y119669D01*
X159265Y119674D01*
X163995Y124405D01*
X163996Y124405D01*
X164060Y124404D01*
X164135Y124424D01*
X164212Y124435D01*
X164270Y124462D01*
X164332Y124479D01*
X164398Y124520D01*
X164469Y124552D01*
X164517Y124593D01*
X164572Y124627D01*
X164624Y124685D01*
X164683Y124735D01*
X164718Y124789D01*
X164761Y124836D01*
X164795Y124906D01*
X164837Y124971D01*
X164856Y125032D01*
X164884Y125090D01*
X164895Y125160D01*
X164920Y125241D01*
X164921Y125325D01*
X164922Y125331D01*
X169280Y129689D01*
X169338Y129766D01*
X169402Y129837D01*
X169422Y129878D01*
X169449Y129915D01*
X169483Y130005D01*
X169525Y130091D01*
X169532Y130133D01*
X169549Y130179D01*
X169559Y130306D01*
X169573Y130396D01*
X169573Y130701D01*
X169746Y131347D01*
X170080Y131926D01*
X171272Y133118D01*
X177771Y126619D01*
X177822Y126581D01*
X177867Y126535D01*
X177934Y126496D01*
X177996Y126450D01*
X178056Y126427D01*
X178067Y126421D01*
X178084Y126373D01*
X178125Y126316D01*
X178165Y126241D01*
X178225Y126181D01*
X178266Y126124D01*
X184765Y119625D01*
X183573Y118434D01*
X182994Y118099D01*
X182664Y118011D01*
X182624Y117994D01*
X182582Y117985D01*
X182495Y117939D01*
X182404Y117900D01*
X182371Y117873D01*
X182333Y117853D01*
X182263Y117784D01*
X182186Y117721D01*
X182162Y117686D01*
X182131Y117656D01*
X182083Y117570D01*
X182027Y117489D01*
X182013Y117448D01*
X181992Y117411D01*
X181969Y117314D01*
X181939Y117221D01*
X181937Y117178D01*
X181927Y117136D01*
X181932Y117037D01*
X181929Y116939D01*
X181939Y116897D01*
X181942Y116854D01*
X181974Y116761D01*
X181998Y116666D01*
X182020Y116629D01*
X182034Y116588D01*
X182084Y116519D01*
X182141Y116422D01*
X182185Y116381D01*
X182216Y116339D01*
X196087Y102467D01*
X196164Y102410D01*
X196236Y102345D01*
X196276Y102325D01*
X196313Y102298D01*
X196403Y102264D01*
X196489Y102222D01*
X196531Y102216D01*
X196577Y102199D01*
X196704Y102189D01*
X196794Y102175D01*
X198616Y102175D01*
X198680Y102184D01*
X198744Y102183D01*
X198819Y102204D01*
X198895Y102215D01*
X198954Y102241D01*
X199016Y102258D01*
X199082Y102299D01*
X199152Y102331D01*
X199201Y102373D01*
X199256Y102406D01*
X199308Y102464D01*
X199366Y102514D01*
X199402Y102568D01*
X199445Y102616D01*
X199478Y102685D01*
X199521Y102750D01*
X199540Y102812D01*
X199568Y102869D01*
X199579Y102939D01*
X199603Y103020D01*
X199604Y103105D01*
X199615Y103174D01*
X199615Y103532D01*
X200508Y104425D01*
X209180Y104425D01*
X209275Y104438D01*
X209371Y104443D01*
X209415Y104458D01*
X209460Y104465D01*
X209547Y104504D01*
X209638Y104536D01*
X209672Y104561D01*
X209716Y104581D01*
X209814Y104664D01*
X209887Y104717D01*
X220223Y115053D01*
X220823Y115653D01*
X220880Y115730D01*
X220945Y115801D01*
X220965Y115842D01*
X220992Y115879D01*
X221026Y115969D01*
X221068Y116055D01*
X221074Y116097D01*
X221091Y116143D01*
X221101Y116270D01*
X221115Y116360D01*
X221115Y118432D01*
X222008Y119325D01*
X229272Y119325D01*
X229818Y118778D01*
X229861Y118746D01*
X229898Y118706D01*
X229974Y118661D01*
X230044Y118609D01*
X230094Y118590D01*
X230140Y118562D01*
X230225Y118540D01*
X230308Y118509D01*
X230361Y118505D01*
X230413Y118491D01*
X230501Y118494D01*
X230589Y118487D01*
X230641Y118498D01*
X230695Y118500D01*
X230779Y118527D01*
X230865Y118545D01*
X230912Y118570D01*
X230964Y118587D01*
X231036Y118636D01*
X231114Y118677D01*
X231153Y118715D01*
X231197Y118745D01*
X231246Y118806D01*
X231316Y118874D01*
X231352Y118937D01*
X231390Y118985D01*
X231607Y119360D01*
X232080Y119833D01*
X232659Y120168D01*
X233305Y120341D01*
X235141Y120341D01*
X235141Y114800D01*
X235150Y114737D01*
X235149Y114672D01*
X235170Y114598D01*
X235181Y114521D01*
X235207Y114463D01*
X235224Y114401D01*
X235265Y114335D01*
X235282Y114297D01*
X235278Y114289D01*
X235235Y114224D01*
X235216Y114162D01*
X235188Y114104D01*
X235177Y114035D01*
X235153Y113954D01*
X235152Y113869D01*
X235141Y113800D01*
X235141Y108259D01*
X233305Y108259D01*
X232659Y108432D01*
X232080Y108767D01*
X231607Y109240D01*
X231390Y109615D01*
X231357Y109657D01*
X231332Y109705D01*
X231271Y109768D01*
X231216Y109837D01*
X231173Y109868D01*
X231135Y109907D01*
X231059Y109950D01*
X230987Y110001D01*
X230937Y110019D01*
X230890Y110046D01*
X230804Y110066D01*
X230721Y110095D01*
X230668Y110098D01*
X230615Y110111D01*
X230527Y110106D01*
X230440Y110111D01*
X230387Y110099D01*
X230334Y110096D01*
X230251Y110067D01*
X230165Y110048D01*
X230118Y110021D01*
X230067Y110004D01*
X230004Y109958D01*
X229919Y109910D01*
X229868Y109858D01*
X229818Y109822D01*
X229272Y109275D01*
X222000Y109275D01*
X221905Y109262D01*
X221809Y109257D01*
X221765Y109242D01*
X221720Y109235D01*
X221633Y109196D01*
X221542Y109164D01*
X221508Y109139D01*
X221464Y109119D01*
X221366Y109036D01*
X221293Y108983D01*
X217210Y104899D01*
X217171Y104848D01*
X217125Y104803D01*
X217087Y104736D01*
X217041Y104674D01*
X217018Y104614D01*
X216986Y104558D01*
X216968Y104482D01*
X216941Y104410D01*
X216936Y104346D01*
X216921Y104283D01*
X216925Y104206D01*
X216919Y104129D01*
X216932Y104066D01*
X216936Y104002D01*
X216961Y103929D01*
X216977Y103853D01*
X217007Y103796D01*
X217028Y103735D01*
X217070Y103679D01*
X217109Y103604D01*
X217165Y103547D01*
X217165Y95768D01*
X216272Y94875D01*
X200508Y94875D01*
X199615Y95768D01*
X199615Y96126D01*
X199606Y96190D01*
X199607Y96254D01*
X199586Y96329D01*
X199575Y96405D01*
X199549Y96464D01*
X199532Y96526D01*
X199491Y96592D01*
X199459Y96662D01*
X199418Y96711D01*
X199384Y96766D01*
X199326Y96818D01*
X199276Y96876D01*
X199222Y96912D01*
X199174Y96955D01*
X199105Y96988D01*
X199040Y97031D01*
X198978Y97050D01*
X198921Y97078D01*
X198851Y97089D01*
X198770Y97113D01*
X198685Y97114D01*
X198616Y97125D01*
X194288Y97125D01*
X192517Y98897D01*
X178265Y113149D01*
X178213Y113188D01*
X178168Y113234D01*
X178101Y113272D01*
X178039Y113318D01*
X177979Y113341D01*
X177923Y113373D01*
X177848Y113391D01*
X177775Y113418D01*
X177711Y113423D01*
X177648Y113438D01*
X177571Y113434D01*
X177494Y113440D01*
X177431Y113427D01*
X177367Y113423D01*
X177294Y113398D01*
X177218Y113382D01*
X177161Y113352D01*
X177100Y113331D01*
X177044Y113289D01*
X177034Y113284D01*
X176978Y113276D01*
X176914Y113277D01*
X176839Y113256D01*
X176762Y113245D01*
X176704Y113219D01*
X176642Y113202D01*
X176576Y113161D01*
X176505Y113129D01*
X176457Y113087D01*
X176402Y113054D01*
X176350Y112996D01*
X176291Y112946D01*
X176256Y112892D01*
X176213Y112844D01*
X176179Y112775D01*
X176137Y112710D01*
X176118Y112648D01*
X176090Y112590D01*
X176079Y112521D01*
X176054Y112440D01*
X176053Y112355D01*
X176052Y112350D01*
X171322Y107619D01*
X171321Y107619D01*
X171257Y107620D01*
X171182Y107599D01*
X171105Y107588D01*
X171047Y107562D01*
X170985Y107545D01*
X170919Y107504D01*
X170849Y107472D01*
X170800Y107430D01*
X170745Y107397D01*
X170693Y107339D01*
X170634Y107289D01*
X170599Y107235D01*
X170556Y107187D01*
X170522Y107118D01*
X170480Y107053D01*
X170461Y106991D01*
X170433Y106934D01*
X170422Y106864D01*
X170397Y106783D01*
X170396Y106698D01*
X170395Y106693D01*
X165665Y101962D01*
X165664Y101962D01*
X165600Y101963D01*
X165525Y101943D01*
X165449Y101932D01*
X165390Y101905D01*
X165328Y101888D01*
X165262Y101847D01*
X165192Y101815D01*
X165143Y101774D01*
X165088Y101740D01*
X165036Y101682D01*
X164977Y101632D01*
X164942Y101578D01*
X164899Y101531D01*
X164865Y101461D01*
X164823Y101396D01*
X164804Y101335D01*
X164776Y101277D01*
X164765Y101207D01*
X164741Y101126D01*
X164739Y101042D01*
X164739Y101036D01*
X160008Y96306D01*
X160007Y96305D01*
X159943Y96306D01*
X159868Y96286D01*
X159792Y96275D01*
X159733Y96248D01*
X159671Y96231D01*
X159605Y96190D01*
X159535Y96159D01*
X159486Y96117D01*
X159431Y96083D01*
X159379Y96025D01*
X159321Y95975D01*
X159285Y95921D01*
X159242Y95874D01*
X159209Y95804D01*
X159166Y95739D01*
X159147Y95678D01*
X159119Y95620D01*
X159108Y95550D01*
X159084Y95469D01*
X159083Y95385D01*
X159082Y95379D01*
X154351Y90649D01*
X154350Y90649D01*
X154286Y90649D01*
X154212Y90629D01*
X154135Y90618D01*
X154076Y90591D01*
X154014Y90574D01*
X153948Y90534D01*
X153878Y90502D01*
X153829Y90460D01*
X153774Y90426D01*
X153723Y90369D01*
X153664Y90318D01*
X153628Y90264D01*
X153585Y90217D01*
X153552Y90147D01*
X153509Y90082D01*
X153490Y90021D01*
X153462Y89963D01*
X153452Y89894D01*
X153427Y89813D01*
X153426Y89728D01*
X153425Y89722D01*
X148694Y84992D01*
X148629Y84993D01*
X148555Y84972D01*
X148478Y84961D01*
X148420Y84935D01*
X148358Y84917D01*
X148292Y84877D01*
X148221Y84845D01*
X148172Y84803D01*
X148118Y84769D01*
X148066Y84712D01*
X148007Y84661D01*
X147972Y84608D01*
X147929Y84560D01*
X147895Y84490D01*
X147852Y84425D01*
X147834Y84364D01*
X147806Y84306D01*
X147795Y84237D01*
X147770Y84156D01*
X147769Y84071D01*
X147768Y84065D01*
X143046Y79344D01*
X141783Y79344D01*
X132501Y88627D01*
X132475Y88646D01*
X132454Y88671D01*
X132362Y88731D01*
X132275Y88796D01*
X132245Y88807D01*
X132218Y88825D01*
X132113Y88857D01*
X132011Y88896D01*
X131979Y88898D01*
X131948Y88907D01*
X131839Y88909D01*
X131730Y88917D01*
X131698Y88911D01*
X131666Y88911D01*
X131561Y88882D01*
X131454Y88860D01*
X131425Y88845D01*
X131394Y88836D01*
X131301Y88779D01*
X131205Y88727D01*
X131182Y88705D01*
X131154Y88688D01*
X131081Y88607D01*
X131003Y88531D01*
X130987Y88502D01*
X130965Y88479D01*
X130918Y88380D01*
X130864Y88285D01*
X130856Y88254D01*
X130842Y88225D01*
X130828Y88136D01*
X130799Y88011D01*
X130801Y87962D01*
X130795Y87920D01*
X130795Y70310D01*
X130808Y70215D01*
X130813Y70119D01*
X130828Y70075D01*
X130835Y70030D01*
X130874Y69943D01*
X130906Y69852D01*
X130931Y69818D01*
X130951Y69774D01*
X131034Y69676D01*
X131087Y69603D01*
X143452Y57239D01*
X143459Y57233D01*
X143465Y57226D01*
X143572Y57149D01*
X143677Y57070D01*
X143686Y57066D01*
X143694Y57061D01*
X143817Y57017D01*
X143941Y56970D01*
X143950Y56969D01*
X143959Y56966D01*
X144091Y56959D01*
X144222Y56948D01*
X144231Y56950D01*
X144241Y56950D01*
X144316Y56968D01*
X144498Y57006D01*
X144519Y57017D01*
X144541Y57022D01*
X146284Y57745D01*
X149716Y57745D01*
X152886Y56432D01*
X155312Y54006D01*
X156625Y50836D01*
X156625Y47404D01*
X155312Y44234D01*
X152886Y41808D01*
X149716Y40495D01*
X146284Y40495D01*
X143114Y41808D01*
X140688Y44234D01*
X139375Y47404D01*
X139375Y50836D01*
X140098Y52579D01*
X140100Y52589D01*
X140105Y52597D01*
X140135Y52726D01*
X140168Y52853D01*
X140167Y52862D01*
X140170Y52871D01*
X140163Y53004D01*
X140159Y53135D01*
X140156Y53144D01*
X140155Y53153D01*
X140112Y53278D01*
X140071Y53403D01*
X140066Y53411D01*
X140063Y53419D01*
X140017Y53482D01*
X139912Y53636D01*
X139894Y53651D01*
X139881Y53668D01*
X128691Y64859D01*
X128665Y64878D01*
X128644Y64903D01*
X128552Y64963D01*
X128465Y65028D01*
X128435Y65040D01*
X128408Y65057D01*
X128303Y65089D01*
X128201Y65128D01*
X128169Y65130D01*
X128138Y65140D01*
X128029Y65141D01*
X127920Y65150D01*
X127888Y65143D01*
X127856Y65143D01*
X127751Y65114D01*
X127644Y65092D01*
X127615Y65077D01*
X127584Y65068D01*
X127491Y65011D01*
X127395Y64959D01*
X127372Y64937D01*
X127344Y64920D01*
X127271Y64839D01*
X127193Y64763D01*
X127177Y64735D01*
X127155Y64711D01*
X127108Y64612D01*
X127054Y64517D01*
X127046Y64486D01*
X127032Y64457D01*
X127018Y64368D01*
X126989Y64243D01*
X126991Y64194D01*
X126985Y64152D01*
X126985Y58744D01*
X126994Y58680D01*
X126993Y58616D01*
X127014Y58541D01*
X127025Y58465D01*
X127051Y58406D01*
X127068Y58344D01*
X127109Y58278D01*
X127141Y58208D01*
X127183Y58159D01*
X127216Y58104D01*
X127274Y58052D01*
X127324Y57994D01*
X127378Y57958D01*
X127426Y57915D01*
X127495Y57882D01*
X127560Y57839D01*
X127622Y57820D01*
X127679Y57792D01*
X127749Y57781D01*
X127830Y57757D01*
X127915Y57756D01*
X127984Y57745D01*
X129716Y57745D01*
X132886Y56432D01*
X135312Y54006D01*
X136625Y50836D01*
X136625Y47404D01*
X135312Y44234D01*
X132886Y41808D01*
X129716Y40495D01*
X126284Y40495D01*
X123114Y41808D01*
X120688Y44234D01*
X119375Y47404D01*
X119375Y50836D01*
X120688Y54006D01*
X121643Y54960D01*
X121700Y55037D01*
X121765Y55108D01*
X121785Y55149D01*
X121812Y55185D01*
X121846Y55275D01*
X121888Y55362D01*
X121894Y55404D01*
X121911Y55449D01*
X121921Y55577D01*
X121935Y55666D01*
X121935Y86650D01*
X121931Y86682D01*
X121933Y86714D01*
X121911Y86821D01*
X121895Y86929D01*
X121882Y86959D01*
X121876Y86990D01*
X121824Y87087D01*
X121779Y87186D01*
X121758Y87211D01*
X121743Y87239D01*
X121667Y87318D01*
X121596Y87401D01*
X121569Y87418D01*
X121546Y87441D01*
X121451Y87495D01*
X121360Y87555D01*
X121329Y87565D01*
X121301Y87580D01*
X121194Y87606D01*
X121090Y87637D01*
X121058Y87638D01*
X121027Y87645D01*
X120917Y87640D01*
X120808Y87641D01*
X120777Y87633D01*
X120745Y87631D01*
X120642Y87595D01*
X120536Y87566D01*
X120509Y87549D01*
X120478Y87539D01*
X120405Y87485D01*
X120296Y87418D01*
X120264Y87382D01*
X120229Y87357D01*
X112217Y79344D01*
X110908Y79344D01*
X110864Y79377D01*
X110804Y79400D01*
X110748Y79432D01*
X110673Y79449D01*
X110600Y79477D01*
X110536Y79482D01*
X110474Y79497D01*
X110396Y79493D01*
X110319Y79499D01*
X110256Y79485D01*
X110192Y79482D01*
X110119Y79457D01*
X110043Y79441D01*
X109986Y79411D01*
X109925Y79390D01*
X109869Y79348D01*
X109794Y79309D01*
X109733Y79249D01*
X109676Y79208D01*
X80515Y50047D01*
X79833Y49364D01*
X79776Y49289D01*
X79712Y49218D01*
X79692Y49176D01*
X79664Y49139D01*
X79630Y49050D01*
X79589Y48965D01*
X79581Y48919D01*
X79564Y48875D01*
X79557Y48780D01*
X79541Y48687D01*
X79546Y48640D01*
X79542Y48594D01*
X79562Y48501D01*
X79572Y48406D01*
X79590Y48363D01*
X79600Y48318D01*
X79645Y48234D01*
X79681Y48146D01*
X79711Y48110D01*
X79732Y48069D01*
X79799Y48001D01*
X79858Y47927D01*
X79897Y47900D01*
X79929Y47867D01*
X80012Y47820D01*
X80090Y47766D01*
X80131Y47752D01*
X80175Y47728D01*
X80298Y47699D01*
X80383Y47671D01*
X82320Y47364D01*
X84122Y46779D01*
X85811Y45918D01*
X87344Y44804D01*
X88684Y43464D01*
X89798Y41931D01*
X90659Y40242D01*
X91244Y38439D01*
X91541Y36568D01*
X91541Y30114D01*
X91516Y30110D01*
X91452Y30111D01*
X91377Y30090D01*
X91301Y30079D01*
X91242Y30053D01*
X91180Y30036D01*
X91114Y29995D01*
X91044Y29963D01*
X90995Y29921D01*
X90940Y29888D01*
X90888Y29830D01*
X90830Y29780D01*
X90794Y29726D01*
X90751Y29678D01*
X90718Y29609D01*
X90675Y29544D01*
X90656Y29482D01*
X90628Y29425D01*
X90617Y29355D01*
X90593Y29274D01*
X90592Y29189D01*
X90581Y29120D01*
X90581Y27120D01*
X90590Y27056D01*
X90589Y26992D01*
X90610Y26917D01*
X90621Y26841D01*
X90647Y26782D01*
X90664Y26720D01*
X90705Y26654D01*
X90737Y26584D01*
X90779Y26535D01*
X90812Y26480D01*
X90870Y26428D01*
X90920Y26370D01*
X90974Y26334D01*
X91022Y26291D01*
X91091Y26258D01*
X91156Y26215D01*
X91218Y26196D01*
X91275Y26168D01*
X91345Y26158D01*
X91426Y26133D01*
X91511Y26132D01*
X91541Y26127D01*
X91541Y19672D01*
X91470Y19225D01*
X91470Y19224D01*
X91244Y17801D01*
X90659Y15998D01*
X89798Y14309D01*
X88684Y12776D01*
X87344Y11436D01*
X85811Y10322D01*
X84122Y9461D01*
X82319Y8876D01*
X81499Y8746D01*
X81499Y9458D01*
X81494Y9492D01*
X81497Y9527D01*
X81474Y9631D01*
X81459Y9737D01*
X81445Y9769D01*
X81438Y9803D01*
X81387Y9897D01*
X81343Y9994D01*
X81320Y10020D01*
X81304Y10051D01*
X81229Y10127D01*
X81160Y10208D01*
X81130Y10227D01*
X81106Y10252D01*
X81013Y10304D01*
X80924Y10363D01*
X80890Y10373D01*
X80860Y10390D01*
X80756Y10414D01*
X80654Y10445D01*
X80619Y10445D01*
X80585Y10453D01*
X80496Y10447D01*
X80372Y10449D01*
X80322Y10435D01*
X80278Y10432D01*
X79500Y10254D01*
X78722Y10432D01*
X78688Y10435D01*
X78654Y10445D01*
X78548Y10446D01*
X78441Y10455D01*
X78407Y10448D01*
X78372Y10449D01*
X78270Y10420D01*
X78165Y10399D01*
X78134Y10383D01*
X78100Y10373D01*
X78010Y10317D01*
X77915Y10268D01*
X77890Y10244D01*
X77860Y10225D01*
X77789Y10146D01*
X77712Y10072D01*
X77695Y10042D01*
X77671Y10016D01*
X77625Y9920D01*
X77572Y9828D01*
X77564Y9794D01*
X77548Y9762D01*
X77535Y9674D01*
X77505Y9553D01*
X77508Y9502D01*
X77501Y9458D01*
X77501Y8746D01*
X76681Y8876D01*
X74878Y9461D01*
X73189Y10322D01*
X71656Y11436D01*
X70316Y12776D01*
X69202Y14309D01*
X68341Y15998D01*
X67756Y17801D01*
X67459Y19672D01*
X67459Y26126D01*
X67484Y26130D01*
X67548Y26129D01*
X67623Y26150D01*
X67699Y26161D01*
X67758Y26187D01*
X67820Y26204D01*
X67886Y26245D01*
X67956Y26277D01*
X68005Y26319D01*
X68060Y26352D01*
X68112Y26410D01*
X68170Y26460D01*
X68206Y26514D01*
X68249Y26562D01*
X68282Y26631D01*
X68325Y26696D01*
X68344Y26758D01*
X68372Y26815D01*
X68383Y26885D01*
X68407Y26966D01*
X68408Y27051D01*
X68419Y27120D01*
X68419Y29120D01*
X68411Y29179D01*
X68411Y29191D01*
X68410Y29193D01*
X68411Y29248D01*
X68390Y29323D01*
X68379Y29399D01*
X68353Y29458D01*
X68336Y29520D01*
X68295Y29586D01*
X68263Y29656D01*
X68221Y29705D01*
X68188Y29760D01*
X68130Y29812D01*
X68080Y29870D01*
X68026Y29906D01*
X67978Y29949D01*
X67909Y29982D01*
X67844Y30025D01*
X67782Y30044D01*
X67725Y30072D01*
X67655Y30082D01*
X67574Y30107D01*
X67489Y30108D01*
X67459Y30113D01*
X67459Y36568D01*
X67512Y36902D01*
X67512Y36903D01*
X67756Y38439D01*
X68341Y40242D01*
X69202Y41931D01*
X70316Y43464D01*
X71656Y44804D01*
X73189Y45918D01*
X74107Y46386D01*
X74146Y46413D01*
X74189Y46433D01*
X74261Y46494D01*
X74338Y46548D01*
X74367Y46585D01*
X74404Y46616D01*
X74455Y46695D01*
X74514Y46768D01*
X74532Y46812D01*
X74558Y46852D01*
X74586Y46942D01*
X74621Y47029D01*
X74627Y47076D01*
X74640Y47122D01*
X74642Y47216D01*
X74652Y47309D01*
X74644Y47356D01*
X74644Y47404D01*
X74619Y47495D01*
X74603Y47587D01*
X74582Y47630D01*
X74569Y47676D01*
X74520Y47756D01*
X74478Y47840D01*
X74446Y47875D01*
X74421Y47916D01*
X74351Y47979D01*
X74288Y48048D01*
X74247Y48073D01*
X74212Y48105D01*
X74127Y48146D01*
X74047Y48194D01*
X74001Y48207D01*
X73958Y48228D01*
X73876Y48240D01*
X73775Y48268D01*
X73709Y48267D01*
X73653Y48275D01*
X31940Y48275D01*
X31845Y48262D01*
X31749Y48257D01*
X31706Y48242D01*
X31660Y48235D01*
X31573Y48196D01*
X31482Y48164D01*
X31448Y48139D01*
X31404Y48119D01*
X31306Y48036D01*
X31233Y47983D01*
X31079Y47829D01*
X31073Y47821D01*
X31066Y47815D01*
X30989Y47708D01*
X30910Y47603D01*
X30906Y47594D01*
X30901Y47586D01*
X30857Y47462D01*
X30810Y47339D01*
X30809Y47330D01*
X30806Y47321D01*
X30799Y47189D01*
X30788Y47058D01*
X30790Y47049D01*
X30790Y47039D01*
X30808Y46964D01*
X30846Y46782D01*
X30857Y46761D01*
X30862Y46739D01*
X32005Y43982D01*
X32005Y39838D01*
X30419Y36010D01*
X27490Y33081D01*
X23662Y31495D01*
X19518Y31495D01*
X15690Y33081D01*
X12761Y36010D01*
X11175Y39838D01*
X11175Y43982D01*
X12761Y47810D01*
X15690Y50739D01*
X19518Y52325D01*
X23662Y52325D01*
X26419Y51182D01*
X26429Y51180D01*
X26437Y51175D01*
X26565Y51145D01*
X26693Y51112D01*
X26702Y51113D01*
X26711Y51110D01*
X26844Y51117D01*
X26975Y51121D01*
X26984Y51124D01*
X26993Y51125D01*
X27118Y51168D01*
X27243Y51209D01*
X27251Y51214D01*
X27260Y51217D01*
X27322Y51263D01*
X27476Y51368D01*
X27491Y51386D01*
X27509Y51399D01*
X27663Y51553D01*
X29434Y53325D01*
X76238Y53325D01*
X76333Y53338D01*
X76429Y53343D01*
X76473Y53358D01*
X76518Y53365D01*
X76605Y53404D01*
X76696Y53436D01*
X76730Y53461D01*
X76774Y53481D01*
X76872Y53564D01*
X76945Y53617D01*
X106106Y82778D01*
X106144Y82830D01*
X106191Y82875D01*
X106229Y82942D01*
X106275Y83004D01*
X106298Y83064D01*
X106330Y83120D01*
X106347Y83195D01*
X106375Y83268D01*
X106380Y83332D01*
X106395Y83395D01*
X106391Y83472D01*
X106397Y83549D01*
X106383Y83612D01*
X106380Y83676D01*
X106355Y83749D01*
X106339Y83825D01*
X106309Y83882D01*
X106288Y83943D01*
X106246Y83999D01*
X106241Y84010D01*
X106233Y84065D01*
X106234Y84129D01*
X106213Y84204D01*
X106202Y84281D01*
X106176Y84339D01*
X106159Y84401D01*
X106118Y84467D01*
X106086Y84538D01*
X106044Y84587D01*
X106010Y84641D01*
X105953Y84693D01*
X105903Y84752D01*
X105849Y84787D01*
X105801Y84830D01*
X105731Y84864D01*
X105667Y84907D01*
X105605Y84925D01*
X105547Y84953D01*
X105478Y84964D01*
X105397Y84989D01*
X105312Y84990D01*
X105254Y84999D01*
X105207Y85034D01*
X105147Y85057D01*
X105091Y85088D01*
X105016Y85106D01*
X104943Y85134D01*
X104879Y85139D01*
X104817Y85153D01*
X104739Y85149D01*
X104662Y85155D01*
X104599Y85142D01*
X104535Y85139D01*
X104462Y85114D01*
X104386Y85098D01*
X104329Y85068D01*
X104269Y85047D01*
X104212Y85005D01*
X104137Y84965D01*
X104076Y84906D01*
X104020Y84865D01*
X85712Y66557D01*
X83940Y64785D01*
X32485Y64785D01*
X32475Y64784D01*
X32466Y64785D01*
X32336Y64764D01*
X32205Y64745D01*
X32197Y64742D01*
X32188Y64740D01*
X32068Y64683D01*
X31949Y64629D01*
X31941Y64623D01*
X31933Y64619D01*
X31834Y64531D01*
X31734Y64446D01*
X31729Y64438D01*
X31722Y64432D01*
X31682Y64366D01*
X31580Y64210D01*
X31573Y64187D01*
X31562Y64168D01*
X30419Y61410D01*
X27490Y58481D01*
X23662Y56895D01*
X19518Y56895D01*
X15690Y58481D01*
X12761Y61410D01*
X11175Y65238D01*
X11175Y69382D01*
X12761Y73210D01*
X15690Y76139D01*
X19518Y77725D01*
X23662Y77725D01*
X27490Y76139D01*
X30419Y73210D01*
X31562Y70452D01*
X31566Y70443D01*
X31569Y70434D01*
X31638Y70322D01*
X31705Y70209D01*
X31712Y70202D01*
X31717Y70194D01*
X31815Y70106D01*
X31911Y70016D01*
X31919Y70012D01*
X31926Y70005D01*
X32045Y69948D01*
X32162Y69888D01*
X32172Y69886D01*
X32180Y69882D01*
X32256Y69870D01*
X32439Y69836D01*
X32463Y69838D01*
X32485Y69835D01*
X81435Y69835D01*
X81529Y69848D01*
X81626Y69853D01*
X81669Y69868D01*
X81714Y69875D01*
X81801Y69914D01*
X81892Y69946D01*
X81927Y69971D01*
X81971Y69991D01*
X82068Y70074D01*
X82141Y70127D01*
X100449Y88435D01*
X100488Y88487D01*
X100534Y88532D01*
X100572Y88599D01*
X100618Y88661D01*
X100641Y88721D01*
X100673Y88777D01*
X100691Y88852D01*
X100718Y88925D01*
X100723Y88989D01*
X100738Y89051D01*
X100734Y89129D01*
X100740Y89206D01*
X100727Y89269D01*
X100723Y89333D01*
X100698Y89406D01*
X100682Y89482D01*
X100652Y89539D01*
X100631Y89600D01*
X100589Y89656D01*
X100584Y89666D01*
X100576Y89722D01*
X100577Y89786D01*
X100556Y89861D01*
X100545Y89938D01*
X100519Y89996D01*
X100502Y90058D01*
X100461Y90124D01*
X100429Y90195D01*
X100387Y90243D01*
X100354Y90298D01*
X100296Y90350D01*
X100246Y90409D01*
X100192Y90444D01*
X100144Y90487D01*
X100075Y90521D01*
X100010Y90563D01*
X99948Y90582D01*
X99890Y90610D01*
X99821Y90621D01*
X99740Y90646D01*
X99655Y90647D01*
X99650Y90648D01*
X94919Y95378D01*
X94919Y95379D01*
X94920Y95443D01*
X94899Y95518D01*
X94888Y95595D01*
X94862Y95653D01*
X94845Y95715D01*
X94804Y95781D01*
X94772Y95851D01*
X94730Y95900D01*
X94697Y95955D01*
X94639Y96007D01*
X94589Y96066D01*
X94535Y96101D01*
X94487Y96144D01*
X94418Y96178D01*
X94353Y96220D01*
X94291Y96239D01*
X94234Y96267D01*
X94164Y96278D01*
X94083Y96303D01*
X93998Y96304D01*
X93993Y96305D01*
X89262Y101035D01*
X89262Y101036D01*
X89263Y101100D01*
X89243Y101175D01*
X89232Y101251D01*
X89205Y101310D01*
X89188Y101372D01*
X89147Y101438D01*
X89115Y101508D01*
X89074Y101557D01*
X89040Y101612D01*
X88982Y101664D01*
X88932Y101723D01*
X88878Y101758D01*
X88831Y101801D01*
X88761Y101835D01*
X88696Y101877D01*
X88635Y101896D01*
X88577Y101924D01*
X88507Y101935D01*
X88426Y101959D01*
X88342Y101961D01*
X88336Y101961D01*
X83606Y106692D01*
X83605Y106693D01*
X83606Y106757D01*
X83586Y106832D01*
X83575Y106908D01*
X83548Y106967D01*
X83531Y107029D01*
X83490Y107095D01*
X83459Y107165D01*
X83417Y107214D01*
X83383Y107269D01*
X83325Y107321D01*
X83275Y107379D01*
X83221Y107415D01*
X83174Y107458D01*
X83104Y107491D01*
X83039Y107534D01*
X82978Y107553D01*
X82920Y107581D01*
X82850Y107592D01*
X82769Y107616D01*
X82685Y107617D01*
X82679Y107618D01*
X77949Y112349D01*
X77949Y112414D01*
X77929Y112488D01*
X77918Y112565D01*
X77891Y112624D01*
X77874Y112686D01*
X77834Y112752D01*
X77802Y112822D01*
X77760Y112871D01*
X77726Y112926D01*
X77669Y112977D01*
X77618Y113036D01*
X77564Y113072D01*
X77517Y113115D01*
X77447Y113148D01*
X77382Y113191D01*
X77321Y113210D01*
X77263Y113238D01*
X77194Y113248D01*
X77113Y113273D01*
X77028Y113274D01*
X77022Y113275D01*
X72292Y118006D01*
X72293Y118071D01*
X72272Y118145D01*
X72261Y118222D01*
X72235Y118280D01*
X72217Y118342D01*
X72177Y118408D01*
X72145Y118479D01*
X72103Y118528D01*
X72069Y118582D01*
X72012Y118634D01*
X71961Y118693D01*
X71908Y118728D01*
X71860Y118771D01*
X71790Y118805D01*
X71725Y118848D01*
X71664Y118866D01*
X71606Y118894D01*
X71537Y118905D01*
X71456Y118930D01*
X71371Y118931D01*
X71365Y118932D01*
X66644Y123653D01*
X66644Y124917D01*
X68488Y126760D01*
X68526Y126812D01*
X68572Y126857D01*
X68611Y126924D01*
X68657Y126986D01*
X68680Y127046D01*
X68711Y127102D01*
X68729Y127177D01*
X68757Y127250D01*
X68762Y127314D01*
X68776Y127377D01*
X68772Y127454D01*
X68778Y127531D01*
X68765Y127594D01*
X68762Y127658D01*
X68737Y127731D01*
X68721Y127807D01*
X68691Y127864D01*
X68670Y127925D01*
X68628Y127981D01*
X68588Y128056D01*
X68529Y128117D01*
X68488Y128174D01*
X68049Y128613D01*
X67972Y128670D01*
X67901Y128735D01*
X67860Y128755D01*
X67823Y128782D01*
X67733Y128816D01*
X67647Y128858D01*
X67605Y128864D01*
X67559Y128881D01*
X67432Y128891D01*
X67342Y128905D01*
X60925Y128905D01*
X60831Y128892D01*
X60734Y128887D01*
X60691Y128872D01*
X60646Y128865D01*
X60559Y128826D01*
X60468Y128794D01*
X60433Y128769D01*
X60389Y128749D01*
X60292Y128666D01*
X60219Y128613D01*
X60012Y128405D01*
X51748Y128405D01*
X51541Y128613D01*
X51464Y128670D01*
X51393Y128735D01*
X51352Y128755D01*
X51316Y128782D01*
X51225Y128816D01*
X51139Y128858D01*
X51097Y128864D01*
X51052Y128881D01*
X50924Y128891D01*
X50835Y128905D01*
X49495Y128905D01*
X49401Y128892D01*
X49304Y128887D01*
X49261Y128872D01*
X49216Y128865D01*
X49129Y128826D01*
X49038Y128794D01*
X49003Y128769D01*
X48959Y128749D01*
X48862Y128666D01*
X48789Y128613D01*
X48582Y128405D01*
X40318Y128405D01*
X39425Y129298D01*
X39425Y135144D01*
X39416Y135208D01*
X39417Y135272D01*
X39396Y135347D01*
X39385Y135423D01*
X39359Y135482D01*
X39342Y135544D01*
X39301Y135610D01*
X39269Y135680D01*
X39227Y135729D01*
X39194Y135784D01*
X39136Y135836D01*
X39086Y135894D01*
X39032Y135930D01*
X38984Y135973D01*
X38915Y136006D01*
X38850Y136049D01*
X38788Y136068D01*
X38731Y136096D01*
X38661Y136107D01*
X38580Y136131D01*
X38495Y136132D01*
X38426Y136143D01*
X36921Y136143D01*
X36826Y136130D01*
X36730Y136125D01*
X36687Y136110D01*
X36642Y136103D01*
X36554Y136064D01*
X36464Y136032D01*
X36429Y136007D01*
X36385Y135987D01*
X36288Y135904D01*
X36215Y135851D01*
X24169Y123805D01*
X24112Y123729D01*
X24047Y123657D01*
X24027Y123616D01*
X24000Y123580D01*
X23966Y123490D01*
X23924Y123403D01*
X23918Y123361D01*
X23901Y123316D01*
X23891Y123188D01*
X23877Y123099D01*
X23877Y103703D01*
X23878Y103694D01*
X23877Y103685D01*
X23898Y103555D01*
X23917Y103424D01*
X23920Y103415D01*
X23922Y103406D01*
X23979Y103287D01*
X24033Y103167D01*
X24039Y103160D01*
X24043Y103151D01*
X24131Y103053D01*
X24216Y102953D01*
X24224Y102948D01*
X24230Y102941D01*
X24296Y102901D01*
X24452Y102798D01*
X24475Y102791D01*
X24494Y102780D01*
X27490Y101539D01*
X30419Y98610D01*
X32005Y94782D01*
X32005Y90638D01*
X30419Y86810D01*
X27490Y83881D01*
X23662Y82295D01*
X19518Y82295D01*
X15690Y83881D01*
X12761Y86810D01*
X11175Y90638D01*
X11175Y94782D01*
X12761Y98610D01*
X15690Y101539D01*
X18686Y102780D01*
X18695Y102785D01*
X18704Y102787D01*
X18816Y102857D01*
X18929Y102924D01*
X18936Y102931D01*
X18944Y102936D01*
X19032Y103034D01*
X19122Y103129D01*
X19126Y103138D01*
X19133Y103145D01*
X19190Y103262D01*
X19250Y103381D01*
X19252Y103390D01*
X19256Y103399D01*
X19268Y103475D01*
X19302Y103658D01*
X19300Y103682D01*
X19303Y103703D01*
X19303Y125407D01*
X34613Y140717D01*
X37410Y140717D01*
X37474Y140726D01*
X37538Y140725D01*
X37613Y140746D01*
X37689Y140757D01*
X37748Y140783D01*
X37810Y140800D01*
X37876Y140841D01*
X37946Y140873D01*
X37995Y140915D01*
X38050Y140948D01*
X38102Y141006D01*
X38160Y141056D01*
X38196Y141110D01*
X38239Y141158D01*
X38272Y141227D01*
X38315Y141292D01*
X38334Y141354D01*
X38362Y141411D01*
X38373Y141481D01*
X38397Y141562D01*
X38398Y141647D01*
X38409Y141716D01*
X38409Y142431D01*
X43950Y142431D01*
X44013Y142440D01*
X44078Y142439D01*
X44152Y142460D01*
X44229Y142471D01*
X44287Y142497D01*
X44349Y142514D01*
X44415Y142555D01*
X44453Y142572D01*
X44461Y142568D01*
X44526Y142525D01*
X44588Y142506D01*
X44646Y142478D01*
X44715Y142467D01*
X44796Y142443D01*
X44881Y142442D01*
X44950Y142431D01*
X55380Y142431D01*
X55443Y142440D01*
X55508Y142439D01*
X55582Y142460D01*
X55659Y142471D01*
X55717Y142497D01*
X55779Y142514D01*
X55845Y142555D01*
X55883Y142572D01*
X55891Y142568D01*
X55956Y142525D01*
X56018Y142506D01*
X56076Y142478D01*
X56145Y142467D01*
X56226Y142443D01*
X56311Y142442D01*
X56380Y142431D01*
X61921Y142431D01*
X61921Y141716D01*
X61930Y141652D01*
X61929Y141588D01*
X61950Y141513D01*
X61961Y141437D01*
X61987Y141378D01*
X62004Y141316D01*
X62045Y141250D01*
X62077Y141180D01*
X62119Y141131D01*
X62152Y141076D01*
X62210Y141024D01*
X62260Y140966D01*
X62314Y140930D01*
X62362Y140887D01*
X62431Y140854D01*
X62496Y140811D01*
X62558Y140792D01*
X62615Y140764D01*
X62685Y140753D01*
X62766Y140729D01*
X62851Y140728D01*
X62920Y140717D01*
X77451Y140717D01*
X77462Y140718D01*
X77472Y140717D01*
X77602Y140738D01*
X77730Y140757D01*
X77740Y140761D01*
X77751Y140763D01*
X77868Y140819D01*
X77987Y140873D01*
X77995Y140880D01*
X78005Y140884D01*
X78067Y140940D01*
X78109Y140899D01*
X78119Y140895D01*
X78127Y140887D01*
X78244Y140831D01*
X78360Y140771D01*
X78371Y140769D01*
X78381Y140764D01*
X78460Y140752D01*
X78637Y140718D01*
X78661Y140720D01*
X78685Y140717D01*
X130026Y140717D01*
X130121Y140730D01*
X130217Y140735D01*
X130260Y140750D01*
X130305Y140757D01*
X130392Y140796D01*
X130483Y140828D01*
X130518Y140853D01*
X130562Y140873D01*
X130659Y140956D01*
X130732Y141009D01*
X136392Y146669D01*
X136412Y146695D01*
X136436Y146716D01*
X136496Y146808D01*
X136562Y146895D01*
X136573Y146925D01*
X136591Y146952D01*
X136623Y147057D01*
X136661Y147159D01*
X136664Y147191D01*
X136673Y147222D01*
X136675Y147331D01*
X136683Y147440D01*
X136676Y147472D01*
X136677Y147504D01*
X136648Y147609D01*
X136625Y147716D01*
X136610Y147745D01*
X136602Y147776D01*
X136544Y147869D01*
X136493Y147965D01*
X136470Y147988D01*
X136454Y148016D01*
X136372Y148089D01*
X136296Y148167D01*
X136268Y148183D01*
X136244Y148205D01*
X136146Y148252D01*
X136051Y148306D01*
X136019Y148314D01*
X135990Y148328D01*
X135901Y148342D01*
X135776Y148371D01*
X135728Y148369D01*
X135686Y148375D01*
X117829Y148375D01*
X117734Y148362D01*
X117638Y148357D01*
X117595Y148342D01*
X117550Y148335D01*
X117462Y148296D01*
X117372Y148264D01*
X117337Y148239D01*
X117293Y148219D01*
X117196Y148136D01*
X117123Y148083D01*
X116391Y147351D01*
X112209Y147351D01*
X109251Y150309D01*
X109251Y154491D01*
X112209Y157449D01*
X116391Y157449D01*
X117123Y156717D01*
X117199Y156660D01*
X117271Y156595D01*
X117312Y156575D01*
X117348Y156548D01*
X117438Y156514D01*
X117525Y156472D01*
X117567Y156466D01*
X117612Y156449D01*
X117740Y156439D01*
X117829Y156425D01*
X131962Y156425D01*
X132057Y156438D01*
X132153Y156443D01*
X132196Y156458D01*
X132241Y156465D01*
X132329Y156504D01*
X132420Y156536D01*
X132454Y156561D01*
X132498Y156581D01*
X132596Y156664D01*
X132669Y156717D01*
X146765Y170813D01*
X146803Y170865D01*
X146849Y170909D01*
X146887Y170977D01*
X146934Y171039D01*
X146957Y171099D01*
X146988Y171155D01*
X147006Y171230D01*
X147033Y171303D01*
X147038Y171367D01*
X147053Y171429D01*
X147049Y171507D01*
X147055Y171584D01*
X147042Y171647D01*
X147039Y171711D01*
X147013Y171784D01*
X146998Y171860D01*
X146967Y171917D01*
X146946Y171977D01*
X146905Y172034D01*
X146865Y172109D01*
X146806Y172170D01*
X146765Y172226D01*
X142366Y176625D01*
X142366Y176626D01*
X142367Y176690D01*
X142346Y176764D01*
X142335Y176841D01*
X142309Y176900D01*
X142292Y176962D01*
X142251Y177028D01*
X142219Y177098D01*
X142177Y177147D01*
X142144Y177202D01*
X142086Y177253D01*
X142036Y177312D01*
X141982Y177348D01*
X141934Y177391D01*
X141865Y177424D01*
X141800Y177467D01*
X141738Y177486D01*
X141680Y177514D01*
X141611Y177524D01*
X141530Y177549D01*
X141445Y177550D01*
X141440Y177551D01*
X136709Y182282D01*
X136710Y182347D01*
X136689Y182421D01*
X136678Y182498D01*
X136652Y182556D01*
X136635Y182618D01*
X136594Y182684D01*
X136562Y182755D01*
X136520Y182804D01*
X136487Y182858D01*
X136429Y182910D01*
X136379Y182969D01*
X136325Y183004D01*
X136277Y183047D01*
X136208Y183081D01*
X136143Y183124D01*
X136081Y183142D01*
X136024Y183170D01*
X135954Y183181D01*
X135873Y183206D01*
X135788Y183207D01*
X135783Y183208D01*
X132501Y186490D01*
X132475Y186510D01*
X132454Y186534D01*
X132362Y186594D01*
X132275Y186660D01*
X132245Y186671D01*
X132218Y186689D01*
X132113Y186721D01*
X132011Y186759D01*
X131979Y186762D01*
X131948Y186771D01*
X131839Y186773D01*
X131730Y186781D01*
X131698Y186774D01*
X131666Y186775D01*
X131561Y186746D01*
X131454Y186723D01*
X131425Y186708D01*
X131394Y186700D01*
X131301Y186642D01*
X131205Y186591D01*
X131182Y186568D01*
X131154Y186552D01*
X131081Y186470D01*
X131003Y186394D01*
X130987Y186366D01*
X130965Y186342D01*
X130918Y186244D01*
X130864Y186149D01*
X130856Y186117D01*
X130842Y186088D01*
X130828Y185999D01*
X130799Y185874D01*
X130801Y185826D01*
X130795Y185784D01*
X130795Y185644D01*
X110266Y165115D01*
X103094Y165115D01*
X102184Y166025D01*
X102107Y166083D01*
X102036Y166148D01*
X101995Y166167D01*
X101958Y166195D01*
X101868Y166229D01*
X101782Y166271D01*
X101740Y166277D01*
X101695Y166294D01*
X101567Y166304D01*
X101477Y166318D01*
X101381Y166318D01*
X101317Y166309D01*
X101253Y166310D01*
X101178Y166289D01*
X101102Y166278D01*
X101043Y166252D01*
X100981Y166235D01*
X100915Y166194D01*
X100845Y166162D01*
X100796Y166120D01*
X100741Y166087D01*
X100689Y166029D01*
X100631Y165979D01*
X100595Y165925D01*
X100552Y165877D01*
X100519Y165808D01*
X100476Y165743D01*
X100457Y165681D01*
X100429Y165623D01*
X100419Y165554D01*
X100394Y165473D01*
X100393Y165388D01*
X100392Y165383D01*
X95661Y160652D01*
X95596Y160653D01*
X95522Y160632D01*
X95445Y160621D01*
X95387Y160595D01*
X95325Y160578D01*
X95259Y160537D01*
X95188Y160505D01*
X95139Y160463D01*
X95085Y160430D01*
X95033Y160372D01*
X94974Y160322D01*
X94939Y160268D01*
X94896Y160220D01*
X94862Y160151D01*
X94819Y160086D01*
X94801Y160024D01*
X94773Y159967D01*
X94762Y159897D01*
X94737Y159816D01*
X94736Y159731D01*
X94735Y159726D01*
X90005Y154995D01*
X90004Y154995D01*
X89940Y154996D01*
X89865Y154976D01*
X89788Y154965D01*
X89730Y154938D01*
X89668Y154921D01*
X89602Y154880D01*
X89531Y154848D01*
X89482Y154807D01*
X89428Y154773D01*
X89376Y154715D01*
X89317Y154665D01*
X89282Y154611D01*
X89239Y154564D01*
X89205Y154494D01*
X89162Y154429D01*
X89144Y154368D01*
X89116Y154310D01*
X89105Y154240D01*
X89080Y154159D01*
X89079Y154075D01*
X89078Y154069D01*
X84720Y149711D01*
X84662Y149634D01*
X84598Y149563D01*
X84578Y149522D01*
X84551Y149485D01*
X84517Y149395D01*
X84475Y149309D01*
X84468Y149267D01*
X84451Y149221D01*
X84445Y149147D01*
X84439Y149127D01*
X84439Y149077D01*
X84427Y149004D01*
X84427Y148699D01*
X84254Y148053D01*
X83920Y147474D01*
X82728Y146282D01*
X76229Y152781D01*
X76178Y152819D01*
X76133Y152865D01*
X76066Y152904D01*
X76004Y152950D01*
X75944Y152973D01*
X75932Y152979D01*
X75916Y153027D01*
X75874Y153084D01*
X75835Y153159D01*
X75775Y153219D01*
X75734Y153276D01*
X69235Y159775D01*
X70427Y160966D01*
X71006Y161301D01*
X71336Y161389D01*
X71376Y161406D01*
X71418Y161415D01*
X71505Y161461D01*
X71596Y161500D01*
X71629Y161527D01*
X71667Y161547D01*
X71737Y161616D01*
X71814Y161679D01*
X71838Y161714D01*
X71869Y161744D01*
X71917Y161830D01*
X71973Y161911D01*
X71987Y161952D01*
X72008Y161989D01*
X72031Y162085D01*
X72061Y162179D01*
X72063Y162222D01*
X72073Y162264D01*
X72068Y162363D01*
X72071Y162461D01*
X72061Y162503D01*
X72058Y162546D01*
X72026Y162639D01*
X72002Y162734D01*
X71980Y162771D01*
X71966Y162812D01*
X71916Y162881D01*
X71859Y162978D01*
X71815Y163019D01*
X71784Y163061D01*
X64093Y170753D01*
X64016Y170810D01*
X63944Y170875D01*
X63903Y170895D01*
X63867Y170922D01*
X63777Y170956D01*
X63691Y170998D01*
X63649Y171004D01*
X63603Y171021D01*
X63476Y171031D01*
X63386Y171045D01*
X49204Y171045D01*
X49140Y171036D01*
X49076Y171037D01*
X49001Y171016D01*
X48925Y171005D01*
X48866Y170979D01*
X48804Y170962D01*
X48738Y170921D01*
X48668Y170889D01*
X48619Y170847D01*
X48564Y170814D01*
X48512Y170756D01*
X48454Y170706D01*
X48418Y170652D01*
X48375Y170604D01*
X48342Y170535D01*
X48299Y170470D01*
X48280Y170408D01*
X48252Y170351D01*
X48241Y170281D01*
X48217Y170200D01*
X48216Y170115D01*
X48205Y170046D01*
X48205Y169938D01*
X47312Y169045D01*
X39048Y169045D01*
X38155Y169938D01*
X38155Y177202D01*
X39317Y178363D01*
X39356Y178415D01*
X39402Y178460D01*
X39440Y178527D01*
X39486Y178589D01*
X39509Y178649D01*
X39541Y178705D01*
X39559Y178780D01*
X39586Y178853D01*
X39591Y178917D01*
X39606Y178980D01*
X39602Y179057D01*
X39608Y179134D01*
X39595Y179197D01*
X39591Y179261D01*
X39566Y179334D01*
X39550Y179410D01*
X39520Y179467D01*
X39499Y179528D01*
X39457Y179584D01*
X39418Y179659D01*
X39359Y179720D01*
X39317Y179777D01*
X38155Y180938D01*
X38155Y184296D01*
X38146Y184360D01*
X38147Y184424D01*
X38126Y184499D01*
X38115Y184575D01*
X38089Y184634D01*
X38072Y184696D01*
X38031Y184762D01*
X37999Y184832D01*
X37957Y184881D01*
X37924Y184936D01*
X37866Y184988D01*
X37816Y185046D01*
X37762Y185082D01*
X37714Y185125D01*
X37645Y185158D01*
X37580Y185201D01*
X37518Y185220D01*
X37461Y185248D01*
X37391Y185259D01*
X37310Y185283D01*
X37225Y185284D01*
X37156Y185295D01*
X35864Y185295D01*
X35800Y185286D01*
X35736Y185287D01*
X35661Y185266D01*
X35585Y185255D01*
X35526Y185229D01*
X35464Y185212D01*
X35398Y185171D01*
X35328Y185139D01*
X35279Y185097D01*
X35224Y185064D01*
X35172Y185006D01*
X35114Y184956D01*
X35078Y184902D01*
X35035Y184854D01*
X35002Y184785D01*
X34959Y184720D01*
X34940Y184658D01*
X34912Y184601D01*
X34901Y184531D01*
X34877Y184450D01*
X34876Y184365D01*
X34865Y184296D01*
X34865Y181938D01*
X33972Y181045D01*
X21908Y181045D01*
X21015Y181938D01*
X21015Y193702D01*
X21908Y194595D01*
X33972Y194595D01*
X34865Y193702D01*
X34865Y191344D01*
X34874Y191280D01*
X34873Y191216D01*
X34894Y191141D01*
X34905Y191065D01*
X34931Y191006D01*
X34948Y190944D01*
X34989Y190878D01*
X35021Y190808D01*
X35063Y190759D01*
X35096Y190704D01*
X35154Y190652D01*
X35204Y190594D01*
X35258Y190558D01*
X35306Y190515D01*
X35375Y190482D01*
X35440Y190439D01*
X35502Y190420D01*
X35559Y190392D01*
X35629Y190381D01*
X35710Y190357D01*
X35795Y190356D01*
X35864Y190345D01*
X40976Y190345D01*
X41933Y189387D01*
X42010Y189330D01*
X42081Y189265D01*
X42122Y189245D01*
X42159Y189218D01*
X42249Y189184D01*
X42335Y189142D01*
X42377Y189136D01*
X42423Y189119D01*
X42550Y189109D01*
X42640Y189095D01*
X47312Y189095D01*
X48205Y188202D01*
X48205Y180938D01*
X47043Y179777D01*
X47004Y179725D01*
X46958Y179680D01*
X46920Y179613D01*
X46874Y179551D01*
X46851Y179491D01*
X46819Y179435D01*
X46801Y179360D01*
X46774Y179287D01*
X46769Y179223D01*
X46754Y179161D01*
X46758Y179083D01*
X46752Y179006D01*
X46765Y178943D01*
X46769Y178879D01*
X46794Y178806D01*
X46810Y178730D01*
X46840Y178673D01*
X46861Y178612D01*
X46902Y178556D01*
X46942Y178481D01*
X47002Y178420D01*
X47043Y178363D01*
X48205Y177202D01*
X48205Y177094D01*
X48214Y177030D01*
X48213Y176966D01*
X48234Y176891D01*
X48245Y176815D01*
X48271Y176756D01*
X48288Y176694D01*
X48329Y176628D01*
X48361Y176558D01*
X48403Y176509D01*
X48436Y176454D01*
X48494Y176402D01*
X48544Y176344D01*
X48598Y176308D01*
X48646Y176265D01*
X48715Y176232D01*
X48780Y176189D01*
X48842Y176170D01*
X48899Y176142D01*
X48969Y176131D01*
X49050Y176107D01*
X49135Y176106D01*
X49204Y176095D01*
X65892Y176095D01*
X67663Y174323D01*
X75735Y166251D01*
X75787Y166212D01*
X75832Y166166D01*
X75860Y166150D01*
X75882Y166131D01*
X75921Y166112D01*
X75961Y166082D01*
X76021Y166059D01*
X76077Y166027D01*
X76112Y166019D01*
X76136Y166008D01*
X76173Y166002D01*
X76225Y165982D01*
X76289Y165977D01*
X76351Y165962D01*
X76407Y165965D01*
X76440Y165960D01*
X76444Y165960D01*
X76467Y165963D01*
X76506Y165960D01*
X76569Y165973D01*
X76633Y165977D01*
X76683Y165994D01*
X76723Y166000D01*
X76747Y166011D01*
X76782Y166018D01*
X76839Y166048D01*
X76900Y166069D01*
X76937Y166097D01*
X76980Y166116D01*
X76982Y166118D01*
X77022Y166124D01*
X77086Y166123D01*
X77161Y166144D01*
X77238Y166155D01*
X77296Y166181D01*
X77358Y166198D01*
X77424Y166239D01*
X77495Y166271D01*
X77543Y166313D01*
X77598Y166346D01*
X77650Y166404D01*
X77709Y166454D01*
X77744Y166508D01*
X77787Y166556D01*
X77821Y166625D01*
X77863Y166690D01*
X77882Y166752D01*
X77910Y166810D01*
X77921Y166879D01*
X77946Y166960D01*
X77947Y167045D01*
X77948Y167050D01*
X82678Y171781D01*
X82679Y171781D01*
X82743Y171780D01*
X82818Y171801D01*
X82895Y171812D01*
X82953Y171838D01*
X83015Y171855D01*
X83081Y171896D01*
X83151Y171928D01*
X83200Y171969D01*
X83255Y172003D01*
X83307Y172061D01*
X83366Y172111D01*
X83401Y172165D01*
X83444Y172213D01*
X83478Y172282D01*
X83520Y172347D01*
X83539Y172409D01*
X83567Y172466D01*
X83578Y172536D01*
X83603Y172617D01*
X83604Y172702D01*
X83613Y172760D01*
X83648Y172806D01*
X83670Y172867D01*
X83702Y172923D01*
X83720Y172998D01*
X83747Y173070D01*
X83752Y173134D01*
X83767Y173197D01*
X83763Y173275D01*
X83769Y173351D01*
X83756Y173414D01*
X83753Y173479D01*
X83727Y173552D01*
X83712Y173628D01*
X83681Y173684D01*
X83660Y173745D01*
X83619Y173802D01*
X83579Y173877D01*
X83520Y173937D01*
X83478Y173994D01*
X58435Y199037D01*
X58435Y231186D01*
X58426Y231250D01*
X58427Y231314D01*
X58406Y231389D01*
X58395Y231465D01*
X58369Y231524D01*
X58352Y231586D01*
X58311Y231652D01*
X58279Y231722D01*
X58237Y231771D01*
X58204Y231826D01*
X58146Y231878D01*
X58096Y231936D01*
X58042Y231972D01*
X57994Y232015D01*
X57925Y232048D01*
X57860Y232091D01*
X57798Y232110D01*
X57741Y232138D01*
X57671Y232149D01*
X57590Y232173D01*
X57505Y232174D01*
X57436Y232185D01*
X48968Y232185D01*
X48075Y233078D01*
X48075Y236228D01*
X48062Y236323D01*
X48057Y236419D01*
X48042Y236462D01*
X48035Y236507D01*
X47996Y236594D01*
X47964Y236685D01*
X47939Y236720D01*
X47919Y236764D01*
X47836Y236861D01*
X47783Y236934D01*
X47567Y237150D01*
X47232Y237729D01*
X47059Y238375D01*
X47059Y239111D01*
X55900Y239111D01*
X55963Y239120D01*
X56028Y239119D01*
X56102Y239139D01*
X56179Y239150D01*
X56237Y239177D01*
X56299Y239194D01*
X56365Y239235D01*
X56436Y239267D01*
X56485Y239308D01*
X56539Y239342D01*
X56591Y239400D01*
X56650Y239450D01*
X56685Y239504D01*
X56728Y239551D01*
X56762Y239621D01*
X56805Y239686D01*
X56823Y239747D01*
X56851Y239805D01*
X56862Y239875D01*
X56887Y239956D01*
X56888Y240040D01*
X56899Y240110D01*
X56890Y240174D01*
X56891Y240238D01*
X56870Y240313D01*
X56859Y240389D01*
X56833Y240448D01*
X56816Y240510D01*
X56775Y240576D01*
X56743Y240646D01*
X56701Y240695D01*
X56667Y240750D01*
X56610Y240802D01*
X56559Y240861D01*
X56506Y240896D01*
X56458Y240939D01*
X56388Y240973D01*
X56324Y241015D01*
X56262Y241034D01*
X56204Y241062D01*
X56135Y241073D01*
X56054Y241097D01*
X55969Y241099D01*
X55900Y241109D01*
X47059Y241109D01*
X47059Y241236D01*
X47050Y241300D01*
X47051Y241364D01*
X47030Y241439D01*
X47019Y241515D01*
X46993Y241574D01*
X46976Y241636D01*
X46935Y241702D01*
X46903Y241772D01*
X46861Y241821D01*
X46828Y241876D01*
X46770Y241928D01*
X46720Y241986D01*
X46666Y242022D01*
X46618Y242065D01*
X46549Y242098D01*
X46484Y242141D01*
X46422Y242160D01*
X46365Y242188D01*
X46295Y242199D01*
X46214Y242223D01*
X46129Y242224D01*
X46060Y242235D01*
X41504Y242235D01*
X41440Y242226D01*
X41376Y242227D01*
X41301Y242206D01*
X41225Y242195D01*
X41166Y242169D01*
X41104Y242152D01*
X41038Y242111D01*
X40968Y242079D01*
X40919Y242037D01*
X40864Y242004D01*
X40812Y241946D01*
X40754Y241896D01*
X40718Y241842D01*
X40675Y241794D01*
X40642Y241725D01*
X40599Y241660D01*
X40580Y241598D01*
X40552Y241541D01*
X40541Y241471D01*
X40517Y241390D01*
X40516Y241305D01*
X40505Y241236D01*
X40505Y237168D01*
X39877Y236541D01*
X39820Y236464D01*
X39755Y236393D01*
X39735Y236352D01*
X39708Y236316D01*
X39674Y236225D01*
X39632Y236139D01*
X39626Y236097D01*
X39609Y236052D01*
X39599Y235924D01*
X39585Y235835D01*
X39585Y234316D01*
X39598Y234221D01*
X39603Y234124D01*
X39618Y234081D01*
X39625Y234036D01*
X39664Y233949D01*
X39696Y233858D01*
X39721Y233824D01*
X39741Y233779D01*
X39824Y233682D01*
X39877Y233609D01*
X40359Y233128D01*
X40359Y229152D01*
X37548Y226341D01*
X33572Y226341D01*
X30761Y229152D01*
X30761Y233128D01*
X31243Y233609D01*
X31300Y233686D01*
X31365Y233757D01*
X31385Y233798D01*
X31412Y233835D01*
X31446Y233925D01*
X31488Y234011D01*
X31494Y234053D01*
X31511Y234098D01*
X31521Y234226D01*
X31535Y234316D01*
X31535Y235350D01*
X31531Y235382D01*
X31533Y235414D01*
X31511Y235521D01*
X31495Y235629D01*
X31482Y235658D01*
X31476Y235690D01*
X31424Y235787D01*
X31379Y235886D01*
X31358Y235910D01*
X31343Y235939D01*
X31267Y236017D01*
X31196Y236100D01*
X31169Y236118D01*
X31146Y236141D01*
X31051Y236195D01*
X30960Y236255D01*
X30929Y236264D01*
X30901Y236280D01*
X30795Y236305D01*
X30690Y236337D01*
X30658Y236337D01*
X30626Y236345D01*
X30517Y236339D01*
X30408Y236341D01*
X30377Y236332D01*
X30345Y236331D01*
X30242Y236295D01*
X30136Y236266D01*
X30109Y236249D01*
X30078Y236238D01*
X30005Y236185D01*
X29896Y236117D01*
X29864Y236081D01*
X29829Y236056D01*
X29540Y235767D01*
X28961Y235432D01*
X28315Y235259D01*
X26479Y235259D01*
X26479Y240800D01*
X26470Y240863D01*
X26471Y240928D01*
X26450Y241002D01*
X26439Y241079D01*
X26413Y241137D01*
X26396Y241199D01*
X26355Y241265D01*
X26338Y241303D01*
X26342Y241311D01*
X26385Y241376D01*
X26404Y241438D01*
X26432Y241496D01*
X26443Y241565D01*
X26467Y241646D01*
X26468Y241731D01*
X26479Y241800D01*
X26479Y252230D01*
X26470Y252293D01*
X26471Y252358D01*
X26450Y252432D01*
X26439Y252509D01*
X26413Y252567D01*
X26396Y252629D01*
X26355Y252695D01*
X26338Y252733D01*
X26342Y252741D01*
X26385Y252806D01*
X26404Y252868D01*
X26432Y252926D01*
X26443Y252995D01*
X26467Y253076D01*
X26468Y253161D01*
X26479Y253230D01*
X26479Y258771D01*
X28315Y258771D01*
X28961Y258598D01*
X29540Y258263D01*
X30013Y257790D01*
X30230Y257415D01*
X30263Y257373D01*
X30288Y257325D01*
X30349Y257262D01*
X30404Y257193D01*
X30447Y257162D01*
X30485Y257123D01*
X30561Y257080D01*
X30633Y257029D01*
X30683Y257011D01*
X30730Y256984D01*
X30816Y256964D01*
X30899Y256935D01*
X30952Y256932D01*
X31005Y256919D01*
X31093Y256924D01*
X31180Y256919D01*
X31232Y256931D01*
X31286Y256934D01*
X31370Y256963D01*
X31455Y256982D01*
X31502Y257009D01*
X31553Y257026D01*
X31616Y257072D01*
X31701Y257120D01*
X31752Y257172D01*
X31802Y257208D01*
X32348Y257755D01*
X39612Y257755D01*
X40505Y256862D01*
X40505Y256254D01*
X40514Y256190D01*
X40513Y256126D01*
X40534Y256051D01*
X40545Y255975D01*
X40571Y255916D01*
X40588Y255854D01*
X40629Y255788D01*
X40661Y255718D01*
X40703Y255669D01*
X40736Y255614D01*
X40794Y255562D01*
X40844Y255504D01*
X40898Y255468D01*
X40946Y255425D01*
X41015Y255392D01*
X41080Y255349D01*
X41142Y255330D01*
X41199Y255302D01*
X41269Y255291D01*
X41350Y255267D01*
X41435Y255266D01*
X41504Y255255D01*
X44226Y255255D01*
X45353Y254127D01*
X45379Y254108D01*
X45400Y254083D01*
X45492Y254023D01*
X45579Y253958D01*
X45609Y253946D01*
X45636Y253929D01*
X45741Y253897D01*
X45843Y253858D01*
X45875Y253856D01*
X45906Y253846D01*
X46015Y253845D01*
X46124Y253836D01*
X46156Y253843D01*
X46188Y253843D01*
X46293Y253872D01*
X46400Y253894D01*
X46429Y253909D01*
X46460Y253918D01*
X46553Y253975D01*
X46649Y254027D01*
X46672Y254049D01*
X46700Y254066D01*
X46740Y254111D01*
X55900Y254111D01*
X55963Y254120D01*
X56028Y254119D01*
X56102Y254139D01*
X56179Y254150D01*
X56237Y254177D01*
X56299Y254194D01*
X56365Y254235D01*
X56436Y254267D01*
X56485Y254308D01*
X56539Y254342D01*
X56591Y254400D01*
X56650Y254450D01*
X56685Y254504D01*
X56728Y254551D01*
X56762Y254621D01*
X56805Y254686D01*
X56823Y254747D01*
X56851Y254805D01*
X56862Y254875D01*
X56887Y254956D01*
X56888Y255040D01*
X56899Y255110D01*
X56890Y255174D01*
X56890Y255188D01*
X56891Y255238D01*
X56870Y255313D01*
X56859Y255389D01*
X56833Y255448D01*
X56816Y255510D01*
X56775Y255576D01*
X56743Y255646D01*
X56701Y255695D01*
X56667Y255750D01*
X56610Y255802D01*
X56559Y255861D01*
X56506Y255896D01*
X56458Y255939D01*
X56388Y255973D01*
X56324Y256015D01*
X56262Y256034D01*
X56204Y256062D01*
X56135Y256073D01*
X56054Y256097D01*
X55969Y256099D01*
X55900Y256109D01*
X47059Y256109D01*
X47059Y256845D01*
X47232Y257491D01*
X47567Y258070D01*
X48040Y258543D01*
X48619Y258878D01*
X49265Y259051D01*
X50520Y259051D01*
X50552Y259055D01*
X50585Y259053D01*
X50691Y259075D01*
X50800Y259091D01*
X50829Y259104D01*
X50861Y259110D01*
X50957Y259162D01*
X51057Y259207D01*
X51081Y259228D01*
X51110Y259243D01*
X51188Y259319D01*
X51271Y259390D01*
X51289Y259417D01*
X51312Y259440D01*
X51365Y259535D01*
X51425Y259626D01*
X51435Y259657D01*
X51451Y259685D01*
X51476Y259791D01*
X51508Y259896D01*
X51508Y259928D01*
X51516Y259959D01*
X51510Y260069D01*
X51511Y260178D01*
X51503Y260209D01*
X51501Y260241D01*
X51465Y260344D01*
X51436Y260450D01*
X51419Y260477D01*
X51409Y260508D01*
X51355Y260581D01*
X51288Y260690D01*
X51252Y260722D01*
X51227Y260757D01*
X49811Y262172D01*
X49811Y262853D01*
X49798Y262948D01*
X49793Y263044D01*
X49778Y263087D01*
X49771Y263132D01*
X49735Y263212D01*
X49735Y268895D01*
X49732Y268916D01*
X49734Y268937D01*
X49727Y268979D01*
X49727Y269011D01*
X49710Y269073D01*
X49695Y269174D01*
X49687Y269194D01*
X49683Y269215D01*
X49656Y269267D01*
X49652Y269282D01*
X49633Y269313D01*
X49629Y269322D01*
X49579Y269431D01*
X49565Y269447D01*
X49555Y269466D01*
X49504Y269521D01*
X49504Y269522D01*
X49501Y269525D01*
X49474Y269554D01*
X49396Y269645D01*
X49378Y269657D01*
X49363Y269673D01*
X49261Y269734D01*
X49160Y269800D01*
X49139Y269806D01*
X49121Y269817D01*
X49005Y269847D01*
X48890Y269882D01*
X48869Y269882D01*
X48848Y269888D01*
X48728Y269884D01*
X48608Y269886D01*
X48587Y269880D01*
X48566Y269879D01*
X48452Y269842D01*
X48450Y269842D01*
X48449Y269842D01*
X48336Y269811D01*
X48318Y269799D01*
X48297Y269793D01*
X48212Y269735D01*
X48193Y269726D01*
X48176Y269712D01*
X48096Y269662D01*
X48082Y269646D01*
X48064Y269634D01*
X48016Y269574D01*
X47979Y269543D01*
X47954Y269504D01*
X47907Y269453D01*
X47891Y269420D01*
X47871Y269394D01*
X47793Y269260D01*
X47320Y268787D01*
X46741Y268452D01*
X46095Y268279D01*
X44259Y268279D01*
X44259Y273820D01*
X44250Y273883D01*
X44251Y273948D01*
X44230Y274022D01*
X44219Y274099D01*
X44193Y274157D01*
X44176Y274219D01*
X44135Y274285D01*
X44118Y274323D01*
X44122Y274331D01*
X44165Y274396D01*
X44184Y274458D01*
X44212Y274516D01*
X44223Y274585D01*
X44247Y274666D01*
X44248Y274751D01*
X44259Y274820D01*
X44259Y285250D01*
X44250Y285313D01*
X44251Y285378D01*
X44230Y285452D01*
X44219Y285529D01*
X44193Y285587D01*
X44176Y285649D01*
X44135Y285715D01*
X44118Y285753D01*
X44122Y285761D01*
X44165Y285826D01*
X44184Y285888D01*
X44212Y285946D01*
X44223Y286015D01*
X44247Y286096D01*
X44248Y286181D01*
X44259Y286250D01*
X44259Y291791D01*
X46095Y291791D01*
X46741Y291618D01*
X47320Y291283D01*
X47793Y290810D01*
X48010Y290435D01*
X48043Y290393D01*
X48068Y290345D01*
X48129Y290282D01*
X48184Y290213D01*
X48227Y290182D01*
X48265Y290143D01*
X48341Y290100D01*
X48413Y290049D01*
X48463Y290031D01*
X48510Y290004D01*
X48596Y289984D01*
X48679Y289955D01*
X48732Y289952D01*
X48785Y289939D01*
X48873Y289944D01*
X48960Y289939D01*
X49012Y289951D01*
X49066Y289954D01*
X49150Y289983D01*
X49235Y290002D01*
X49282Y290029D01*
X49333Y290046D01*
X49396Y290092D01*
X49481Y290140D01*
X49532Y290192D01*
X49582Y290228D01*
X50128Y290775D01*
X57392Y290775D01*
X58285Y289882D01*
X58285Y281618D01*
X58077Y281411D01*
X58020Y281334D01*
X57955Y281263D01*
X57935Y281222D01*
X57908Y281186D01*
X57874Y281095D01*
X57832Y281009D01*
X57826Y280967D01*
X57809Y280922D01*
X57799Y280794D01*
X57785Y280705D01*
X57785Y280614D01*
X57794Y280550D01*
X57793Y280486D01*
X57814Y280411D01*
X57825Y280335D01*
X57851Y280276D01*
X57868Y280214D01*
X57909Y280148D01*
X57941Y280078D01*
X57983Y280029D01*
X58016Y279974D01*
X58074Y279922D01*
X58124Y279864D01*
X58178Y279828D01*
X58226Y279785D01*
X58295Y279752D01*
X58360Y279709D01*
X58422Y279690D01*
X58479Y279662D01*
X58549Y279651D01*
X58630Y279627D01*
X58715Y279626D01*
X58784Y279615D01*
X67707Y279615D01*
X68564Y278757D01*
X68641Y278700D01*
X68713Y278635D01*
X68754Y278615D01*
X68790Y278588D01*
X68880Y278554D01*
X68966Y278512D01*
X69008Y278506D01*
X69054Y278489D01*
X69181Y278479D01*
X69271Y278465D01*
X72676Y278465D01*
X72740Y278474D01*
X72804Y278473D01*
X72879Y278494D01*
X72955Y278505D01*
X73014Y278531D01*
X73076Y278548D01*
X73142Y278589D01*
X73212Y278621D01*
X73261Y278663D01*
X73316Y278696D01*
X73368Y278754D01*
X73426Y278804D01*
X73462Y278858D01*
X73505Y278906D01*
X73538Y278975D01*
X73581Y279040D01*
X73600Y279102D01*
X73628Y279159D01*
X73639Y279229D01*
X73663Y279310D01*
X73664Y279395D01*
X73675Y279464D01*
X73675Y307536D01*
X75447Y309307D01*
X79853Y313713D01*
X79910Y313790D01*
X79975Y313861D01*
X79995Y313902D01*
X80022Y313939D01*
X80056Y314029D01*
X80098Y314115D01*
X80104Y314157D01*
X80121Y314203D01*
X80131Y314330D01*
X80145Y314420D01*
X80145Y319092D01*
X81038Y319985D01*
X88302Y319985D01*
X89463Y318823D01*
X89515Y318784D01*
X89560Y318738D01*
X89627Y318700D01*
X89689Y318654D01*
X89749Y318631D01*
X89805Y318599D01*
X89880Y318581D01*
X89953Y318554D01*
X90017Y318549D01*
X90079Y318534D01*
X90157Y318538D01*
X90234Y318532D01*
X90297Y318545D01*
X90361Y318549D01*
X90434Y318574D01*
X90510Y318590D01*
X90567Y318620D01*
X90628Y318641D01*
X90684Y318682D01*
X90759Y318722D01*
X90820Y318782D01*
X90877Y318823D01*
X92038Y319985D01*
X99302Y319985D01*
X100209Y319077D01*
X100286Y319020D01*
X100357Y318955D01*
X100398Y318935D01*
X100434Y318908D01*
X100525Y318874D01*
X100611Y318832D01*
X100653Y318826D01*
X100698Y318809D01*
X100826Y318799D01*
X100915Y318785D01*
X116255Y318785D01*
X116349Y318798D01*
X116446Y318803D01*
X116489Y318818D01*
X116534Y318825D01*
X116621Y318864D01*
X116712Y318896D01*
X116747Y318921D01*
X116791Y318941D01*
X116888Y319024D01*
X116961Y319077D01*
X117383Y319499D01*
X117440Y319576D01*
X117505Y319647D01*
X117525Y319688D01*
X117552Y319724D01*
X117586Y319814D01*
X117628Y319901D01*
X117634Y319943D01*
X117651Y319988D01*
X117661Y320116D01*
X117675Y320205D01*
X117675Y321145D01*
X117662Y321239D01*
X117657Y321336D01*
X117642Y321379D01*
X117635Y321424D01*
X117596Y321511D01*
X117564Y321602D01*
X117539Y321637D01*
X117519Y321681D01*
X117436Y321778D01*
X117383Y321851D01*
X116975Y322258D01*
X116975Y330522D01*
X117868Y331415D01*
X125132Y331415D01*
X125678Y330868D01*
X125721Y330836D01*
X125758Y330797D01*
X125833Y330752D01*
X125904Y330699D01*
X125954Y330680D01*
X126000Y330652D01*
X126085Y330630D01*
X126168Y330599D01*
X126221Y330595D01*
X126273Y330582D01*
X126361Y330584D01*
X126449Y330577D01*
X126501Y330588D01*
X126555Y330590D01*
X126639Y330617D01*
X126725Y330635D01*
X126772Y330660D01*
X126823Y330677D01*
X126896Y330726D01*
X126974Y330767D01*
X127013Y330805D01*
X127057Y330835D01*
X127106Y330896D01*
X127176Y330964D01*
X127212Y331027D01*
X127250Y331075D01*
X127467Y331450D01*
X127940Y331923D01*
X128519Y332258D01*
X129165Y332431D01*
X131001Y332431D01*
X131001Y326890D01*
X131010Y326827D01*
X131009Y326762D01*
X131030Y326688D01*
X131041Y326611D01*
X131067Y326553D01*
X131084Y326491D01*
X131125Y326425D01*
X131157Y326354D01*
X131198Y326305D01*
X131232Y326251D01*
X131290Y326199D01*
X131340Y326140D01*
X131394Y326105D01*
X131442Y326062D01*
X131511Y326028D01*
X131576Y325985D01*
X131638Y325967D01*
X131695Y325939D01*
X131765Y325928D01*
X131846Y325903D01*
X131931Y325902D01*
X132000Y325891D01*
X132001Y325891D01*
X132001Y325890D01*
X132010Y325826D01*
X132009Y325762D01*
X132030Y325687D01*
X132041Y325611D01*
X132067Y325552D01*
X132084Y325490D01*
X132125Y325424D01*
X132157Y325354D01*
X132199Y325305D01*
X132233Y325250D01*
X132290Y325198D01*
X132340Y325140D01*
X132394Y325104D01*
X132442Y325061D01*
X132511Y325028D01*
X132576Y324985D01*
X132638Y324966D01*
X132696Y324938D01*
X132765Y324927D01*
X132846Y324903D01*
X132931Y324902D01*
X133000Y324891D01*
X138041Y324891D01*
X138041Y322555D01*
X137868Y321909D01*
X137533Y321330D01*
X137060Y320857D01*
X137046Y320849D01*
X137004Y320816D01*
X136957Y320791D01*
X136894Y320729D01*
X136824Y320675D01*
X136793Y320631D01*
X136755Y320594D01*
X136711Y320517D01*
X136660Y320446D01*
X136642Y320395D01*
X136616Y320349D01*
X136595Y320263D01*
X136566Y320180D01*
X136563Y320126D01*
X136551Y320074D01*
X136555Y319986D01*
X136550Y319898D01*
X136562Y319846D01*
X136565Y319792D01*
X136594Y319709D01*
X136614Y319624D01*
X136640Y319577D01*
X136658Y319526D01*
X136704Y319463D01*
X136751Y319377D01*
X136803Y319327D01*
X136839Y319277D01*
X137025Y319092D01*
X137025Y314704D01*
X137034Y314640D01*
X137033Y314576D01*
X137054Y314501D01*
X137065Y314425D01*
X137091Y314366D01*
X137108Y314304D01*
X137149Y314238D01*
X137181Y314168D01*
X137223Y314119D01*
X137256Y314064D01*
X137314Y314012D01*
X137364Y313954D01*
X137418Y313918D01*
X137466Y313875D01*
X137535Y313842D01*
X137600Y313799D01*
X137662Y313780D01*
X137719Y313752D01*
X137789Y313741D01*
X137870Y313717D01*
X137955Y313716D01*
X138024Y313705D01*
X153085Y313705D01*
X153179Y313718D01*
X153276Y313723D01*
X153319Y313738D01*
X153364Y313745D01*
X153451Y313784D01*
X153542Y313816D01*
X153577Y313841D01*
X153621Y313861D01*
X153718Y313944D01*
X153791Y313997D01*
X153991Y314197D01*
X154023Y314240D01*
X154062Y314277D01*
X154107Y314352D01*
X154160Y314423D01*
X154179Y314473D01*
X154206Y314519D01*
X154228Y314604D01*
X154259Y314686D01*
X154264Y314740D01*
X154277Y314792D01*
X154275Y314880D01*
X154281Y314968D01*
X154270Y315020D01*
X154269Y315074D01*
X154242Y315158D01*
X154224Y315244D01*
X154198Y315291D01*
X154182Y315342D01*
X154133Y315415D01*
X154091Y315493D01*
X154054Y315531D01*
X154024Y315576D01*
X153963Y315625D01*
X153894Y315695D01*
X153832Y315730D01*
X153784Y315769D01*
X153770Y315777D01*
X153297Y316250D01*
X152962Y316829D01*
X152789Y317475D01*
X152789Y319811D01*
X157830Y319811D01*
X157893Y319820D01*
X157958Y319819D01*
X158032Y319840D01*
X158109Y319851D01*
X158167Y319877D01*
X158229Y319894D01*
X158295Y319935D01*
X158366Y319967D01*
X158415Y320008D01*
X158469Y320042D01*
X158521Y320100D01*
X158580Y320150D01*
X158615Y320204D01*
X158658Y320252D01*
X158692Y320321D01*
X158735Y320386D01*
X158753Y320448D01*
X158781Y320505D01*
X158792Y320575D01*
X158817Y320656D01*
X158818Y320741D01*
X158829Y320810D01*
X158829Y321810D01*
X158820Y321874D01*
X158821Y321938D01*
X158800Y322013D01*
X158789Y322089D01*
X158763Y322148D01*
X158746Y322210D01*
X158705Y322276D01*
X158673Y322346D01*
X158631Y322395D01*
X158597Y322450D01*
X158540Y322502D01*
X158490Y322560D01*
X158436Y322596D01*
X158388Y322639D01*
X158319Y322672D01*
X158254Y322715D01*
X158192Y322734D01*
X158134Y322762D01*
X158065Y322773D01*
X157984Y322797D01*
X157899Y322798D01*
X157830Y322809D01*
X152789Y322809D01*
X152789Y324920D01*
X152780Y324984D01*
X152781Y325048D01*
X152760Y325123D01*
X152749Y325199D01*
X152723Y325258D01*
X152706Y325320D01*
X152665Y325386D01*
X152633Y325456D01*
X152591Y325505D01*
X152558Y325560D01*
X152500Y325612D01*
X152450Y325670D01*
X152396Y325706D01*
X152348Y325749D01*
X152279Y325782D01*
X152214Y325825D01*
X152152Y325844D01*
X152095Y325872D01*
X152025Y325883D01*
X151944Y325907D01*
X151859Y325908D01*
X151790Y325919D01*
X150859Y325919D01*
X150859Y354680D01*
X150850Y354744D01*
X150851Y354808D01*
X150830Y354883D01*
X150819Y354959D01*
X150793Y355018D01*
X150776Y355080D01*
X150735Y355146D01*
X150703Y355216D01*
X150661Y355265D01*
X150628Y355320D01*
X150570Y355372D01*
X150520Y355430D01*
X150466Y355466D01*
X150418Y355509D01*
X150349Y355542D01*
X150284Y355585D01*
X150222Y355604D01*
X150165Y355632D01*
X150095Y355643D01*
X150014Y355667D01*
X149929Y355668D01*
X149860Y355679D01*
X6080Y355679D01*
X6016Y355670D01*
X5952Y355671D01*
X5877Y355650D01*
X5801Y355639D01*
X5742Y355613D01*
X5680Y355596D01*
X5614Y355555D01*
X5544Y355523D01*
X5495Y355481D01*
X5440Y355448D01*
X5388Y355390D01*
X5330Y355340D01*
X5294Y355286D01*
X5251Y355238D01*
X5218Y355169D01*
X5175Y355104D01*
X5156Y355042D01*
X5128Y354985D01*
X5117Y354915D01*
X5093Y354834D01*
X5092Y354749D01*
X5081Y354680D01*
X5081Y6080D01*
X5090Y6016D01*
X5089Y5952D01*
X5110Y5877D01*
X5121Y5801D01*
X5147Y5742D01*
X5164Y5680D01*
X5205Y5614D01*
X5237Y5544D01*
X5279Y5495D01*
X5312Y5440D01*
X5370Y5388D01*
X5420Y5330D01*
X5474Y5294D01*
X5522Y5251D01*
X5591Y5218D01*
X5656Y5175D01*
X5718Y5156D01*
X5775Y5128D01*
X5845Y5117D01*
X5926Y5093D01*
X6011Y5092D01*
X6080Y5081D01*
X9502Y5081D01*
X9544Y5087D01*
G37*
%LPC*%
G36*
X198499Y9458D02*
X198499Y9458D01*
X198494Y9492D01*
X198497Y9527D01*
X198474Y9631D01*
X198459Y9737D01*
X198445Y9769D01*
X198438Y9803D01*
X198387Y9897D01*
X198343Y9994D01*
X198320Y10020D01*
X198304Y10051D01*
X198229Y10127D01*
X198160Y10208D01*
X198130Y10227D01*
X198106Y10252D01*
X198013Y10304D01*
X197924Y10363D01*
X197890Y10373D01*
X197860Y10390D01*
X197756Y10414D01*
X197654Y10445D01*
X197619Y10445D01*
X197585Y10453D01*
X197496Y10447D01*
X197372Y10449D01*
X197322Y10435D01*
X197278Y10432D01*
X196500Y10254D01*
X195722Y10432D01*
X195688Y10435D01*
X195654Y10445D01*
X195548Y10446D01*
X195441Y10455D01*
X195407Y10448D01*
X195372Y10449D01*
X195270Y10420D01*
X195165Y10399D01*
X195134Y10383D01*
X195100Y10373D01*
X195010Y10317D01*
X194915Y10268D01*
X194890Y10244D01*
X194860Y10225D01*
X194789Y10146D01*
X194712Y10072D01*
X194695Y10042D01*
X194671Y10016D01*
X194625Y9920D01*
X194572Y9828D01*
X194564Y9794D01*
X194548Y9762D01*
X194535Y9674D01*
X194505Y9553D01*
X194508Y9502D01*
X194501Y9458D01*
X194501Y8746D01*
X193681Y8876D01*
X191878Y9461D01*
X190189Y10322D01*
X188656Y11436D01*
X187316Y12776D01*
X186202Y14309D01*
X185341Y15998D01*
X184756Y17801D01*
X184459Y19672D01*
X184459Y26126D01*
X184484Y26130D01*
X184548Y26129D01*
X184623Y26150D01*
X184699Y26161D01*
X184758Y26187D01*
X184820Y26204D01*
X184886Y26245D01*
X184956Y26277D01*
X185005Y26319D01*
X185060Y26352D01*
X185112Y26410D01*
X185170Y26460D01*
X185206Y26514D01*
X185249Y26562D01*
X185282Y26631D01*
X185325Y26696D01*
X185344Y26758D01*
X185372Y26815D01*
X185383Y26885D01*
X185407Y26966D01*
X185408Y27051D01*
X185419Y27120D01*
X185419Y29120D01*
X185411Y29179D01*
X185411Y29191D01*
X185410Y29193D01*
X185411Y29248D01*
X185390Y29323D01*
X185379Y29399D01*
X185353Y29458D01*
X185336Y29520D01*
X185295Y29586D01*
X185263Y29656D01*
X185221Y29705D01*
X185188Y29760D01*
X185130Y29812D01*
X185080Y29870D01*
X185026Y29906D01*
X184978Y29949D01*
X184909Y29982D01*
X184844Y30025D01*
X184782Y30044D01*
X184725Y30072D01*
X184655Y30082D01*
X184574Y30107D01*
X184489Y30108D01*
X184459Y30113D01*
X184459Y36568D01*
X184512Y36902D01*
X184512Y36903D01*
X184756Y38439D01*
X185341Y40242D01*
X186202Y41931D01*
X187316Y43464D01*
X188656Y44804D01*
X190189Y45918D01*
X191878Y46779D01*
X193685Y47366D01*
X193798Y47421D01*
X193912Y47473D01*
X193924Y47483D01*
X193938Y47490D01*
X194031Y47574D01*
X194127Y47656D01*
X194135Y47669D01*
X194147Y47680D01*
X194212Y47787D01*
X194281Y47892D01*
X194286Y47907D01*
X194294Y47920D01*
X194327Y48042D01*
X194363Y48162D01*
X194364Y48177D01*
X194368Y48193D01*
X194366Y48318D01*
X194367Y48444D01*
X194363Y48459D01*
X194363Y48474D01*
X194326Y48594D01*
X194292Y48716D01*
X194284Y48729D01*
X194279Y48744D01*
X194210Y48849D01*
X194144Y48956D01*
X194132Y48966D01*
X194124Y48979D01*
X194028Y49061D01*
X193935Y49145D01*
X193920Y49152D01*
X193909Y49162D01*
X193794Y49213D01*
X193681Y49268D01*
X193666Y49270D01*
X193651Y49277D01*
X193410Y49310D01*
X193376Y49315D01*
X182624Y49315D01*
X182560Y49306D01*
X182496Y49307D01*
X182421Y49286D01*
X182345Y49275D01*
X182286Y49249D01*
X182224Y49232D01*
X182158Y49191D01*
X182088Y49159D01*
X182039Y49117D01*
X181984Y49084D01*
X181932Y49026D01*
X181874Y48976D01*
X181838Y48922D01*
X181795Y48874D01*
X181762Y48805D01*
X181719Y48740D01*
X181700Y48678D01*
X181672Y48621D01*
X181661Y48551D01*
X181637Y48470D01*
X181636Y48385D01*
X181625Y48316D01*
X181625Y47404D01*
X180312Y44234D01*
X177886Y41808D01*
X174716Y40495D01*
X171284Y40495D01*
X168114Y41808D01*
X165688Y44234D01*
X164375Y47404D01*
X164375Y50836D01*
X165688Y54006D01*
X168114Y56432D01*
X171284Y57745D01*
X174716Y57745D01*
X175449Y57441D01*
X175490Y57430D01*
X175527Y57412D01*
X175612Y57399D01*
X175723Y57371D01*
X175781Y57373D01*
X175832Y57365D01*
X209107Y57365D01*
X211757Y54715D01*
X211757Y54714D01*
X217744Y48727D01*
X217821Y48670D01*
X217893Y48605D01*
X217934Y48585D01*
X217970Y48558D01*
X218060Y48524D01*
X218146Y48482D01*
X218188Y48476D01*
X218234Y48459D01*
X218361Y48449D01*
X218451Y48435D01*
X226502Y48435D01*
X227395Y47542D01*
X227395Y36278D01*
X226502Y35385D01*
X223894Y35385D01*
X223830Y35376D01*
X223766Y35377D01*
X223691Y35356D01*
X223615Y35345D01*
X223556Y35319D01*
X223494Y35302D01*
X223428Y35261D01*
X223358Y35229D01*
X223309Y35187D01*
X223254Y35154D01*
X223202Y35096D01*
X223144Y35046D01*
X223108Y34992D01*
X223065Y34944D01*
X223032Y34875D01*
X222989Y34810D01*
X222970Y34748D01*
X222942Y34691D01*
X222931Y34621D01*
X222907Y34540D01*
X222906Y34455D01*
X222895Y34386D01*
X222895Y32203D01*
X220245Y29553D01*
X220244Y29553D01*
X219947Y29256D01*
X219890Y29179D01*
X219825Y29107D01*
X219805Y29066D01*
X219778Y29030D01*
X219744Y28940D01*
X219702Y28854D01*
X219696Y28812D01*
X219679Y28766D01*
X219669Y28639D01*
X219655Y28549D01*
X219655Y25998D01*
X219108Y25452D01*
X219076Y25409D01*
X219036Y25372D01*
X218991Y25296D01*
X218939Y25226D01*
X218920Y25176D01*
X218892Y25130D01*
X218870Y25045D01*
X218839Y24962D01*
X218835Y24909D01*
X218821Y24857D01*
X218824Y24769D01*
X218817Y24681D01*
X218828Y24629D01*
X218830Y24575D01*
X218857Y24491D01*
X218875Y24405D01*
X218900Y24358D01*
X218917Y24306D01*
X218966Y24234D01*
X219007Y24156D01*
X219045Y24117D01*
X219075Y24073D01*
X219136Y24024D01*
X219204Y23954D01*
X219267Y23918D01*
X219315Y23880D01*
X219690Y23663D01*
X220163Y23190D01*
X220498Y22611D01*
X220671Y21965D01*
X220671Y20129D01*
X215130Y20129D01*
X215067Y20120D01*
X215002Y20121D01*
X214928Y20100D01*
X214851Y20089D01*
X214793Y20063D01*
X214731Y20046D01*
X214665Y20005D01*
X214594Y19973D01*
X214545Y19931D01*
X214491Y19898D01*
X214439Y19840D01*
X214380Y19790D01*
X214345Y19736D01*
X214302Y19688D01*
X214268Y19619D01*
X214225Y19554D01*
X214207Y19492D01*
X214179Y19435D01*
X214168Y19365D01*
X214143Y19284D01*
X214142Y19199D01*
X214131Y19130D01*
X214131Y19129D01*
X214130Y19129D01*
X214066Y19120D01*
X214002Y19121D01*
X213927Y19100D01*
X213851Y19089D01*
X213792Y19063D01*
X213730Y19046D01*
X213664Y19005D01*
X213594Y18973D01*
X213545Y18931D01*
X213490Y18897D01*
X213438Y18840D01*
X213380Y18790D01*
X213344Y18736D01*
X213301Y18688D01*
X213268Y18619D01*
X213225Y18554D01*
X213206Y18492D01*
X213178Y18434D01*
X213167Y18365D01*
X213143Y18284D01*
X213142Y18199D01*
X213131Y18130D01*
X213131Y13089D01*
X210795Y13089D01*
X210149Y13262D01*
X209570Y13597D01*
X209097Y14070D01*
X208731Y14703D01*
X208689Y14758D01*
X208654Y14818D01*
X208602Y14868D01*
X208557Y14925D01*
X208501Y14966D01*
X208451Y15013D01*
X208387Y15047D01*
X208328Y15090D01*
X208263Y15113D01*
X208202Y15145D01*
X208131Y15159D01*
X208062Y15184D01*
X207993Y15187D01*
X207925Y15201D01*
X207853Y15195D01*
X207781Y15199D01*
X207713Y15184D01*
X207644Y15178D01*
X207576Y15152D01*
X207506Y15136D01*
X207446Y15102D01*
X207381Y15077D01*
X207323Y15034D01*
X207260Y14998D01*
X207211Y14949D01*
X207156Y14907D01*
X207117Y14853D01*
X207062Y14797D01*
X207019Y14717D01*
X206976Y14657D01*
X206798Y14309D01*
X205684Y12776D01*
X204344Y11436D01*
X202811Y10322D01*
X201122Y9461D01*
X199319Y8876D01*
X198499Y8746D01*
X198499Y9458D01*
G37*
%LPD*%
%LPC*%
G36*
X242869Y24869D02*
X242869Y24869D01*
X242869Y31410D01*
X242860Y31474D01*
X242861Y31538D01*
X242840Y31612D01*
X242829Y31689D01*
X242803Y31748D01*
X242786Y31810D01*
X242745Y31876D01*
X242713Y31946D01*
X242671Y31995D01*
X242638Y32050D01*
X242580Y32101D01*
X242530Y32160D01*
X242476Y32196D01*
X242428Y32239D01*
X242359Y32272D01*
X242294Y32315D01*
X242232Y32334D01*
X242175Y32362D01*
X242105Y32372D01*
X242024Y32397D01*
X241939Y32398D01*
X241870Y32409D01*
X240869Y32409D01*
X240869Y32411D01*
X241870Y32411D01*
X241934Y32420D01*
X241998Y32419D01*
X242073Y32440D01*
X242149Y32451D01*
X242208Y32477D01*
X242270Y32494D01*
X242336Y32535D01*
X242406Y32567D01*
X242455Y32609D01*
X242510Y32642D01*
X242562Y32700D01*
X242620Y32750D01*
X242656Y32804D01*
X242699Y32852D01*
X242732Y32921D01*
X242775Y32986D01*
X242794Y33048D01*
X242822Y33106D01*
X242832Y33175D01*
X242857Y33256D01*
X242858Y33341D01*
X242869Y33410D01*
X242869Y39951D01*
X248204Y39951D01*
X248281Y39930D01*
X248356Y39921D01*
X248428Y39902D01*
X248495Y39904D01*
X248561Y39896D01*
X248635Y39908D01*
X248710Y39911D01*
X248774Y39931D01*
X248840Y39942D01*
X248907Y39974D01*
X248978Y39997D01*
X249034Y40035D01*
X249094Y40064D01*
X249150Y40114D01*
X249212Y40156D01*
X249250Y40204D01*
X249304Y40252D01*
X249356Y40335D01*
X249405Y40396D01*
X249737Y40970D01*
X250210Y41443D01*
X250585Y41660D01*
X250627Y41693D01*
X250675Y41718D01*
X250738Y41779D01*
X250807Y41834D01*
X250838Y41877D01*
X250877Y41915D01*
X250920Y41991D01*
X250971Y42063D01*
X250989Y42113D01*
X251016Y42160D01*
X251036Y42246D01*
X251065Y42329D01*
X251068Y42382D01*
X251081Y42435D01*
X251076Y42523D01*
X251081Y42610D01*
X251069Y42662D01*
X251066Y42716D01*
X251037Y42800D01*
X251018Y42885D01*
X250991Y42932D01*
X250974Y42983D01*
X250928Y43046D01*
X250880Y43131D01*
X250828Y43182D01*
X250792Y43232D01*
X250245Y43778D01*
X250245Y44217D01*
X250241Y44249D01*
X250243Y44281D01*
X250221Y44388D01*
X250205Y44496D01*
X250192Y44525D01*
X250186Y44557D01*
X250134Y44653D01*
X250089Y44753D01*
X250068Y44777D01*
X250053Y44806D01*
X249977Y44884D01*
X249906Y44967D01*
X249879Y44985D01*
X249856Y45008D01*
X249761Y45062D01*
X249670Y45121D01*
X249639Y45131D01*
X249611Y45147D01*
X249505Y45172D01*
X249400Y45204D01*
X249368Y45204D01*
X249336Y45212D01*
X249227Y45206D01*
X249118Y45208D01*
X249087Y45199D01*
X249055Y45197D01*
X248952Y45162D01*
X248846Y45132D01*
X248819Y45115D01*
X248788Y45105D01*
X248715Y45051D01*
X248606Y44984D01*
X248574Y44948D01*
X248539Y44923D01*
X248502Y44885D01*
X233238Y44885D01*
X232345Y45778D01*
X232345Y52415D01*
X232332Y52510D01*
X232327Y52606D01*
X232312Y52649D01*
X232305Y52694D01*
X232266Y52781D01*
X232234Y52872D01*
X232209Y52907D01*
X232189Y52951D01*
X232106Y53048D01*
X232053Y53121D01*
X224451Y60723D01*
X224375Y60780D01*
X224303Y60845D01*
X224262Y60865D01*
X224226Y60892D01*
X224136Y60926D01*
X224049Y60968D01*
X224007Y60974D01*
X223962Y60991D01*
X223834Y61001D01*
X223745Y61015D01*
X223509Y61015D01*
X223414Y61002D01*
X223318Y60997D01*
X223302Y60991D01*
X218889Y60991D01*
X215775Y64105D01*
X215692Y64202D01*
X215639Y64275D01*
X207081Y72833D01*
X207005Y72890D01*
X206933Y72955D01*
X206892Y72975D01*
X206856Y73002D01*
X206766Y73036D01*
X206679Y73078D01*
X206637Y73084D01*
X206592Y73101D01*
X206464Y73111D01*
X206375Y73125D01*
X206294Y73125D01*
X206275Y73140D01*
X206203Y73205D01*
X206162Y73225D01*
X206126Y73252D01*
X206036Y73286D01*
X205949Y73328D01*
X205907Y73334D01*
X205862Y73351D01*
X205734Y73361D01*
X205645Y73375D01*
X200508Y73375D01*
X199615Y74268D01*
X199615Y82032D01*
X200508Y82925D01*
X205645Y82925D01*
X205740Y82938D01*
X205836Y82943D01*
X205879Y82958D01*
X205924Y82965D01*
X206011Y83004D01*
X206102Y83036D01*
X206137Y83061D01*
X206181Y83081D01*
X206278Y83164D01*
X206293Y83175D01*
X210966Y83175D01*
X210985Y83160D01*
X211057Y83095D01*
X211098Y83075D01*
X211134Y83048D01*
X211224Y83014D01*
X211311Y82972D01*
X211353Y82966D01*
X211398Y82949D01*
X211526Y82939D01*
X211615Y82925D01*
X216272Y82925D01*
X217165Y82032D01*
X217165Y77375D01*
X217178Y77280D01*
X217183Y77184D01*
X217198Y77141D01*
X217205Y77096D01*
X217244Y77009D01*
X217276Y76918D01*
X217301Y76883D01*
X217321Y76839D01*
X217404Y76742D01*
X217457Y76669D01*
X222745Y71381D01*
X222821Y71324D01*
X222893Y71259D01*
X222934Y71239D01*
X222970Y71212D01*
X223022Y71192D01*
X223028Y71188D01*
X223080Y71169D01*
X223147Y71136D01*
X223159Y71134D01*
X223205Y71112D01*
X223247Y71106D01*
X223292Y71089D01*
X223420Y71079D01*
X223509Y71065D01*
X228321Y71065D01*
X241159Y58227D01*
X241235Y58170D01*
X241307Y58105D01*
X241348Y58085D01*
X241384Y58058D01*
X241474Y58024D01*
X241561Y57982D01*
X241603Y57976D01*
X241648Y57959D01*
X241776Y57949D01*
X241865Y57935D01*
X248502Y57935D01*
X249395Y57042D01*
X249395Y56434D01*
X249404Y56370D01*
X249403Y56306D01*
X249424Y56231D01*
X249435Y56155D01*
X249461Y56096D01*
X249478Y56034D01*
X249519Y55968D01*
X249551Y55898D01*
X249593Y55849D01*
X249626Y55794D01*
X249684Y55742D01*
X249734Y55684D01*
X249788Y55648D01*
X249836Y55605D01*
X249905Y55572D01*
X249970Y55529D01*
X250032Y55510D01*
X250089Y55482D01*
X250159Y55471D01*
X250240Y55447D01*
X250325Y55446D01*
X250394Y55435D01*
X252937Y55435D01*
X256144Y52227D01*
X256221Y52170D01*
X256293Y52105D01*
X256334Y52085D01*
X256370Y52058D01*
X256460Y52024D01*
X256546Y51982D01*
X256588Y51976D01*
X256634Y51959D01*
X256762Y51949D01*
X256851Y51935D01*
X259402Y51935D01*
X260295Y51042D01*
X260295Y43778D01*
X259748Y43232D01*
X259716Y43189D01*
X259677Y43152D01*
X259632Y43077D01*
X259579Y43006D01*
X259560Y42956D01*
X259532Y42910D01*
X259510Y42825D01*
X259479Y42742D01*
X259475Y42689D01*
X259462Y42637D01*
X259464Y42549D01*
X259457Y42461D01*
X259468Y42409D01*
X259470Y42355D01*
X259497Y42271D01*
X259515Y42185D01*
X259540Y42138D01*
X259557Y42087D01*
X259606Y42014D01*
X259647Y41936D01*
X259685Y41897D01*
X259715Y41853D01*
X259776Y41804D01*
X259844Y41734D01*
X259907Y41698D01*
X259955Y41660D01*
X260330Y41443D01*
X260803Y40970D01*
X261138Y40391D01*
X261311Y39745D01*
X261311Y37909D01*
X255770Y37909D01*
X255707Y37900D01*
X255642Y37901D01*
X255568Y37880D01*
X255491Y37869D01*
X255433Y37843D01*
X255371Y37826D01*
X255305Y37785D01*
X255234Y37753D01*
X255185Y37711D01*
X255131Y37678D01*
X255079Y37620D01*
X255020Y37570D01*
X254985Y37516D01*
X254942Y37468D01*
X254908Y37399D01*
X254865Y37334D01*
X254847Y37272D01*
X254819Y37215D01*
X254808Y37145D01*
X254783Y37064D01*
X254782Y36979D01*
X254771Y36910D01*
X254771Y36909D01*
X254770Y36909D01*
X254706Y36900D01*
X254642Y36901D01*
X254567Y36880D01*
X254491Y36869D01*
X254432Y36843D01*
X254370Y36826D01*
X254304Y36785D01*
X254234Y36753D01*
X254185Y36711D01*
X254130Y36677D01*
X254078Y36620D01*
X254020Y36570D01*
X253984Y36516D01*
X253941Y36468D01*
X253908Y36399D01*
X253865Y36334D01*
X253846Y36272D01*
X253818Y36214D01*
X253807Y36145D01*
X253783Y36064D01*
X253782Y35979D01*
X253771Y35910D01*
X253771Y30869D01*
X251410Y30869D01*
X251346Y30860D01*
X251282Y30861D01*
X251207Y30840D01*
X251131Y30829D01*
X251072Y30803D01*
X251010Y30786D01*
X250944Y30745D01*
X250874Y30713D01*
X250825Y30671D01*
X250770Y30638D01*
X250718Y30580D01*
X250660Y30530D01*
X250624Y30476D01*
X250581Y30428D01*
X250548Y30359D01*
X250505Y30294D01*
X250486Y30232D01*
X250458Y30175D01*
X250447Y30105D01*
X250423Y30024D01*
X250422Y29939D01*
X250411Y29870D01*
X250411Y27075D01*
X250238Y26429D01*
X249903Y25850D01*
X249430Y25377D01*
X248851Y25042D01*
X248205Y24869D01*
X242869Y24869D01*
G37*
%LPD*%
G36*
X121382Y203921D02*
X121382Y203921D01*
X121414Y203920D01*
X121519Y203950D01*
X121626Y203972D01*
X121655Y203987D01*
X121686Y203996D01*
X121779Y204053D01*
X121875Y204104D01*
X121898Y204127D01*
X121926Y204144D01*
X121999Y204225D01*
X122077Y204301D01*
X122093Y204329D01*
X122115Y204353D01*
X122162Y204451D01*
X122216Y204546D01*
X122224Y204578D01*
X122238Y204607D01*
X122252Y204696D01*
X122262Y204739D01*
X122273Y204777D01*
X122273Y204788D01*
X122281Y204821D01*
X122279Y204869D01*
X122285Y204911D01*
X122285Y206166D01*
X123583Y209299D01*
X125981Y211697D01*
X127956Y212515D01*
X128030Y212559D01*
X128110Y212595D01*
X128151Y212631D01*
X128198Y212658D01*
X128258Y212722D01*
X128324Y212778D01*
X128354Y212824D01*
X128391Y212864D01*
X128431Y212941D01*
X128478Y213014D01*
X128494Y213067D01*
X128519Y213116D01*
X128535Y213201D01*
X128561Y213284D01*
X128561Y213339D01*
X128572Y213393D01*
X128563Y213479D01*
X128564Y213566D01*
X128550Y213619D01*
X128545Y213673D01*
X128512Y213754D01*
X128489Y213838D01*
X128460Y213885D01*
X128440Y213935D01*
X128387Y214004D01*
X128341Y214078D01*
X128300Y214114D01*
X128267Y214158D01*
X128196Y214209D01*
X128132Y214267D01*
X128082Y214291D01*
X128038Y214323D01*
X127956Y214352D01*
X127878Y214390D01*
X127828Y214398D01*
X127772Y214417D01*
X127659Y214424D01*
X127573Y214437D01*
X122149Y214437D01*
X117127Y219459D01*
X117127Y230678D01*
X117114Y230773D01*
X117109Y230869D01*
X117094Y230913D01*
X117087Y230958D01*
X117048Y231045D01*
X117016Y231136D01*
X116991Y231170D01*
X116971Y231214D01*
X116888Y231312D01*
X116835Y231385D01*
X115927Y232293D01*
X115850Y232350D01*
X115779Y232415D01*
X115738Y232435D01*
X115701Y232462D01*
X115611Y232496D01*
X115525Y232538D01*
X115483Y232544D01*
X115437Y232561D01*
X115310Y232571D01*
X115220Y232585D01*
X104245Y232585D01*
X104151Y232572D01*
X104054Y232567D01*
X104011Y232552D01*
X103966Y232545D01*
X103879Y232506D01*
X103788Y232474D01*
X103753Y232449D01*
X103709Y232429D01*
X103612Y232346D01*
X103539Y232293D01*
X103432Y232185D01*
X91177Y232185D01*
X91092Y232173D01*
X91007Y232171D01*
X90953Y232153D01*
X90898Y232145D01*
X90820Y232110D01*
X90738Y232084D01*
X90692Y232052D01*
X90641Y232029D01*
X90576Y231974D01*
X90505Y231926D01*
X90472Y231885D01*
X90426Y231846D01*
X90365Y231752D01*
X90311Y231686D01*
X90233Y231550D01*
X89760Y231077D01*
X89624Y230999D01*
X89557Y230946D01*
X89484Y230901D01*
X89447Y230859D01*
X89403Y230825D01*
X89353Y230755D01*
X89295Y230692D01*
X89271Y230641D01*
X89238Y230595D01*
X89210Y230515D01*
X89172Y230438D01*
X89164Y230386D01*
X89144Y230329D01*
X89138Y230218D01*
X89125Y230133D01*
X89125Y225870D01*
X89133Y225810D01*
X89133Y225787D01*
X89139Y225766D01*
X89143Y225679D01*
X89158Y225635D01*
X89165Y225590D01*
X89204Y225503D01*
X89236Y225412D01*
X89261Y225378D01*
X89281Y225334D01*
X89364Y225236D01*
X89417Y225163D01*
X94633Y219947D01*
X94710Y219890D01*
X94781Y219825D01*
X94822Y219805D01*
X94859Y219778D01*
X94949Y219744D01*
X95035Y219702D01*
X95077Y219696D01*
X95123Y219679D01*
X95250Y219669D01*
X95340Y219655D01*
X101002Y219655D01*
X101548Y219108D01*
X101591Y219076D01*
X101628Y219037D01*
X101703Y218992D01*
X101774Y218939D01*
X101824Y218920D01*
X101870Y218892D01*
X101955Y218870D01*
X102038Y218839D01*
X102091Y218835D01*
X102143Y218822D01*
X102231Y218824D01*
X102319Y218817D01*
X102371Y218828D01*
X102425Y218830D01*
X102509Y218857D01*
X102595Y218875D01*
X102642Y218900D01*
X102693Y218917D01*
X102766Y218966D01*
X102844Y219007D01*
X102883Y219045D01*
X102927Y219075D01*
X102976Y219136D01*
X103046Y219204D01*
X103082Y219267D01*
X103120Y219315D01*
X103337Y219690D01*
X103810Y220163D01*
X104389Y220498D01*
X105035Y220671D01*
X106871Y220671D01*
X106871Y215130D01*
X106880Y215067D01*
X106879Y215002D01*
X106900Y214928D01*
X106911Y214851D01*
X106937Y214793D01*
X106954Y214731D01*
X106995Y214665D01*
X107027Y214594D01*
X107068Y214545D01*
X107102Y214491D01*
X107160Y214439D01*
X107210Y214380D01*
X107264Y214345D01*
X107312Y214302D01*
X107381Y214268D01*
X107446Y214225D01*
X107508Y214207D01*
X107565Y214179D01*
X107635Y214168D01*
X107716Y214143D01*
X107801Y214142D01*
X107870Y214131D01*
X107871Y214131D01*
X107871Y214130D01*
X107880Y214066D01*
X107879Y214002D01*
X107900Y213927D01*
X107911Y213851D01*
X107937Y213792D01*
X107954Y213730D01*
X107995Y213664D01*
X108027Y213594D01*
X108069Y213545D01*
X108103Y213490D01*
X108160Y213438D01*
X108210Y213380D01*
X108264Y213344D01*
X108312Y213301D01*
X108381Y213268D01*
X108446Y213225D01*
X108508Y213206D01*
X108566Y213178D01*
X108635Y213167D01*
X108716Y213143D01*
X108801Y213142D01*
X108870Y213131D01*
X113911Y213131D01*
X113911Y210795D01*
X113738Y210149D01*
X113350Y209478D01*
X113334Y209438D01*
X113310Y209402D01*
X113281Y209307D01*
X113245Y209216D01*
X113240Y209173D01*
X113228Y209132D01*
X113227Y209034D01*
X113217Y208935D01*
X113225Y208893D01*
X113224Y208850D01*
X113250Y208755D01*
X113269Y208658D01*
X113288Y208620D01*
X113299Y208578D01*
X113351Y208494D01*
X113396Y208406D01*
X113425Y208375D01*
X113447Y208338D01*
X113521Y208272D01*
X113588Y208200D01*
X113625Y208178D01*
X113657Y208149D01*
X113746Y208106D01*
X113830Y208056D01*
X113872Y208045D01*
X113911Y208026D01*
X113995Y208013D01*
X114103Y207985D01*
X114164Y207987D01*
X114215Y207979D01*
X116806Y207979D01*
X118577Y206207D01*
X120579Y204205D01*
X120605Y204185D01*
X120626Y204161D01*
X120688Y204121D01*
X120708Y204102D01*
X120731Y204091D01*
X120805Y204036D01*
X120835Y204024D01*
X120862Y204006D01*
X120967Y203975D01*
X121069Y203936D01*
X121101Y203934D01*
X121132Y203924D01*
X121241Y203923D01*
X121350Y203914D01*
X121382Y203921D01*
G37*
%LPC*%
G36*
X113296Y17039D02*
X113296Y17039D01*
X109223Y18726D01*
X106106Y21843D01*
X104419Y25916D01*
X104419Y30324D01*
X106106Y34397D01*
X109223Y37514D01*
X113296Y39201D01*
X117704Y39201D01*
X121777Y37514D01*
X124894Y34397D01*
X126581Y30324D01*
X126581Y25916D01*
X124894Y21843D01*
X121777Y18726D01*
X117704Y17039D01*
X113296Y17039D01*
G37*
%LPD*%
%LPC*%
G36*
X158296Y17039D02*
X158296Y17039D01*
X154223Y18726D01*
X151106Y21843D01*
X149419Y25916D01*
X149419Y30324D01*
X151106Y34397D01*
X154223Y37514D01*
X158296Y39201D01*
X162704Y39201D01*
X166777Y37514D01*
X169894Y34397D01*
X171581Y30324D01*
X171581Y25916D01*
X169894Y21843D01*
X166777Y18726D01*
X162704Y17039D01*
X158296Y17039D01*
G37*
%LPD*%
G36*
X77264Y232644D02*
X77264Y232644D01*
X77328Y232643D01*
X77403Y232664D01*
X77479Y232675D01*
X77538Y232701D01*
X77600Y232718D01*
X77666Y232759D01*
X77736Y232791D01*
X77785Y232833D01*
X77840Y232866D01*
X77892Y232924D01*
X77950Y232974D01*
X77986Y233028D01*
X78029Y233076D01*
X78062Y233145D01*
X78105Y233210D01*
X78124Y233272D01*
X78152Y233329D01*
X78162Y233399D01*
X78187Y233480D01*
X78188Y233565D01*
X78199Y233634D01*
X78199Y243111D01*
X87676Y243111D01*
X87740Y243120D01*
X87804Y243119D01*
X87879Y243140D01*
X87955Y243151D01*
X88014Y243177D01*
X88076Y243194D01*
X88142Y243235D01*
X88212Y243267D01*
X88261Y243309D01*
X88316Y243342D01*
X88368Y243400D01*
X88426Y243450D01*
X88462Y243504D01*
X88505Y243552D01*
X88538Y243621D01*
X88581Y243686D01*
X88600Y243748D01*
X88628Y243805D01*
X88639Y243875D01*
X88663Y243956D01*
X88664Y244041D01*
X88675Y244110D01*
X88675Y246110D01*
X88666Y246174D01*
X88667Y246238D01*
X88646Y246313D01*
X88635Y246389D01*
X88609Y246448D01*
X88592Y246510D01*
X88551Y246576D01*
X88519Y246646D01*
X88477Y246695D01*
X88444Y246750D01*
X88386Y246802D01*
X88336Y246860D01*
X88282Y246896D01*
X88234Y246939D01*
X88165Y246972D01*
X88100Y247015D01*
X88038Y247034D01*
X87981Y247062D01*
X87911Y247072D01*
X87830Y247097D01*
X87745Y247098D01*
X87676Y247109D01*
X78199Y247109D01*
X78199Y256586D01*
X78190Y256650D01*
X78191Y256714D01*
X78170Y256789D01*
X78159Y256865D01*
X78133Y256924D01*
X78116Y256986D01*
X78075Y257052D01*
X78043Y257122D01*
X78001Y257171D01*
X77968Y257226D01*
X77910Y257278D01*
X77860Y257336D01*
X77806Y257372D01*
X77758Y257415D01*
X77689Y257448D01*
X77624Y257491D01*
X77562Y257510D01*
X77505Y257538D01*
X77435Y257549D01*
X77354Y257573D01*
X77269Y257574D01*
X77200Y257585D01*
X75200Y257585D01*
X75136Y257576D01*
X75072Y257577D01*
X74997Y257556D01*
X74921Y257545D01*
X74862Y257519D01*
X74800Y257502D01*
X74734Y257461D01*
X74664Y257429D01*
X74615Y257387D01*
X74560Y257354D01*
X74508Y257296D01*
X74450Y257246D01*
X74414Y257192D01*
X74371Y257144D01*
X74338Y257075D01*
X74295Y257010D01*
X74276Y256948D01*
X74248Y256891D01*
X74238Y256821D01*
X74213Y256740D01*
X74212Y256655D01*
X74201Y256586D01*
X74201Y247109D01*
X64724Y247109D01*
X64660Y247100D01*
X64596Y247101D01*
X64521Y247080D01*
X64445Y247069D01*
X64386Y247043D01*
X64324Y247026D01*
X64258Y246985D01*
X64188Y246953D01*
X64139Y246911D01*
X64084Y246878D01*
X64032Y246820D01*
X63974Y246770D01*
X63938Y246716D01*
X63895Y246668D01*
X63862Y246599D01*
X63819Y246534D01*
X63800Y246472D01*
X63772Y246415D01*
X63761Y246345D01*
X63737Y246264D01*
X63736Y246179D01*
X63725Y246110D01*
X63725Y244110D01*
X63734Y244046D01*
X63733Y243982D01*
X63754Y243907D01*
X63765Y243831D01*
X63791Y243772D01*
X63808Y243710D01*
X63849Y243644D01*
X63881Y243574D01*
X63923Y243525D01*
X63956Y243470D01*
X64014Y243418D01*
X64064Y243360D01*
X64118Y243324D01*
X64166Y243281D01*
X64235Y243248D01*
X64300Y243205D01*
X64362Y243186D01*
X64419Y243158D01*
X64489Y243148D01*
X64570Y243123D01*
X64655Y243122D01*
X64724Y243111D01*
X74201Y243111D01*
X74201Y233634D01*
X74210Y233570D01*
X74209Y233506D01*
X74230Y233431D01*
X74241Y233355D01*
X74267Y233296D01*
X74284Y233234D01*
X74325Y233168D01*
X74357Y233098D01*
X74399Y233049D01*
X74432Y232994D01*
X74490Y232942D01*
X74540Y232884D01*
X74594Y232848D01*
X74642Y232805D01*
X74711Y232772D01*
X74776Y232729D01*
X74838Y232710D01*
X74895Y232682D01*
X74965Y232671D01*
X75046Y232647D01*
X75131Y232646D01*
X75200Y232635D01*
X77200Y232635D01*
X77264Y232644D01*
G37*
G36*
X159605Y350679D02*
X159605Y350679D01*
X159605Y350680D01*
X159605Y377088D01*
X165094Y382576D01*
X165094Y382578D01*
X165094Y382579D01*
X165095Y382581D01*
X164105Y388101D01*
X164104Y388102D01*
X164104Y388103D01*
X164102Y388103D01*
X164100Y388105D01*
X164099Y388104D01*
X164098Y388103D01*
X164096Y388104D01*
X154996Y379004D01*
X154996Y379001D01*
X154995Y379000D01*
X154995Y350680D01*
X154999Y350675D01*
X155000Y350675D01*
X159600Y350675D01*
X159605Y350679D01*
G37*
%LPC*%
G36*
X246008Y73375D02*
X246008Y73375D01*
X245115Y74268D01*
X245115Y82032D01*
X246008Y82925D01*
X261772Y82925D01*
X262665Y82032D01*
X262665Y74268D01*
X261772Y73375D01*
X246008Y73375D01*
G37*
%LPD*%
%LPC*%
G36*
X246008Y94875D02*
X246008Y94875D01*
X245115Y95768D01*
X245115Y103532D01*
X246008Y104425D01*
X261772Y104425D01*
X262665Y103532D01*
X262665Y95768D01*
X261772Y94875D01*
X246008Y94875D01*
G37*
%LPD*%
%LPC*%
G36*
X23589Y18509D02*
X23589Y18509D01*
X23589Y27941D01*
X30815Y27941D01*
X31461Y27768D01*
X32040Y27433D01*
X32513Y26960D01*
X32848Y26381D01*
X33021Y25735D01*
X33021Y18509D01*
X23589Y18509D01*
G37*
%LPD*%
%LPC*%
G36*
X10159Y18509D02*
X10159Y18509D01*
X10159Y25735D01*
X10332Y26381D01*
X10667Y26960D01*
X11140Y27433D01*
X11719Y27768D01*
X12365Y27941D01*
X19591Y27941D01*
X19591Y18509D01*
X10159Y18509D01*
G37*
%LPD*%
%LPC*%
G36*
X200295Y160779D02*
X200295Y160779D01*
X199649Y160952D01*
X199070Y161287D01*
X198597Y161760D01*
X198262Y162339D01*
X198089Y162985D01*
X198089Y170821D01*
X204631Y170821D01*
X204631Y160779D01*
X200295Y160779D01*
G37*
%LPD*%
%LPC*%
G36*
X231329Y34409D02*
X231329Y34409D01*
X231329Y37745D01*
X231502Y38391D01*
X231837Y38970D01*
X232310Y39443D01*
X232889Y39778D01*
X233535Y39951D01*
X238871Y39951D01*
X238871Y34409D01*
X231329Y34409D01*
G37*
%LPD*%
%LPC*%
G36*
X233535Y24869D02*
X233535Y24869D01*
X232889Y25042D01*
X232310Y25377D01*
X231837Y25850D01*
X231502Y26429D01*
X231329Y27075D01*
X231329Y30411D01*
X238871Y30411D01*
X238871Y24869D01*
X233535Y24869D01*
G37*
%LPD*%
%LPC*%
G36*
X104999Y51119D02*
X104999Y51119D01*
X104999Y58564D01*
X105258Y58523D01*
X106701Y58054D01*
X108053Y57365D01*
X109281Y56473D01*
X110353Y55401D01*
X111245Y54173D01*
X111934Y52821D01*
X112403Y51378D01*
X112444Y51119D01*
X104999Y51119D01*
G37*
%LPD*%
%LPC*%
G36*
X93556Y51119D02*
X93556Y51119D01*
X93597Y51377D01*
X94066Y52821D01*
X94755Y54173D01*
X95647Y55401D01*
X96719Y56473D01*
X97947Y57365D01*
X99299Y58054D01*
X100742Y58523D01*
X101001Y58564D01*
X101001Y51119D01*
X93556Y51119D01*
G37*
%LPD*%
%LPC*%
G36*
X104999Y47121D02*
X104999Y47121D01*
X112444Y47121D01*
X112403Y46862D01*
X111934Y45419D01*
X111245Y44067D01*
X110353Y42839D01*
X109281Y41767D01*
X108053Y40875D01*
X106701Y40186D01*
X105257Y39717D01*
X104999Y39676D01*
X104999Y47121D01*
G37*
%LPD*%
%LPC*%
G36*
X100743Y39717D02*
X100743Y39717D01*
X99299Y40186D01*
X97947Y40875D01*
X96719Y41767D01*
X95647Y42839D01*
X94755Y44067D01*
X94066Y45419D01*
X93597Y46863D01*
X93556Y47121D01*
X101001Y47121D01*
X101001Y39676D01*
X100743Y39717D01*
G37*
%LPD*%
%LPC*%
G36*
X29939Y172319D02*
X29939Y172319D01*
X29939Y178111D01*
X33675Y178111D01*
X34321Y177938D01*
X34900Y177603D01*
X35373Y177130D01*
X35708Y176551D01*
X35881Y175905D01*
X35881Y172319D01*
X29939Y172319D01*
G37*
%LPD*%
%LPC*%
G36*
X29939Y168321D02*
X29939Y168321D01*
X35881Y168321D01*
X35881Y164735D01*
X35708Y164089D01*
X35373Y163510D01*
X34900Y163037D01*
X34321Y162702D01*
X33675Y162529D01*
X29939Y162529D01*
X29939Y168321D01*
G37*
%LPD*%
%LPC*%
G36*
X19999Y172319D02*
X19999Y172319D01*
X19999Y175905D01*
X20172Y176551D01*
X20507Y177130D01*
X20980Y177603D01*
X21559Y177938D01*
X22205Y178111D01*
X25941Y178111D01*
X25941Y172319D01*
X19999Y172319D01*
G37*
%LPD*%
%LPC*%
G36*
X22205Y162529D02*
X22205Y162529D01*
X21559Y162702D01*
X20980Y163037D01*
X20507Y163510D01*
X20172Y164089D01*
X19999Y164735D01*
X19999Y168321D01*
X25941Y168321D01*
X25941Y162529D01*
X22205Y162529D01*
G37*
%LPD*%
%LPC*%
G36*
X45949Y145429D02*
X45949Y145429D01*
X45949Y149471D01*
X48285Y149471D01*
X48931Y149298D01*
X49539Y148947D01*
X49555Y148930D01*
X49622Y148892D01*
X49684Y148845D01*
X49744Y148823D01*
X49800Y148791D01*
X49876Y148773D01*
X49948Y148746D01*
X50012Y148741D01*
X50075Y148726D01*
X50152Y148730D01*
X50229Y148724D01*
X50292Y148737D01*
X50357Y148741D01*
X50430Y148766D01*
X50505Y148782D01*
X50562Y148812D01*
X50623Y148833D01*
X50679Y148874D01*
X50754Y148914D01*
X50782Y148941D01*
X51399Y149298D01*
X52045Y149471D01*
X54381Y149471D01*
X54381Y145429D01*
X45949Y145429D01*
G37*
%LPD*%
%LPC*%
G36*
X184799Y202159D02*
X184799Y202159D01*
X184799Y210591D01*
X188841Y210591D01*
X188841Y208255D01*
X188668Y207609D01*
X188317Y207001D01*
X188300Y206985D01*
X188262Y206918D01*
X188216Y206856D01*
X188193Y206796D01*
X188161Y206740D01*
X188143Y206665D01*
X188116Y206593D01*
X188111Y206528D01*
X188096Y206466D01*
X188100Y206388D01*
X188094Y206311D01*
X188107Y206248D01*
X188110Y206184D01*
X188136Y206111D01*
X188152Y206035D01*
X188182Y205978D01*
X188203Y205917D01*
X188244Y205861D01*
X188284Y205786D01*
X188311Y205758D01*
X188668Y205141D01*
X188841Y204495D01*
X188841Y202159D01*
X184799Y202159D01*
G37*
%LPD*%
%LPC*%
G36*
X19439Y242799D02*
X19439Y242799D01*
X19439Y245135D01*
X19612Y245781D01*
X19963Y246389D01*
X19980Y246405D01*
X20018Y246472D01*
X20065Y246534D01*
X20087Y246594D01*
X20119Y246650D01*
X20137Y246726D01*
X20164Y246798D01*
X20169Y246862D01*
X20184Y246925D01*
X20180Y247002D01*
X20186Y247079D01*
X20173Y247142D01*
X20169Y247207D01*
X20144Y247280D01*
X20128Y247355D01*
X20098Y247412D01*
X20077Y247473D01*
X20036Y247529D01*
X19996Y247604D01*
X19969Y247632D01*
X19612Y248249D01*
X19439Y248895D01*
X19439Y251231D01*
X23481Y251231D01*
X23481Y242799D01*
X19439Y242799D01*
G37*
%LPD*%
%LPC*%
G36*
X37219Y275819D02*
X37219Y275819D01*
X37219Y278155D01*
X37392Y278801D01*
X37743Y279409D01*
X37760Y279425D01*
X37798Y279492D01*
X37844Y279554D01*
X37867Y279614D01*
X37899Y279670D01*
X37917Y279745D01*
X37944Y279817D01*
X37949Y279882D01*
X37964Y279944D01*
X37960Y280022D01*
X37966Y280099D01*
X37953Y280162D01*
X37950Y280226D01*
X37924Y280299D01*
X37908Y280375D01*
X37878Y280432D01*
X37857Y280493D01*
X37816Y280549D01*
X37776Y280624D01*
X37749Y280652D01*
X37392Y281269D01*
X37219Y281915D01*
X37219Y284251D01*
X41261Y284251D01*
X41261Y275819D01*
X37219Y275819D01*
G37*
%LPD*%
%LPC*%
G36*
X78009Y142545D02*
X78009Y142545D01*
X78000Y142549D01*
X77991Y142556D01*
X77917Y142589D01*
X77756Y142668D01*
X77732Y142671D01*
X77710Y142681D01*
X77087Y142848D01*
X76508Y143182D01*
X72276Y147414D01*
X75028Y150166D01*
X80820Y144374D01*
X79628Y143182D01*
X79049Y142848D01*
X78427Y142681D01*
X78417Y142677D01*
X78406Y142675D01*
X78288Y142622D01*
X78167Y142570D01*
X78159Y142564D01*
X78149Y142559D01*
X78069Y142491D01*
X78009Y142545D01*
G37*
%LPD*%
%LPC*%
G36*
X173180Y135026D02*
X173180Y135026D01*
X174372Y136218D01*
X174951Y136552D01*
X175597Y136725D01*
X176266Y136725D01*
X176912Y136552D01*
X177492Y136218D01*
X181724Y131985D01*
X178972Y129234D01*
X173180Y135026D01*
G37*
%LPD*%
%LPC*%
G36*
X180881Y127326D02*
X180881Y127326D01*
X183632Y130077D01*
X187864Y125845D01*
X188199Y125266D01*
X188372Y124620D01*
X188372Y123951D01*
X188199Y123304D01*
X187864Y122725D01*
X186673Y121533D01*
X180881Y127326D01*
G37*
%LPD*%
%LPC*%
G36*
X66136Y153555D02*
X66136Y153555D01*
X65801Y154134D01*
X65628Y154780D01*
X65628Y155449D01*
X65801Y156096D01*
X66136Y156675D01*
X67327Y157867D01*
X73119Y152074D01*
X70368Y149323D01*
X66136Y153555D01*
G37*
%LPD*%
%LPC*%
G36*
X238139Y115799D02*
X238139Y115799D01*
X238139Y120341D01*
X239975Y120341D01*
X240621Y120168D01*
X241200Y119833D01*
X241673Y119360D01*
X242008Y118781D01*
X242181Y118135D01*
X242181Y115799D01*
X238139Y115799D01*
G37*
%LPD*%
%LPC*%
G36*
X57379Y145429D02*
X57379Y145429D01*
X57379Y149471D01*
X59715Y149471D01*
X60361Y149298D01*
X60940Y148963D01*
X61413Y148490D01*
X61748Y147911D01*
X61921Y147265D01*
X61921Y145429D01*
X57379Y145429D01*
G37*
%LPD*%
%LPC*%
G36*
X133999Y327889D02*
X133999Y327889D01*
X133999Y332431D01*
X135835Y332431D01*
X136481Y332258D01*
X137060Y331923D01*
X137533Y331450D01*
X137868Y330871D01*
X138041Y330225D01*
X138041Y327889D01*
X133999Y327889D01*
G37*
%LPD*%
%LPC*%
G36*
X236449Y192419D02*
X236449Y192419D01*
X236449Y196461D01*
X238785Y196461D01*
X239431Y196288D01*
X240010Y195953D01*
X240483Y195480D01*
X240818Y194901D01*
X240991Y194255D01*
X240991Y192419D01*
X236449Y192419D01*
G37*
%LPD*%
%LPC*%
G36*
X146699Y277089D02*
X146699Y277089D01*
X146699Y281631D01*
X148535Y281631D01*
X149181Y281458D01*
X149760Y281123D01*
X150233Y280650D01*
X150568Y280071D01*
X150741Y279425D01*
X150741Y277089D01*
X146699Y277089D01*
G37*
%LPD*%
%LPC*%
G36*
X162789Y252109D02*
X162789Y252109D01*
X162789Y256151D01*
X165125Y256151D01*
X165771Y255978D01*
X166350Y255643D01*
X166823Y255170D01*
X167158Y254591D01*
X167331Y253945D01*
X167331Y252109D01*
X162789Y252109D01*
G37*
%LPD*%
%LPC*%
G36*
X221629Y217399D02*
X221629Y217399D01*
X221629Y221941D01*
X223465Y221941D01*
X224111Y221768D01*
X224690Y221433D01*
X225163Y220960D01*
X225498Y220381D01*
X225671Y219735D01*
X225671Y217399D01*
X221629Y217399D01*
G37*
%LPD*%
%LPC*%
G36*
X184799Y213589D02*
X184799Y213589D01*
X184799Y218131D01*
X186635Y218131D01*
X187281Y217958D01*
X187860Y217623D01*
X188333Y217150D01*
X188668Y216571D01*
X188841Y215925D01*
X188841Y213589D01*
X184799Y213589D01*
G37*
%LPD*%
%LPC*%
G36*
X109869Y216129D02*
X109869Y216129D01*
X109869Y220671D01*
X111705Y220671D01*
X112351Y220498D01*
X112930Y220163D01*
X113403Y219690D01*
X113738Y219111D01*
X113911Y218465D01*
X113911Y216129D01*
X109869Y216129D01*
G37*
%LPD*%
%LPC*%
G36*
X108599Y280899D02*
X108599Y280899D01*
X108599Y285441D01*
X110435Y285441D01*
X111081Y285268D01*
X111660Y284933D01*
X112133Y284460D01*
X112468Y283881D01*
X112641Y283235D01*
X112641Y280899D01*
X108599Y280899D01*
G37*
%LPD*%
%LPC*%
G36*
X238139Y108259D02*
X238139Y108259D01*
X238139Y112801D01*
X242181Y112801D01*
X242181Y110465D01*
X242008Y109819D01*
X241673Y109240D01*
X241200Y108767D01*
X240621Y108432D01*
X239975Y108259D01*
X238139Y108259D01*
G37*
%LPD*%
%LPC*%
G36*
X38409Y145429D02*
X38409Y145429D01*
X38409Y147265D01*
X38582Y147911D01*
X38917Y148490D01*
X39390Y148963D01*
X39969Y149298D01*
X40615Y149471D01*
X42951Y149471D01*
X42951Y145429D01*
X38409Y145429D01*
G37*
%LPD*%
%LPC*%
G36*
X133999Y286059D02*
X133999Y286059D01*
X133999Y290601D01*
X138041Y290601D01*
X138041Y288265D01*
X137868Y287619D01*
X137533Y287040D01*
X137060Y286567D01*
X136481Y286232D01*
X135835Y286059D01*
X133999Y286059D01*
G37*
%LPD*%
%LPC*%
G36*
X170829Y292409D02*
X170829Y292409D01*
X170829Y296951D01*
X174871Y296951D01*
X174871Y294615D01*
X174698Y293969D01*
X174363Y293390D01*
X173890Y292917D01*
X173311Y292582D01*
X172665Y292409D01*
X170829Y292409D01*
G37*
%LPD*%
%LPC*%
G36*
X108599Y273359D02*
X108599Y273359D01*
X108599Y277901D01*
X112641Y277901D01*
X112641Y275565D01*
X112468Y274919D01*
X112133Y274340D01*
X111660Y273867D01*
X111081Y273532D01*
X110435Y273359D01*
X108599Y273359D01*
G37*
%LPD*%
%LPC*%
G36*
X216129Y13089D02*
X216129Y13089D01*
X216129Y17131D01*
X220671Y17131D01*
X220671Y15295D01*
X220498Y14649D01*
X220163Y14070D01*
X219690Y13597D01*
X219111Y13262D01*
X218465Y13089D01*
X216129Y13089D01*
G37*
%LPD*%
%LPC*%
G36*
X256769Y30869D02*
X256769Y30869D01*
X256769Y34911D01*
X261311Y34911D01*
X261311Y33075D01*
X261138Y32429D01*
X260803Y31850D01*
X260330Y31377D01*
X259751Y31042D01*
X259105Y30869D01*
X256769Y30869D01*
G37*
%LPD*%
%LPC*%
G36*
X19439Y254229D02*
X19439Y254229D01*
X19439Y256565D01*
X19612Y257211D01*
X19947Y257790D01*
X20420Y258263D01*
X20999Y258598D01*
X21645Y258771D01*
X23481Y258771D01*
X23481Y254229D01*
X19439Y254229D01*
G37*
%LPD*%
%LPC*%
G36*
X37219Y287249D02*
X37219Y287249D01*
X37219Y289585D01*
X37392Y290231D01*
X37727Y290810D01*
X38200Y291283D01*
X38779Y291618D01*
X39425Y291791D01*
X41261Y291791D01*
X41261Y287249D01*
X37219Y287249D01*
G37*
%LPD*%
%LPC*%
G36*
X200889Y128659D02*
X200889Y128659D01*
X200889Y132701D01*
X205431Y132701D01*
X205431Y130865D01*
X205258Y130219D01*
X204923Y129640D01*
X204450Y129167D01*
X203871Y128832D01*
X203225Y128659D01*
X200889Y128659D01*
G37*
%LPD*%
%LPC*%
G36*
X39425Y268279D02*
X39425Y268279D01*
X38779Y268452D01*
X38200Y268787D01*
X37727Y269260D01*
X37392Y269839D01*
X37219Y270485D01*
X37219Y272821D01*
X41261Y272821D01*
X41261Y268279D01*
X39425Y268279D01*
G37*
%LPD*%
%LPC*%
G36*
X195555Y128659D02*
X195555Y128659D01*
X194909Y128832D01*
X194330Y129167D01*
X193857Y129640D01*
X193522Y130219D01*
X193349Y130865D01*
X193349Y132701D01*
X197891Y132701D01*
X197891Y128659D01*
X195555Y128659D01*
G37*
%LPD*%
%LPC*%
G36*
X21645Y235259D02*
X21645Y235259D01*
X20999Y235432D01*
X20420Y235767D01*
X19947Y236240D01*
X19612Y236819D01*
X19439Y237465D01*
X19439Y239801D01*
X23481Y239801D01*
X23481Y235259D01*
X21645Y235259D01*
G37*
%LPD*%
%LPC*%
G36*
X102999Y49119D02*
X102999Y49119D01*
X102999Y49121D01*
X103001Y49121D01*
X103001Y49119D01*
X102999Y49119D01*
G37*
%LPD*%
%LPC*%
G36*
X76199Y245109D02*
X76199Y245109D01*
X76199Y245111D01*
X76201Y245111D01*
X76201Y245109D01*
X76199Y245109D01*
G37*
%LPD*%
%LPC*%
G36*
X27939Y170319D02*
X27939Y170319D01*
X27939Y170321D01*
X27941Y170321D01*
X27941Y170319D01*
X27939Y170319D01*
G37*
%LPD*%
D10*
X214630Y29630D03*
X214630Y18630D03*
D11*
X172300Y189230D03*
X183300Y189230D03*
X97370Y214630D03*
X108370Y214630D03*
X35980Y241300D03*
X24980Y241300D03*
X53760Y285750D03*
X42760Y285750D03*
X96100Y279400D03*
X107100Y279400D03*
X53760Y274320D03*
X42760Y274320D03*
D10*
X255270Y47410D03*
X255270Y36410D03*
D11*
X134200Y275590D03*
X145200Y275590D03*
D10*
X161290Y239610D03*
X161290Y250610D03*
D11*
X84670Y314960D03*
X95670Y314960D03*
X84670Y303530D03*
X95670Y303530D03*
X121500Y292100D03*
X132500Y292100D03*
X121500Y314960D03*
X132500Y314960D03*
X158330Y298450D03*
X169330Y298450D03*
X169330Y321310D03*
X158330Y321310D03*
D10*
X199390Y145200D03*
X199390Y134200D03*
X55880Y132930D03*
X55880Y143930D03*
X44450Y132930D03*
X44450Y143930D03*
X234950Y179920D03*
X234950Y190920D03*
D11*
X209130Y215900D03*
X220130Y215900D03*
X172300Y212090D03*
X183300Y212090D03*
X172300Y200660D03*
X183300Y200660D03*
D12*
X173000Y49120D03*
X148000Y49120D03*
X128000Y49120D03*
X103000Y49120D03*
D13*
X79500Y35620D02*
X79500Y20620D01*
X196500Y20620D02*
X196500Y35620D01*
D14*
X21590Y16510D03*
D15*
X21590Y41910D03*
X21590Y67310D03*
X21590Y92710D03*
D11*
X132500Y326390D03*
X121500Y326390D03*
X132500Y303530D03*
X121500Y303530D03*
X169330Y309880D03*
X158330Y309880D03*
D16*
X27940Y187820D03*
X27940Y170320D03*
D11*
X236640Y114300D03*
X225640Y114300D03*
X24980Y252730D03*
X35980Y252730D03*
D10*
X43180Y184570D03*
X43180Y173570D03*
D17*
X208390Y99650D03*
X253890Y99650D03*
X208390Y78150D03*
X253890Y78150D03*
D18*
G36*
X182012Y158932D02*
X185830Y155114D01*
X175932Y145216D01*
X172114Y149034D01*
X182012Y158932D01*
G37*
G36*
X176355Y164589D02*
X180173Y160771D01*
X170275Y150873D01*
X166457Y154691D01*
X176355Y164589D01*
G37*
G36*
X170699Y170246D02*
X174517Y166428D01*
X164619Y156530D01*
X160801Y160348D01*
X170699Y170246D01*
G37*
G36*
X165042Y175903D02*
X168860Y172085D01*
X158962Y162187D01*
X155144Y166005D01*
X165042Y175903D01*
G37*
G36*
X159385Y181560D02*
X163203Y177742D01*
X153305Y167844D01*
X149487Y171662D01*
X159385Y181560D01*
G37*
G36*
X153799Y187146D02*
X157617Y183328D01*
X147719Y173430D01*
X143901Y177248D01*
X153799Y187146D01*
G37*
G36*
X148142Y192803D02*
X151960Y188985D01*
X142062Y179087D01*
X138244Y182905D01*
X148142Y192803D01*
G37*
G36*
X142485Y198460D02*
X146303Y194642D01*
X136405Y184744D01*
X132587Y188562D01*
X142485Y198460D01*
G37*
G36*
X107768Y194712D02*
X111586Y198530D01*
X121484Y188632D01*
X117666Y184814D01*
X107768Y194712D01*
G37*
G36*
X102111Y189055D02*
X105929Y192873D01*
X115827Y182975D01*
X112009Y179157D01*
X102111Y189055D01*
G37*
G36*
X96454Y183399D02*
X100272Y187217D01*
X110170Y177319D01*
X106352Y173501D01*
X96454Y183399D01*
G37*
G36*
X90797Y177742D02*
X94615Y181560D01*
X104513Y171662D01*
X100695Y167844D01*
X90797Y177742D01*
G37*
G36*
X85140Y172085D02*
X88958Y175903D01*
X98856Y166005D01*
X95038Y162187D01*
X85140Y172085D01*
G37*
G36*
X79483Y166428D02*
X83301Y170246D01*
X93199Y160348D01*
X89381Y156530D01*
X79483Y166428D01*
G37*
G36*
X73827Y160771D02*
X77645Y164589D01*
X87543Y154691D01*
X83725Y150873D01*
X73827Y160771D01*
G37*
G36*
X68170Y155114D02*
X71988Y158932D01*
X81886Y149034D01*
X78068Y145216D01*
X68170Y155114D01*
G37*
G36*
X71988Y120468D02*
X68170Y124286D01*
X78068Y134184D01*
X81886Y130366D01*
X71988Y120468D01*
G37*
G36*
X77645Y114811D02*
X73827Y118629D01*
X83725Y128527D01*
X87543Y124709D01*
X77645Y114811D01*
G37*
G36*
X83301Y109154D02*
X79483Y112972D01*
X89381Y122870D01*
X93199Y119052D01*
X83301Y109154D01*
G37*
G36*
X88958Y103497D02*
X85140Y107315D01*
X95038Y117213D01*
X98856Y113395D01*
X88958Y103497D01*
G37*
G36*
X94615Y97840D02*
X90797Y101658D01*
X100695Y111556D01*
X104513Y107738D01*
X94615Y97840D01*
G37*
G36*
X100272Y92183D02*
X96454Y96001D01*
X106352Y105899D01*
X110170Y102081D01*
X100272Y92183D01*
G37*
G36*
X105929Y86527D02*
X102111Y90345D01*
X112009Y100243D01*
X115827Y96425D01*
X105929Y86527D01*
G37*
G36*
X111586Y80870D02*
X107768Y84688D01*
X117666Y94586D01*
X121484Y90768D01*
X111586Y80870D01*
G37*
G36*
X146232Y84688D02*
X142414Y80870D01*
X132516Y90768D01*
X136334Y94586D01*
X146232Y84688D01*
G37*
G36*
X151889Y90345D02*
X148071Y86527D01*
X138173Y96425D01*
X141991Y100243D01*
X151889Y90345D01*
G37*
G36*
X157546Y96001D02*
X153728Y92183D01*
X143830Y102081D01*
X147648Y105899D01*
X157546Y96001D01*
G37*
G36*
X163203Y101658D02*
X159385Y97840D01*
X149487Y107738D01*
X153305Y111556D01*
X163203Y101658D01*
G37*
G36*
X168860Y107315D02*
X165042Y103497D01*
X155144Y113395D01*
X158962Y117213D01*
X168860Y107315D01*
G37*
G36*
X174517Y112972D02*
X170699Y109154D01*
X160801Y119052D01*
X164619Y122870D01*
X174517Y112972D01*
G37*
G36*
X180173Y118629D02*
X176355Y114811D01*
X166457Y124709D01*
X170275Y128527D01*
X180173Y118629D01*
G37*
G36*
X185830Y124286D02*
X182012Y120468D01*
X172114Y130366D01*
X175932Y134184D01*
X185830Y124286D01*
G37*
D19*
X66200Y224810D03*
X71200Y224810D03*
X76200Y224810D03*
X81200Y224810D03*
X86200Y224810D03*
D20*
X96500Y235110D03*
X96500Y240110D03*
X96500Y245110D03*
X96500Y250110D03*
X96500Y255110D03*
D19*
X86200Y265410D03*
X81200Y265410D03*
X76200Y265410D03*
X71200Y265410D03*
X66200Y265410D03*
D20*
X55900Y255110D03*
X55900Y250110D03*
X55900Y245110D03*
X55900Y240110D03*
X55900Y235110D03*
D21*
X76200Y245110D03*
D22*
X76200Y245110D03*
D23*
X218870Y41910D03*
X240870Y51410D03*
X240870Y32410D03*
D24*
X222630Y172820D03*
X222630Y198020D03*
X206630Y198020D03*
X206630Y172820D03*
X131700Y257710D03*
X131700Y232510D03*
X147700Y232510D03*
X147700Y257710D03*
D25*
X138000Y418730D03*
D26*
X220000Y413730D03*
D27*
X255000Y393930D03*
D28*
X215000Y369530D03*
D29*
X190600Y363330D03*
X169600Y363330D03*
D30*
X180100Y403680D03*
D31*
X180100Y388630D03*
D32*
X157300Y350680D03*
D33*
X215000Y350680D03*
D34*
X218870Y33870D02*
X214630Y29630D01*
X218870Y33870D02*
X218870Y41910D01*
X207440Y53340D01*
X177220Y53340D02*
X173000Y49120D01*
X177220Y53340D02*
X207440Y53340D01*
X240870Y32410D02*
X251270Y32410D01*
X255270Y36410D01*
X227090Y18630D02*
X214630Y18630D01*
X227090Y18630D02*
X240870Y32410D01*
X183300Y200660D02*
X183300Y212090D01*
X183300Y200660D02*
X183300Y189230D01*
X178972Y127326D02*
X192516Y127326D01*
X199390Y134200D01*
X203366Y138176D01*
X64024Y152074D02*
X55880Y143930D01*
X64024Y152074D02*
X75028Y152074D01*
X92700Y49120D02*
X103000Y49120D01*
X229730Y190920D02*
X222630Y198020D01*
X229730Y190920D02*
X234950Y190920D01*
X235370Y190500D01*
X254000Y190500D01*
X260350Y184150D01*
X232654Y167464D02*
X232654Y161653D01*
X232654Y167464D02*
X235370Y170180D01*
X209177Y138176D02*
X203366Y138176D01*
X209177Y138176D02*
X213300Y142300D01*
X232654Y161653D01*
X220130Y200520D02*
X220130Y215900D01*
X220130Y200520D02*
X222630Y198020D01*
X199390Y212090D02*
X183300Y212090D01*
X199390Y212090D02*
X202106Y214806D01*
X202106Y221067D02*
X204463Y223424D01*
X213797Y223424D01*
X202106Y221067D02*
X202106Y214806D01*
X12700Y171450D02*
X12700Y123190D01*
X12700Y171450D02*
X12700Y222250D01*
X12700Y241300D01*
X12700Y252730D01*
X12700Y287020D01*
X206630Y172820D02*
X212606Y166844D01*
X212606Y161653D01*
X213300Y160959D01*
X213300Y142300D01*
D35*
X55900Y255110D02*
X47150Y255110D01*
X44450Y257810D01*
X47070Y240110D02*
X55900Y240110D01*
X47070Y240110D02*
X41910Y234950D01*
X41910Y222250D01*
D34*
X12700Y222250D01*
X42760Y274320D02*
X42760Y285750D01*
X13970Y285750D01*
X12700Y287020D01*
X12700Y252730D02*
X24980Y252730D01*
X24980Y241300D02*
X12700Y241300D01*
X42760Y259500D02*
X44450Y257810D01*
X42760Y259500D02*
X42760Y274320D01*
X147700Y273090D02*
X147700Y257710D01*
X147700Y273090D02*
X145200Y275590D01*
X147700Y257710D02*
X154190Y257710D01*
X161290Y250610D01*
X138867Y283114D02*
X129533Y283114D01*
X138867Y283114D02*
X141224Y280757D01*
X125819Y279400D02*
X107100Y279400D01*
X141224Y279566D02*
X141224Y280757D01*
X129533Y283114D02*
X125819Y279400D01*
X141224Y279566D02*
X145200Y275590D01*
X213797Y223424D02*
X216154Y221067D01*
X216154Y219876D01*
X220130Y215900D01*
X193210Y244010D02*
X186611Y250610D01*
X193210Y244010D02*
X213797Y223424D01*
X177800Y250610D02*
X161290Y250610D01*
X177800Y250610D02*
X186611Y250610D01*
X193210Y244010D02*
X181710Y232510D01*
X140033Y218986D02*
X137676Y221343D01*
X140033Y218986D02*
X155367Y218986D01*
X137676Y226534D02*
X131700Y232510D01*
X137676Y226534D02*
X137676Y221343D01*
X168891Y232510D02*
X181710Y232510D01*
X168891Y232510D02*
X155367Y218986D01*
X132500Y326390D02*
X128524Y330366D01*
X128524Y331557D01*
X123531Y336550D01*
X19050Y336550D01*
X12700Y330200D02*
X12700Y287020D01*
X12700Y330200D02*
X19050Y336550D01*
X138341Y321310D02*
X158330Y321310D01*
X138341Y321310D02*
X137167Y322484D01*
X136406Y322484D01*
X132500Y326390D01*
X169330Y298450D02*
X169330Y259080D01*
X177800Y250610D01*
X138867Y285733D02*
X132500Y292100D01*
X138867Y285733D02*
X138867Y283114D01*
D36*
X106680Y226060D03*
D34*
X108370Y224370D01*
X108370Y214630D01*
X260350Y184150D02*
X260350Y349250D01*
X256420Y353180D01*
X217500Y353180D02*
X215000Y350680D01*
X217500Y353180D02*
X256420Y353180D01*
X81000Y37420D02*
X79500Y28120D01*
X81000Y37420D02*
X92700Y49120D01*
X86180Y28120D02*
X79500Y28120D01*
X86180Y28120D02*
X101600Y12700D01*
X179580Y12700D02*
X196500Y28120D01*
X179580Y12700D02*
X101600Y12700D01*
X196500Y28120D02*
X204490Y18630D01*
X214630Y18630D01*
X27940Y170320D02*
X13830Y170320D01*
X12700Y171450D01*
X235370Y170180D02*
X246380Y170180D01*
X260350Y184150D01*
X255270Y36410D02*
X268000Y36410D01*
X268000Y114300D01*
X268000Y176500D01*
X260350Y184150D01*
X12700Y123190D02*
X7580Y118070D01*
X7580Y50800D01*
X61140Y28120D02*
X79500Y28120D01*
X61140Y28120D02*
X46990Y13970D01*
X44450Y16510D01*
X21590Y16510D01*
X7620Y16510D01*
X7620Y50760D01*
X7580Y50800D01*
X236640Y114300D02*
X268000Y114300D01*
X55880Y143930D02*
X44450Y143930D01*
X27940Y160440D01*
X27940Y170320D01*
X240870Y51410D02*
X251270Y51410D01*
X255270Y47410D01*
X55880Y132930D02*
X44450Y132930D01*
X55880Y132930D02*
X69423Y132930D01*
X75028Y127326D01*
X178972Y152074D02*
X192516Y152074D01*
X199390Y145200D01*
X165100Y183457D02*
X156345Y174702D01*
X165100Y198120D02*
X167640Y200660D01*
X172300Y200660D01*
X165100Y198120D02*
X165100Y183457D01*
X53760Y274320D02*
X53760Y285750D01*
D37*
X110490Y250190D03*
X54610Y264160D03*
X81280Y212090D03*
X35560Y231140D03*
X95250Y269240D03*
D38*
X220980Y66040D03*
D39*
X226240Y66040D02*
X240870Y51410D01*
X226240Y66040D02*
X220980Y66040D01*
D40*
X110410Y250110D02*
X96500Y250110D01*
X110410Y250110D02*
X110490Y250190D01*
D34*
X54610Y264160D02*
X53760Y265010D01*
X53760Y274320D01*
X35560Y240880D02*
X35560Y231140D01*
X35560Y240880D02*
X35980Y241300D01*
D35*
X66040Y265570D02*
X66200Y265410D01*
X66040Y265570D02*
X66040Y275590D01*
X86200Y274160D02*
X86200Y265410D01*
X86200Y274160D02*
X88900Y276860D01*
D34*
X88900Y275590D02*
X95250Y269240D01*
X88900Y275590D02*
X88900Y276860D01*
X93560Y276860D02*
X96100Y279400D01*
X93560Y276860D02*
X88900Y276860D01*
X66040Y275590D02*
X55030Y275590D01*
X53760Y274320D01*
D35*
X55900Y245110D02*
X39790Y245110D01*
X35980Y241300D01*
D34*
X172300Y212090D02*
X172300Y200660D01*
D35*
X81200Y212170D02*
X81200Y224810D01*
X81200Y212170D02*
X81280Y212090D01*
X71200Y275510D02*
X71120Y275590D01*
X66040Y275590D01*
X71200Y275510D02*
X71200Y265410D01*
D39*
X208870Y78150D02*
X220980Y66040D01*
X208870Y78150D02*
X208390Y78150D01*
D38*
X148590Y138430D03*
X114300Y152400D03*
D34*
X148590Y138430D02*
X165328Y138430D01*
X178972Y152074D01*
X148590Y138430D02*
X143804Y133644D01*
X81346Y133644D02*
X75028Y127326D01*
X81346Y133644D02*
X143804Y133644D01*
X134043Y152400D02*
X114300Y152400D01*
X134043Y152400D02*
X156345Y174702D01*
D41*
X167659Y163388D02*
X202291Y198020D01*
X206630Y198020D01*
X209130Y200520D02*
X209130Y215900D01*
X209130Y200520D02*
X206630Y198020D01*
X198106Y182522D02*
X173315Y157731D01*
X198106Y182522D02*
X198106Y183366D01*
X200161Y185420D01*
X214630Y185420D01*
X222630Y177420D01*
X222630Y172820D01*
X227850Y172820D02*
X234950Y179920D01*
X227850Y172820D02*
X222630Y172820D01*
X173315Y121669D02*
X195334Y99650D01*
X208390Y99650D01*
X223040Y114300D01*
X225640Y114300D01*
X162002Y169045D02*
X172300Y179343D01*
X172300Y189230D01*
D42*
X162002Y169045D02*
X131387Y138430D01*
X35560Y138430D01*
X21590Y124460D01*
X21590Y92710D01*
D41*
X96500Y240110D02*
X116760Y240110D01*
X123176Y233694D01*
X123176Y221965D02*
X124655Y220486D01*
X131428Y220486D01*
X123176Y221965D02*
X123176Y233694D01*
X131428Y220486D02*
X137857Y214057D01*
X137952Y213962D01*
X156210Y195704D01*
X156210Y184150D01*
X154621Y184150D01*
X150759Y180288D01*
X66200Y209003D02*
X66200Y224810D01*
X66200Y209003D02*
X76797Y198406D01*
X85265Y198406D02*
X103312Y180359D01*
X85265Y198406D02*
X76797Y198406D01*
X114300Y201930D02*
X128270Y187960D01*
X128270Y186690D01*
X109220Y167640D01*
X104140Y167640D01*
X104140Y168217D01*
X97655Y174702D01*
X114300Y201930D02*
X78257Y201930D01*
X71200Y208987D02*
X71200Y224810D01*
X71200Y208987D02*
X78257Y201930D01*
X60960Y200083D02*
X91998Y169045D01*
X60960Y200083D02*
X60960Y234950D01*
X56060Y234950D01*
X55900Y235110D01*
X75482Y214492D02*
X75482Y209688D01*
X129612Y191602D02*
X139445Y191602D01*
X129612Y191602D02*
X115760Y205454D01*
X79716Y205454D02*
X75482Y209688D01*
X79716Y205454D02*
X115760Y205454D01*
X76200Y215210D02*
X75482Y214492D01*
X76200Y215210D02*
X76200Y224810D01*
X104140Y111183D02*
X97655Y104698D01*
X104140Y111183D02*
X104140Y111760D01*
X106966Y108934D01*
X111950Y108934D01*
X128270Y92614D01*
X128270Y68850D02*
X148000Y49120D01*
X128270Y68850D02*
X128270Y92614D01*
X104121Y99041D02*
X103312Y99041D01*
X104121Y99041D02*
X110490Y105410D01*
X124460Y91440D01*
X124460Y52660D02*
X128000Y49120D01*
X124460Y52660D02*
X124460Y91440D01*
X108969Y93385D02*
X82894Y67310D01*
X21590Y67310D01*
X77698Y50800D02*
X114626Y87728D01*
X30480Y50800D02*
X21590Y41910D01*
X30480Y50800D02*
X77698Y50800D01*
X80685Y157731D02*
X64846Y173570D01*
X43180Y173570D01*
X140224Y239986D02*
X147700Y232510D01*
X140224Y239986D02*
X140224Y243056D01*
X138746Y244534D01*
X112892Y244392D02*
X108088Y244392D01*
X107370Y245110D01*
X96500Y245110D01*
X112892Y244392D02*
X113034Y244534D01*
X138746Y244534D01*
X147700Y232510D02*
X154800Y239610D01*
X161290Y239610D01*
X84670Y314960D02*
X76200Y306490D01*
X76200Y265410D01*
X81200Y265410D02*
X81200Y300060D01*
X84670Y303530D01*
X96500Y235110D02*
X116680Y235110D01*
X119652Y232138D02*
X119652Y220505D01*
X123195Y216962D02*
X129968Y216962D01*
X123195Y216962D02*
X119652Y220505D01*
X119652Y232138D02*
X116680Y235110D01*
X129968Y216962D02*
X135365Y211565D01*
D43*
X130810Y204470D03*
D41*
X136492Y210438D02*
X135365Y211565D01*
X136492Y210152D02*
X130810Y204470D01*
X136492Y210152D02*
X136492Y210438D01*
X149860Y197070D01*
X149860Y189230D01*
X148387Y189230D01*
X145102Y185945D01*
D35*
X55900Y250110D02*
X45800Y250110D01*
D41*
X43180Y252730D02*
X35980Y252730D01*
X43180Y252730D02*
X45800Y250110D01*
X129100Y255110D02*
X131700Y257710D01*
X107210Y255110D02*
X96500Y255110D01*
X107210Y255110D02*
X108088Y255988D01*
X112892Y255988D01*
X113770Y255110D01*
X129100Y255110D01*
X131700Y257710D02*
X131700Y273090D01*
X134200Y275590D01*
D44*
X121500Y314960D02*
X95670Y314960D01*
X121500Y314960D02*
X121500Y326390D01*
X121500Y303530D02*
X95670Y303530D01*
X121500Y303530D02*
X121500Y292100D01*
X158330Y298450D02*
X158330Y309880D01*
X132500Y309880D02*
X132500Y303530D01*
D41*
X132500Y309880D02*
X132500Y314960D01*
D44*
X132500Y309880D02*
X158330Y309880D01*
X169330Y309880D02*
X169330Y321310D01*
X157300Y333340D02*
X157300Y350680D01*
X157300Y333340D02*
X162006Y328634D01*
X162914Y328634D01*
X165154Y326394D01*
X165154Y325486D01*
X169330Y321310D01*
D41*
X86200Y224810D02*
X96380Y214630D01*
X97370Y214630D01*
X43180Y184570D02*
X39930Y187820D01*
X27940Y187820D01*
M02*
