M48
;GenerationSoftware,Autodesk,EAGLE,9.3.0*%
;CreationDate,2019-03-17T23:47:54Z*%
FMAT,2
ICI,OFF
METRIC,TZ,000.000
T7C0.350
T6C0.400
T5C0.500
T4C0.800
T3C0.930
T2C1.000
T1C1.200
%
G90
M71
T1
X11550Y2812
X16050Y2812
T2
X2159Y1651
X2159Y4191
X2159Y6731
X2159Y9271
T3
X17300Y4912
X14800Y4912
X12800Y4912
X10300Y4912
T4
X7620Y24511
T5
X10668Y22606
T6
X22098Y6604
X14859Y13843
X11430Y15240
T7
X11049Y25019
X5461Y26416
X8128Y21209
X3556Y23114
X9525Y26924
X13081Y20447
M30