G04 EAGLE Gerber RS-274X export*
G75*
%MOMM*%
%FSLAX34Y34*%
%LPD*%
%INSilk top*%
%IPPOS*%
%AMOC8*
5,1,8,0,0,1.08239X$1,22.5*%
G01*
%ADD10C,0.076200*%


D10*
X22338Y30615D02*
X22338Y32182D01*
X27559Y32182D01*
X27559Y29049D01*
X27557Y28960D01*
X27551Y28872D01*
X27542Y28784D01*
X27529Y28696D01*
X27512Y28609D01*
X27492Y28523D01*
X27467Y28438D01*
X27440Y28353D01*
X27408Y28270D01*
X27374Y28189D01*
X27335Y28109D01*
X27294Y28031D01*
X27249Y27954D01*
X27201Y27880D01*
X27150Y27807D01*
X27096Y27737D01*
X27038Y27670D01*
X26978Y27604D01*
X26916Y27542D01*
X26850Y27482D01*
X26783Y27424D01*
X26713Y27370D01*
X26640Y27319D01*
X26566Y27271D01*
X26489Y27226D01*
X26411Y27185D01*
X26331Y27146D01*
X26250Y27112D01*
X26167Y27080D01*
X26082Y27053D01*
X25997Y27028D01*
X25911Y27008D01*
X25824Y26991D01*
X25736Y26978D01*
X25648Y26969D01*
X25560Y26963D01*
X25471Y26961D01*
X20249Y26961D01*
X20249Y26960D02*
X20158Y26962D01*
X20067Y26968D01*
X19976Y26978D01*
X19886Y26992D01*
X19797Y27010D01*
X19708Y27031D01*
X19621Y27057D01*
X19535Y27086D01*
X19450Y27119D01*
X19366Y27156D01*
X19284Y27196D01*
X19205Y27240D01*
X19127Y27287D01*
X19051Y27338D01*
X18977Y27392D01*
X18906Y27449D01*
X18838Y27509D01*
X18772Y27572D01*
X18709Y27638D01*
X18649Y27706D01*
X18592Y27777D01*
X18538Y27851D01*
X18487Y27927D01*
X18440Y28004D01*
X18396Y28084D01*
X18356Y28166D01*
X18319Y28250D01*
X18286Y28334D01*
X18257Y28421D01*
X18231Y28508D01*
X18210Y28597D01*
X18192Y28686D01*
X18178Y28776D01*
X18168Y28867D01*
X18162Y28958D01*
X18160Y29049D01*
X18161Y29049D02*
X18161Y32182D01*
X18161Y36714D02*
X27559Y36714D01*
X27559Y41935D02*
X18161Y36714D01*
X18161Y41935D02*
X27559Y41935D01*
X27559Y46468D02*
X18161Y46468D01*
X18161Y49078D01*
X18163Y49178D01*
X18169Y49278D01*
X18178Y49377D01*
X18192Y49477D01*
X18209Y49575D01*
X18230Y49673D01*
X18254Y49770D01*
X18283Y49866D01*
X18315Y49961D01*
X18350Y50054D01*
X18389Y50146D01*
X18432Y50237D01*
X18478Y50325D01*
X18528Y50412D01*
X18580Y50497D01*
X18636Y50580D01*
X18695Y50661D01*
X18758Y50739D01*
X18823Y50815D01*
X18891Y50889D01*
X18961Y50959D01*
X19035Y51027D01*
X19111Y51092D01*
X19189Y51155D01*
X19270Y51214D01*
X19353Y51270D01*
X19438Y51322D01*
X19525Y51372D01*
X19613Y51418D01*
X19704Y51461D01*
X19796Y51500D01*
X19889Y51535D01*
X19984Y51567D01*
X20080Y51596D01*
X20177Y51620D01*
X20275Y51641D01*
X20373Y51658D01*
X20473Y51672D01*
X20572Y51681D01*
X20672Y51687D01*
X20772Y51689D01*
X24948Y51689D01*
X25048Y51687D01*
X25148Y51681D01*
X25247Y51672D01*
X25347Y51658D01*
X25445Y51641D01*
X25543Y51620D01*
X25640Y51596D01*
X25736Y51567D01*
X25831Y51535D01*
X25924Y51500D01*
X26016Y51461D01*
X26107Y51418D01*
X26195Y51372D01*
X26282Y51322D01*
X26367Y51270D01*
X26450Y51214D01*
X26531Y51155D01*
X26609Y51092D01*
X26685Y51027D01*
X26759Y50959D01*
X26829Y50889D01*
X26897Y50815D01*
X26962Y50739D01*
X27025Y50661D01*
X27084Y50580D01*
X27140Y50497D01*
X27192Y50412D01*
X27242Y50325D01*
X27288Y50237D01*
X27331Y50146D01*
X27370Y50054D01*
X27405Y49961D01*
X27437Y49866D01*
X27466Y49770D01*
X27490Y49673D01*
X27511Y49575D01*
X27528Y49477D01*
X27542Y49377D01*
X27551Y49278D01*
X27557Y49178D01*
X27559Y49078D01*
X27559Y46468D01*
X50871Y15286D02*
X50960Y15284D01*
X51048Y15278D01*
X51136Y15269D01*
X51224Y15256D01*
X51311Y15239D01*
X51397Y15219D01*
X51482Y15194D01*
X51567Y15167D01*
X51650Y15135D01*
X51731Y15101D01*
X51811Y15062D01*
X51889Y15021D01*
X51966Y14976D01*
X52040Y14928D01*
X52113Y14877D01*
X52183Y14823D01*
X52250Y14765D01*
X52316Y14705D01*
X52378Y14643D01*
X52438Y14577D01*
X52496Y14510D01*
X52550Y14440D01*
X52601Y14367D01*
X52649Y14293D01*
X52694Y14216D01*
X52735Y14138D01*
X52774Y14058D01*
X52808Y13977D01*
X52840Y13894D01*
X52867Y13809D01*
X52892Y13724D01*
X52912Y13638D01*
X52929Y13551D01*
X52942Y13463D01*
X52951Y13375D01*
X52957Y13287D01*
X52959Y13198D01*
X52957Y13069D01*
X52951Y12940D01*
X52942Y12811D01*
X52929Y12683D01*
X52912Y12555D01*
X52891Y12428D01*
X52867Y12301D01*
X52839Y12175D01*
X52807Y12050D01*
X52772Y11926D01*
X52733Y11803D01*
X52690Y11681D01*
X52644Y11561D01*
X52594Y11442D01*
X52541Y11324D01*
X52485Y11208D01*
X52425Y11094D01*
X52362Y10981D01*
X52295Y10871D01*
X52226Y10762D01*
X52153Y10656D01*
X52077Y10551D01*
X51998Y10449D01*
X51916Y10350D01*
X51832Y10252D01*
X51744Y10157D01*
X51654Y10065D01*
X45649Y10327D02*
X45560Y10329D01*
X45472Y10335D01*
X45384Y10344D01*
X45296Y10357D01*
X45209Y10374D01*
X45123Y10394D01*
X45038Y10419D01*
X44953Y10446D01*
X44870Y10478D01*
X44789Y10512D01*
X44709Y10551D01*
X44631Y10592D01*
X44554Y10637D01*
X44480Y10685D01*
X44407Y10736D01*
X44337Y10790D01*
X44270Y10848D01*
X44204Y10908D01*
X44142Y10970D01*
X44082Y11036D01*
X44024Y11103D01*
X43970Y11173D01*
X43919Y11246D01*
X43871Y11320D01*
X43826Y11397D01*
X43785Y11475D01*
X43746Y11555D01*
X43712Y11636D01*
X43680Y11719D01*
X43653Y11804D01*
X43628Y11889D01*
X43608Y11975D01*
X43591Y12062D01*
X43578Y12150D01*
X43569Y12238D01*
X43563Y12326D01*
X43561Y12415D01*
X43563Y12535D01*
X43568Y12655D01*
X43578Y12774D01*
X43590Y12894D01*
X43607Y13013D01*
X43627Y13131D01*
X43651Y13249D01*
X43678Y13365D01*
X43709Y13481D01*
X43743Y13596D01*
X43781Y13710D01*
X43823Y13823D01*
X43868Y13934D01*
X43916Y14044D01*
X43967Y14152D01*
X44022Y14259D01*
X44080Y14364D01*
X44142Y14467D01*
X44206Y14568D01*
X44274Y14668D01*
X44344Y14765D01*
X47476Y11371D02*
X47428Y11293D01*
X47376Y11217D01*
X47322Y11144D01*
X47264Y11073D01*
X47203Y11004D01*
X47139Y10938D01*
X47072Y10875D01*
X47003Y10815D01*
X46931Y10758D01*
X46857Y10704D01*
X46780Y10654D01*
X46701Y10606D01*
X46621Y10563D01*
X46538Y10522D01*
X46454Y10486D01*
X46369Y10453D01*
X46282Y10424D01*
X46193Y10398D01*
X46104Y10376D01*
X46014Y10359D01*
X45924Y10345D01*
X45832Y10335D01*
X45741Y10329D01*
X45649Y10327D01*
X49044Y14243D02*
X49092Y14321D01*
X49144Y14397D01*
X49198Y14470D01*
X49256Y14541D01*
X49317Y14610D01*
X49381Y14676D01*
X49448Y14739D01*
X49517Y14799D01*
X49589Y14856D01*
X49663Y14910D01*
X49740Y14960D01*
X49819Y15008D01*
X49899Y15051D01*
X49982Y15092D01*
X50066Y15128D01*
X50151Y15161D01*
X50238Y15190D01*
X50327Y15216D01*
X50416Y15238D01*
X50506Y15255D01*
X50596Y15269D01*
X50688Y15279D01*
X50779Y15285D01*
X50871Y15287D01*
X49043Y14243D02*
X47477Y11371D01*
X43561Y18558D02*
X52959Y20646D01*
X46694Y22735D01*
X52959Y24823D01*
X43561Y26911D01*
X52959Y32550D02*
X52959Y34638D01*
X52959Y32550D02*
X52957Y32461D01*
X52951Y32373D01*
X52942Y32285D01*
X52929Y32197D01*
X52912Y32110D01*
X52892Y32024D01*
X52867Y31939D01*
X52840Y31854D01*
X52808Y31771D01*
X52774Y31690D01*
X52735Y31610D01*
X52694Y31532D01*
X52649Y31455D01*
X52601Y31381D01*
X52550Y31308D01*
X52496Y31238D01*
X52438Y31171D01*
X52378Y31105D01*
X52316Y31043D01*
X52250Y30983D01*
X52183Y30925D01*
X52113Y30871D01*
X52040Y30820D01*
X51966Y30772D01*
X51889Y30727D01*
X51811Y30686D01*
X51731Y30647D01*
X51650Y30613D01*
X51567Y30581D01*
X51482Y30554D01*
X51397Y30529D01*
X51311Y30509D01*
X51224Y30492D01*
X51136Y30479D01*
X51048Y30470D01*
X50960Y30464D01*
X50871Y30462D01*
X50871Y30461D02*
X45649Y30461D01*
X45558Y30463D01*
X45467Y30469D01*
X45376Y30479D01*
X45286Y30493D01*
X45197Y30511D01*
X45108Y30532D01*
X45021Y30558D01*
X44935Y30587D01*
X44850Y30620D01*
X44766Y30657D01*
X44684Y30697D01*
X44605Y30741D01*
X44527Y30788D01*
X44451Y30839D01*
X44377Y30893D01*
X44306Y30950D01*
X44238Y31010D01*
X44172Y31073D01*
X44109Y31139D01*
X44049Y31207D01*
X43992Y31278D01*
X43938Y31352D01*
X43887Y31428D01*
X43840Y31505D01*
X43796Y31585D01*
X43756Y31667D01*
X43719Y31751D01*
X43686Y31835D01*
X43657Y31922D01*
X43631Y32009D01*
X43610Y32098D01*
X43592Y32187D01*
X43578Y32277D01*
X43568Y32368D01*
X43562Y32459D01*
X43560Y32550D01*
X43561Y32550D02*
X43561Y34638D01*
X43561Y38429D02*
X52959Y38429D01*
X52959Y42606D01*
X52959Y46468D02*
X43561Y46468D01*
X43561Y51689D02*
X49304Y46468D01*
X47216Y48556D02*
X52959Y51689D01*
X76271Y16027D02*
X76360Y16025D01*
X76448Y16019D01*
X76536Y16010D01*
X76624Y15997D01*
X76711Y15980D01*
X76797Y15960D01*
X76882Y15935D01*
X76967Y15908D01*
X77050Y15876D01*
X77131Y15842D01*
X77211Y15803D01*
X77289Y15762D01*
X77366Y15717D01*
X77440Y15669D01*
X77513Y15618D01*
X77583Y15564D01*
X77650Y15506D01*
X77716Y15446D01*
X77778Y15384D01*
X77838Y15318D01*
X77896Y15251D01*
X77950Y15181D01*
X78001Y15108D01*
X78049Y15034D01*
X78094Y14957D01*
X78135Y14879D01*
X78174Y14799D01*
X78208Y14718D01*
X78240Y14635D01*
X78267Y14550D01*
X78292Y14465D01*
X78312Y14379D01*
X78329Y14292D01*
X78342Y14204D01*
X78351Y14116D01*
X78357Y14028D01*
X78359Y13939D01*
X78357Y13810D01*
X78351Y13681D01*
X78342Y13552D01*
X78329Y13424D01*
X78312Y13296D01*
X78291Y13169D01*
X78267Y13042D01*
X78239Y12916D01*
X78207Y12791D01*
X78172Y12667D01*
X78133Y12544D01*
X78090Y12422D01*
X78044Y12302D01*
X77994Y12183D01*
X77941Y12065D01*
X77885Y11949D01*
X77825Y11835D01*
X77762Y11722D01*
X77695Y11612D01*
X77626Y11503D01*
X77553Y11397D01*
X77477Y11292D01*
X77398Y11190D01*
X77316Y11091D01*
X77232Y10993D01*
X77144Y10898D01*
X77054Y10806D01*
X71049Y11068D02*
X70960Y11070D01*
X70872Y11076D01*
X70784Y11085D01*
X70696Y11098D01*
X70609Y11115D01*
X70523Y11135D01*
X70438Y11160D01*
X70353Y11187D01*
X70270Y11219D01*
X70189Y11253D01*
X70109Y11292D01*
X70031Y11333D01*
X69954Y11378D01*
X69880Y11426D01*
X69807Y11477D01*
X69737Y11531D01*
X69670Y11589D01*
X69604Y11649D01*
X69542Y11711D01*
X69482Y11777D01*
X69424Y11844D01*
X69370Y11914D01*
X69319Y11987D01*
X69271Y12061D01*
X69226Y12138D01*
X69185Y12216D01*
X69146Y12296D01*
X69112Y12377D01*
X69080Y12460D01*
X69053Y12545D01*
X69028Y12630D01*
X69008Y12716D01*
X68991Y12803D01*
X68978Y12891D01*
X68969Y12979D01*
X68963Y13067D01*
X68961Y13156D01*
X68963Y13276D01*
X68968Y13396D01*
X68978Y13515D01*
X68990Y13635D01*
X69007Y13754D01*
X69027Y13872D01*
X69051Y13990D01*
X69078Y14106D01*
X69109Y14222D01*
X69143Y14337D01*
X69181Y14451D01*
X69223Y14564D01*
X69268Y14675D01*
X69316Y14785D01*
X69367Y14893D01*
X69422Y15000D01*
X69480Y15105D01*
X69542Y15208D01*
X69606Y15309D01*
X69674Y15409D01*
X69744Y15506D01*
X72876Y12111D02*
X72828Y12033D01*
X72776Y11957D01*
X72722Y11884D01*
X72664Y11813D01*
X72603Y11744D01*
X72539Y11678D01*
X72472Y11615D01*
X72403Y11555D01*
X72331Y11498D01*
X72257Y11444D01*
X72180Y11394D01*
X72101Y11346D01*
X72021Y11303D01*
X71938Y11262D01*
X71854Y11226D01*
X71769Y11193D01*
X71682Y11164D01*
X71593Y11138D01*
X71504Y11116D01*
X71414Y11099D01*
X71324Y11085D01*
X71232Y11075D01*
X71141Y11069D01*
X71049Y11067D01*
X74444Y14983D02*
X74492Y15061D01*
X74544Y15137D01*
X74598Y15210D01*
X74656Y15281D01*
X74717Y15350D01*
X74781Y15416D01*
X74848Y15479D01*
X74917Y15539D01*
X74989Y15596D01*
X75063Y15650D01*
X75140Y15700D01*
X75219Y15748D01*
X75299Y15791D01*
X75382Y15832D01*
X75466Y15868D01*
X75551Y15901D01*
X75638Y15930D01*
X75727Y15956D01*
X75816Y15978D01*
X75906Y15995D01*
X75996Y16009D01*
X76088Y16019D01*
X76179Y16025D01*
X76271Y16027D01*
X74443Y14983D02*
X72877Y12112D01*
X68961Y19298D02*
X78359Y21387D01*
X72094Y23475D01*
X78359Y25564D01*
X68961Y27652D01*
X68961Y31533D02*
X78359Y31533D01*
X68961Y31533D02*
X68961Y34143D01*
X68963Y34243D01*
X68969Y34343D01*
X68978Y34442D01*
X68992Y34542D01*
X69009Y34640D01*
X69030Y34738D01*
X69054Y34835D01*
X69083Y34931D01*
X69115Y35026D01*
X69150Y35119D01*
X69189Y35211D01*
X69232Y35302D01*
X69278Y35390D01*
X69328Y35477D01*
X69380Y35562D01*
X69436Y35645D01*
X69495Y35726D01*
X69558Y35804D01*
X69623Y35880D01*
X69691Y35954D01*
X69761Y36024D01*
X69835Y36092D01*
X69911Y36157D01*
X69989Y36220D01*
X70070Y36279D01*
X70153Y36335D01*
X70238Y36387D01*
X70325Y36437D01*
X70413Y36483D01*
X70504Y36526D01*
X70596Y36565D01*
X70689Y36600D01*
X70784Y36632D01*
X70880Y36661D01*
X70977Y36685D01*
X71075Y36706D01*
X71173Y36723D01*
X71273Y36737D01*
X71372Y36746D01*
X71472Y36752D01*
X71572Y36754D01*
X75748Y36754D01*
X75848Y36752D01*
X75948Y36746D01*
X76047Y36737D01*
X76147Y36723D01*
X76245Y36706D01*
X76343Y36685D01*
X76440Y36661D01*
X76536Y36632D01*
X76631Y36600D01*
X76724Y36565D01*
X76816Y36526D01*
X76907Y36483D01*
X76995Y36437D01*
X77082Y36387D01*
X77167Y36335D01*
X77250Y36279D01*
X77331Y36220D01*
X77409Y36157D01*
X77485Y36092D01*
X77559Y36024D01*
X77629Y35954D01*
X77697Y35880D01*
X77762Y35804D01*
X77825Y35726D01*
X77884Y35645D01*
X77940Y35562D01*
X77992Y35477D01*
X78042Y35390D01*
X78088Y35302D01*
X78131Y35211D01*
X78170Y35119D01*
X78205Y35026D01*
X78237Y34931D01*
X78266Y34835D01*
X78290Y34738D01*
X78311Y34640D01*
X78328Y34542D01*
X78342Y34442D01*
X78351Y34343D01*
X78357Y34243D01*
X78359Y34143D01*
X78359Y31533D01*
X78359Y41763D02*
X68961Y41763D01*
X78359Y40719D02*
X78359Y42808D01*
X68961Y42808D02*
X68961Y40719D01*
X71572Y46468D02*
X75748Y46468D01*
X71572Y46467D02*
X71471Y46469D01*
X71370Y46475D01*
X71269Y46485D01*
X71169Y46498D01*
X71069Y46516D01*
X70970Y46537D01*
X70872Y46563D01*
X70775Y46592D01*
X70679Y46624D01*
X70585Y46661D01*
X70492Y46701D01*
X70400Y46745D01*
X70311Y46792D01*
X70223Y46843D01*
X70137Y46897D01*
X70054Y46954D01*
X69972Y47014D01*
X69894Y47078D01*
X69817Y47144D01*
X69744Y47214D01*
X69673Y47286D01*
X69605Y47361D01*
X69540Y47439D01*
X69478Y47519D01*
X69419Y47601D01*
X69363Y47686D01*
X69311Y47773D01*
X69262Y47861D01*
X69216Y47952D01*
X69175Y48044D01*
X69136Y48138D01*
X69102Y48233D01*
X69071Y48329D01*
X69044Y48427D01*
X69020Y48525D01*
X69001Y48625D01*
X68985Y48725D01*
X68973Y48825D01*
X68965Y48926D01*
X68961Y49027D01*
X68961Y49129D01*
X68965Y49230D01*
X68973Y49331D01*
X68985Y49431D01*
X69001Y49531D01*
X69020Y49631D01*
X69044Y49729D01*
X69071Y49827D01*
X69102Y49923D01*
X69136Y50018D01*
X69175Y50112D01*
X69216Y50204D01*
X69262Y50295D01*
X69311Y50384D01*
X69363Y50470D01*
X69419Y50555D01*
X69478Y50637D01*
X69540Y50717D01*
X69605Y50795D01*
X69673Y50870D01*
X69744Y50942D01*
X69817Y51012D01*
X69894Y51078D01*
X69972Y51142D01*
X70054Y51202D01*
X70137Y51259D01*
X70223Y51313D01*
X70311Y51364D01*
X70400Y51411D01*
X70492Y51455D01*
X70585Y51495D01*
X70679Y51532D01*
X70775Y51564D01*
X70872Y51593D01*
X70970Y51619D01*
X71069Y51640D01*
X71169Y51658D01*
X71269Y51671D01*
X71370Y51681D01*
X71471Y51687D01*
X71572Y51689D01*
X75748Y51689D01*
X75849Y51687D01*
X75950Y51681D01*
X76051Y51671D01*
X76151Y51658D01*
X76251Y51640D01*
X76350Y51619D01*
X76448Y51593D01*
X76545Y51564D01*
X76641Y51532D01*
X76735Y51495D01*
X76828Y51455D01*
X76920Y51411D01*
X77009Y51364D01*
X77097Y51313D01*
X77183Y51259D01*
X77266Y51202D01*
X77348Y51142D01*
X77426Y51078D01*
X77503Y51012D01*
X77576Y50942D01*
X77647Y50870D01*
X77715Y50795D01*
X77780Y50717D01*
X77842Y50637D01*
X77901Y50555D01*
X77957Y50470D01*
X78009Y50383D01*
X78058Y50295D01*
X78104Y50204D01*
X78145Y50112D01*
X78184Y50018D01*
X78218Y49923D01*
X78249Y49827D01*
X78276Y49729D01*
X78300Y49631D01*
X78319Y49531D01*
X78335Y49431D01*
X78347Y49331D01*
X78355Y49230D01*
X78359Y49129D01*
X78359Y49027D01*
X78355Y48926D01*
X78347Y48825D01*
X78335Y48725D01*
X78319Y48625D01*
X78300Y48525D01*
X78276Y48427D01*
X78249Y48329D01*
X78218Y48233D01*
X78184Y48138D01*
X78145Y48044D01*
X78104Y47952D01*
X78058Y47861D01*
X78009Y47772D01*
X77957Y47686D01*
X77901Y47601D01*
X77842Y47519D01*
X77780Y47439D01*
X77715Y47361D01*
X77647Y47286D01*
X77576Y47214D01*
X77503Y47144D01*
X77426Y47078D01*
X77348Y47014D01*
X77266Y46954D01*
X77183Y46897D01*
X77097Y46843D01*
X77009Y46792D01*
X76920Y46745D01*
X76828Y46701D01*
X76735Y46661D01*
X76641Y46624D01*
X76545Y46592D01*
X76448Y46563D01*
X76350Y46537D01*
X76251Y46516D01*
X76151Y46498D01*
X76051Y46485D01*
X75950Y46475D01*
X75849Y46469D01*
X75748Y46467D01*
X94361Y19646D02*
X103759Y19646D01*
X103759Y24867D02*
X94361Y19646D01*
X94361Y24867D02*
X103759Y24867D01*
X103759Y29456D02*
X94361Y29456D01*
X94361Y32067D01*
X94363Y32168D01*
X94369Y32269D01*
X94379Y32370D01*
X94392Y32470D01*
X94410Y32570D01*
X94431Y32669D01*
X94457Y32767D01*
X94486Y32864D01*
X94518Y32960D01*
X94555Y33054D01*
X94595Y33147D01*
X94639Y33239D01*
X94686Y33328D01*
X94737Y33416D01*
X94791Y33502D01*
X94848Y33585D01*
X94908Y33667D01*
X94972Y33745D01*
X95038Y33822D01*
X95108Y33895D01*
X95180Y33966D01*
X95255Y34034D01*
X95333Y34099D01*
X95413Y34161D01*
X95495Y34220D01*
X95580Y34276D01*
X95667Y34328D01*
X95755Y34377D01*
X95846Y34423D01*
X95938Y34464D01*
X96032Y34503D01*
X96127Y34537D01*
X96223Y34568D01*
X96321Y34595D01*
X96419Y34619D01*
X96519Y34638D01*
X96619Y34654D01*
X96719Y34666D01*
X96820Y34674D01*
X96921Y34678D01*
X97023Y34678D01*
X97124Y34674D01*
X97225Y34666D01*
X97325Y34654D01*
X97425Y34638D01*
X97525Y34619D01*
X97623Y34595D01*
X97721Y34568D01*
X97817Y34537D01*
X97912Y34503D01*
X98006Y34464D01*
X98098Y34423D01*
X98189Y34377D01*
X98278Y34328D01*
X98364Y34276D01*
X98449Y34220D01*
X98531Y34161D01*
X98611Y34099D01*
X98689Y34034D01*
X98764Y33966D01*
X98836Y33895D01*
X98906Y33822D01*
X98972Y33745D01*
X99036Y33667D01*
X99096Y33585D01*
X99153Y33502D01*
X99207Y33416D01*
X99258Y33328D01*
X99305Y33239D01*
X99349Y33147D01*
X99389Y33054D01*
X99426Y32960D01*
X99458Y32864D01*
X99487Y32767D01*
X99513Y32669D01*
X99534Y32570D01*
X99552Y32470D01*
X99565Y32370D01*
X99575Y32269D01*
X99581Y32168D01*
X99583Y32067D01*
X99582Y32067D02*
X99582Y29456D01*
X99582Y32589D02*
X103759Y34677D01*
X103759Y41371D02*
X103757Y41460D01*
X103751Y41548D01*
X103742Y41636D01*
X103729Y41724D01*
X103712Y41811D01*
X103692Y41897D01*
X103667Y41982D01*
X103640Y42067D01*
X103608Y42150D01*
X103574Y42231D01*
X103535Y42311D01*
X103494Y42389D01*
X103449Y42466D01*
X103401Y42540D01*
X103350Y42613D01*
X103296Y42683D01*
X103238Y42750D01*
X103178Y42816D01*
X103116Y42878D01*
X103050Y42938D01*
X102983Y42996D01*
X102913Y43050D01*
X102840Y43101D01*
X102766Y43149D01*
X102689Y43194D01*
X102611Y43235D01*
X102531Y43274D01*
X102450Y43308D01*
X102367Y43340D01*
X102282Y43367D01*
X102197Y43392D01*
X102111Y43412D01*
X102024Y43429D01*
X101936Y43442D01*
X101848Y43451D01*
X101760Y43457D01*
X101671Y43459D01*
X103759Y41371D02*
X103757Y41242D01*
X103751Y41113D01*
X103742Y40984D01*
X103729Y40856D01*
X103712Y40728D01*
X103691Y40601D01*
X103667Y40474D01*
X103639Y40348D01*
X103607Y40223D01*
X103572Y40099D01*
X103533Y39976D01*
X103490Y39854D01*
X103444Y39734D01*
X103394Y39615D01*
X103341Y39497D01*
X103285Y39381D01*
X103225Y39267D01*
X103162Y39154D01*
X103095Y39044D01*
X103026Y38935D01*
X102953Y38829D01*
X102877Y38724D01*
X102798Y38622D01*
X102716Y38523D01*
X102632Y38425D01*
X102544Y38330D01*
X102454Y38238D01*
X96449Y38500D02*
X96360Y38502D01*
X96272Y38508D01*
X96184Y38517D01*
X96096Y38530D01*
X96009Y38547D01*
X95923Y38567D01*
X95838Y38592D01*
X95753Y38619D01*
X95670Y38651D01*
X95589Y38685D01*
X95509Y38724D01*
X95431Y38765D01*
X95354Y38810D01*
X95280Y38858D01*
X95207Y38909D01*
X95137Y38963D01*
X95070Y39021D01*
X95004Y39081D01*
X94942Y39143D01*
X94882Y39209D01*
X94824Y39276D01*
X94770Y39346D01*
X94719Y39419D01*
X94671Y39493D01*
X94626Y39570D01*
X94585Y39648D01*
X94546Y39728D01*
X94512Y39809D01*
X94480Y39892D01*
X94453Y39977D01*
X94428Y40062D01*
X94408Y40148D01*
X94391Y40235D01*
X94378Y40323D01*
X94369Y40411D01*
X94363Y40499D01*
X94361Y40588D01*
X94363Y40708D01*
X94368Y40828D01*
X94378Y40947D01*
X94390Y41067D01*
X94407Y41186D01*
X94427Y41304D01*
X94451Y41422D01*
X94478Y41538D01*
X94509Y41654D01*
X94543Y41769D01*
X94581Y41883D01*
X94623Y41996D01*
X94668Y42107D01*
X94716Y42217D01*
X94767Y42325D01*
X94822Y42432D01*
X94880Y42537D01*
X94942Y42640D01*
X95006Y42741D01*
X95074Y42841D01*
X95144Y42938D01*
X98276Y39543D02*
X98228Y39465D01*
X98176Y39389D01*
X98122Y39316D01*
X98064Y39245D01*
X98003Y39176D01*
X97939Y39110D01*
X97872Y39047D01*
X97803Y38987D01*
X97731Y38930D01*
X97657Y38876D01*
X97580Y38826D01*
X97501Y38778D01*
X97421Y38735D01*
X97338Y38694D01*
X97254Y38658D01*
X97169Y38625D01*
X97082Y38596D01*
X96993Y38570D01*
X96904Y38548D01*
X96814Y38531D01*
X96724Y38517D01*
X96632Y38507D01*
X96541Y38501D01*
X96449Y38499D01*
X99844Y42415D02*
X99892Y42493D01*
X99944Y42569D01*
X99998Y42642D01*
X100056Y42713D01*
X100117Y42782D01*
X100181Y42848D01*
X100248Y42911D01*
X100317Y42971D01*
X100389Y43028D01*
X100463Y43082D01*
X100540Y43132D01*
X100619Y43180D01*
X100699Y43223D01*
X100782Y43264D01*
X100866Y43300D01*
X100951Y43333D01*
X101038Y43362D01*
X101127Y43388D01*
X101216Y43410D01*
X101306Y43427D01*
X101396Y43441D01*
X101488Y43451D01*
X101579Y43457D01*
X101671Y43459D01*
X99843Y42415D02*
X98277Y39544D01*
X94361Y49078D02*
X103759Y49078D01*
X94361Y46468D02*
X94361Y51689D01*
M02*
