G04 EAGLE Gerber RS-274X export*
G75*
%MOMM*%
%FSLAX34Y34*%
%LPD*%
%INSlot drills/holes*%
%IPPOS*%
%AMOC8*
5,1,8,0,0,1.08239X$1,22.5*%
G01*
%ADD10C,0.000000*%


D10*
X154000Y400000D02*
X0Y400000D01*
X0Y0D01*
X154000Y0D01*
X154000Y400000D01*
X141500Y33350D02*
X141498Y33503D01*
X141492Y33656D01*
X141482Y33809D01*
X141469Y33962D01*
X141451Y34114D01*
X141430Y34266D01*
X141404Y34417D01*
X141375Y34567D01*
X141342Y34717D01*
X141305Y34866D01*
X141265Y35014D01*
X141220Y35160D01*
X141172Y35306D01*
X141120Y35450D01*
X141065Y35593D01*
X141006Y35734D01*
X140943Y35874D01*
X140877Y36012D01*
X140807Y36149D01*
X140734Y36283D01*
X140657Y36416D01*
X140577Y36547D01*
X140494Y36675D01*
X140408Y36802D01*
X140318Y36926D01*
X140225Y37048D01*
X140129Y37167D01*
X140030Y37284D01*
X139928Y37399D01*
X139823Y37511D01*
X139715Y37620D01*
X139605Y37726D01*
X139492Y37829D01*
X139376Y37930D01*
X139258Y38027D01*
X139137Y38122D01*
X139014Y38213D01*
X138889Y38301D01*
X138761Y38386D01*
X138632Y38468D01*
X138500Y38546D01*
X138366Y38621D01*
X138231Y38693D01*
X138093Y38761D01*
X137954Y38825D01*
X137814Y38886D01*
X137672Y38943D01*
X137528Y38997D01*
X137383Y39047D01*
X137237Y39093D01*
X137090Y39136D01*
X136942Y39174D01*
X136792Y39209D01*
X136642Y39240D01*
X136492Y39268D01*
X136340Y39291D01*
X136188Y39310D01*
X136036Y39326D01*
X135883Y39338D01*
X135730Y39346D01*
X135577Y39350D01*
X135423Y39350D01*
X135270Y39346D01*
X135117Y39338D01*
X134964Y39326D01*
X134812Y39310D01*
X134660Y39291D01*
X134508Y39268D01*
X134358Y39240D01*
X134208Y39209D01*
X134058Y39174D01*
X133910Y39136D01*
X133763Y39093D01*
X133617Y39047D01*
X133472Y38997D01*
X133328Y38943D01*
X133186Y38886D01*
X133046Y38825D01*
X132907Y38761D01*
X132769Y38693D01*
X132634Y38621D01*
X132500Y38546D01*
X132368Y38468D01*
X132239Y38386D01*
X132111Y38301D01*
X131986Y38213D01*
X131863Y38122D01*
X131742Y38027D01*
X131624Y37930D01*
X131508Y37829D01*
X131395Y37726D01*
X131285Y37620D01*
X131177Y37511D01*
X131072Y37399D01*
X130970Y37284D01*
X130871Y37167D01*
X130775Y37048D01*
X130682Y36926D01*
X130592Y36802D01*
X130506Y36675D01*
X130423Y36547D01*
X130343Y36416D01*
X130266Y36283D01*
X130193Y36149D01*
X130123Y36012D01*
X130057Y35874D01*
X129994Y35734D01*
X129935Y35593D01*
X129880Y35450D01*
X129828Y35306D01*
X129780Y35160D01*
X129735Y35014D01*
X129695Y34866D01*
X129658Y34717D01*
X129625Y34567D01*
X129596Y34417D01*
X129570Y34266D01*
X129549Y34114D01*
X129531Y33962D01*
X129518Y33809D01*
X129508Y33656D01*
X129502Y33503D01*
X129500Y33350D01*
X141500Y33350D02*
X141500Y20350D01*
X141498Y20197D01*
X141492Y20044D01*
X141482Y19891D01*
X141469Y19738D01*
X141451Y19586D01*
X141430Y19434D01*
X141404Y19283D01*
X141375Y19133D01*
X141342Y18983D01*
X141305Y18834D01*
X141265Y18686D01*
X141220Y18540D01*
X141172Y18394D01*
X141120Y18250D01*
X141065Y18107D01*
X141006Y17966D01*
X140943Y17826D01*
X140877Y17688D01*
X140807Y17551D01*
X140734Y17417D01*
X140657Y17284D01*
X140577Y17153D01*
X140494Y17025D01*
X140408Y16898D01*
X140318Y16774D01*
X140225Y16652D01*
X140129Y16533D01*
X140030Y16416D01*
X139928Y16301D01*
X139823Y16189D01*
X139715Y16080D01*
X139605Y15974D01*
X139492Y15871D01*
X139376Y15770D01*
X139258Y15673D01*
X139137Y15578D01*
X139014Y15487D01*
X138889Y15399D01*
X138761Y15314D01*
X138632Y15232D01*
X138500Y15154D01*
X138366Y15079D01*
X138231Y15007D01*
X138093Y14939D01*
X137954Y14875D01*
X137814Y14814D01*
X137672Y14757D01*
X137528Y14703D01*
X137383Y14653D01*
X137237Y14607D01*
X137090Y14564D01*
X136942Y14526D01*
X136792Y14491D01*
X136642Y14460D01*
X136492Y14432D01*
X136340Y14409D01*
X136188Y14390D01*
X136036Y14374D01*
X135883Y14362D01*
X135730Y14354D01*
X135577Y14350D01*
X135423Y14350D01*
X135270Y14354D01*
X135117Y14362D01*
X134964Y14374D01*
X134812Y14390D01*
X134660Y14409D01*
X134508Y14432D01*
X134358Y14460D01*
X134208Y14491D01*
X134058Y14526D01*
X133910Y14564D01*
X133763Y14607D01*
X133617Y14653D01*
X133472Y14703D01*
X133328Y14757D01*
X133186Y14814D01*
X133046Y14875D01*
X132907Y14939D01*
X132769Y15007D01*
X132634Y15079D01*
X132500Y15154D01*
X132368Y15232D01*
X132239Y15314D01*
X132111Y15399D01*
X131986Y15487D01*
X131863Y15578D01*
X131742Y15673D01*
X131624Y15770D01*
X131508Y15871D01*
X131395Y15974D01*
X131285Y16080D01*
X131177Y16189D01*
X131072Y16301D01*
X130970Y16416D01*
X130871Y16533D01*
X130775Y16652D01*
X130682Y16774D01*
X130592Y16898D01*
X130506Y17025D01*
X130423Y17153D01*
X130343Y17284D01*
X130266Y17417D01*
X130193Y17551D01*
X130123Y17688D01*
X130057Y17826D01*
X129994Y17966D01*
X129935Y18107D01*
X129880Y18250D01*
X129828Y18394D01*
X129780Y18540D01*
X129735Y18686D01*
X129695Y18834D01*
X129658Y18983D01*
X129625Y19133D01*
X129596Y19283D01*
X129570Y19434D01*
X129549Y19586D01*
X129531Y19738D01*
X129518Y19891D01*
X129508Y20044D01*
X129502Y20197D01*
X129500Y20350D01*
X129500Y33350D01*
X24500Y33350D02*
X24498Y33503D01*
X24492Y33656D01*
X24482Y33809D01*
X24469Y33962D01*
X24451Y34114D01*
X24430Y34266D01*
X24404Y34417D01*
X24375Y34567D01*
X24342Y34717D01*
X24305Y34866D01*
X24265Y35014D01*
X24220Y35160D01*
X24172Y35306D01*
X24120Y35450D01*
X24065Y35593D01*
X24006Y35734D01*
X23943Y35874D01*
X23877Y36012D01*
X23807Y36149D01*
X23734Y36283D01*
X23657Y36416D01*
X23577Y36547D01*
X23494Y36675D01*
X23408Y36802D01*
X23318Y36926D01*
X23225Y37048D01*
X23129Y37167D01*
X23030Y37284D01*
X22928Y37399D01*
X22823Y37511D01*
X22715Y37620D01*
X22605Y37726D01*
X22492Y37829D01*
X22376Y37930D01*
X22258Y38027D01*
X22137Y38122D01*
X22014Y38213D01*
X21889Y38301D01*
X21761Y38386D01*
X21632Y38468D01*
X21500Y38546D01*
X21366Y38621D01*
X21231Y38693D01*
X21093Y38761D01*
X20954Y38825D01*
X20814Y38886D01*
X20672Y38943D01*
X20528Y38997D01*
X20383Y39047D01*
X20237Y39093D01*
X20090Y39136D01*
X19942Y39174D01*
X19792Y39209D01*
X19642Y39240D01*
X19492Y39268D01*
X19340Y39291D01*
X19188Y39310D01*
X19036Y39326D01*
X18883Y39338D01*
X18730Y39346D01*
X18577Y39350D01*
X18423Y39350D01*
X18270Y39346D01*
X18117Y39338D01*
X17964Y39326D01*
X17812Y39310D01*
X17660Y39291D01*
X17508Y39268D01*
X17358Y39240D01*
X17208Y39209D01*
X17058Y39174D01*
X16910Y39136D01*
X16763Y39093D01*
X16617Y39047D01*
X16472Y38997D01*
X16328Y38943D01*
X16186Y38886D01*
X16046Y38825D01*
X15907Y38761D01*
X15769Y38693D01*
X15634Y38621D01*
X15500Y38546D01*
X15368Y38468D01*
X15239Y38386D01*
X15111Y38301D01*
X14986Y38213D01*
X14863Y38122D01*
X14742Y38027D01*
X14624Y37930D01*
X14508Y37829D01*
X14395Y37726D01*
X14285Y37620D01*
X14177Y37511D01*
X14072Y37399D01*
X13970Y37284D01*
X13871Y37167D01*
X13775Y37048D01*
X13682Y36926D01*
X13592Y36802D01*
X13506Y36675D01*
X13423Y36547D01*
X13343Y36416D01*
X13266Y36283D01*
X13193Y36149D01*
X13123Y36012D01*
X13057Y35874D01*
X12994Y35734D01*
X12935Y35593D01*
X12880Y35450D01*
X12828Y35306D01*
X12780Y35160D01*
X12735Y35014D01*
X12695Y34866D01*
X12658Y34717D01*
X12625Y34567D01*
X12596Y34417D01*
X12570Y34266D01*
X12549Y34114D01*
X12531Y33962D01*
X12518Y33809D01*
X12508Y33656D01*
X12502Y33503D01*
X12500Y33350D01*
X24500Y33350D02*
X24500Y20350D01*
X24498Y20197D01*
X24492Y20044D01*
X24482Y19891D01*
X24469Y19738D01*
X24451Y19586D01*
X24430Y19434D01*
X24404Y19283D01*
X24375Y19133D01*
X24342Y18983D01*
X24305Y18834D01*
X24265Y18686D01*
X24220Y18540D01*
X24172Y18394D01*
X24120Y18250D01*
X24065Y18107D01*
X24006Y17966D01*
X23943Y17826D01*
X23877Y17688D01*
X23807Y17551D01*
X23734Y17417D01*
X23657Y17284D01*
X23577Y17153D01*
X23494Y17025D01*
X23408Y16898D01*
X23318Y16774D01*
X23225Y16652D01*
X23129Y16533D01*
X23030Y16416D01*
X22928Y16301D01*
X22823Y16189D01*
X22715Y16080D01*
X22605Y15974D01*
X22492Y15871D01*
X22376Y15770D01*
X22258Y15673D01*
X22137Y15578D01*
X22014Y15487D01*
X21889Y15399D01*
X21761Y15314D01*
X21632Y15232D01*
X21500Y15154D01*
X21366Y15079D01*
X21231Y15007D01*
X21093Y14939D01*
X20954Y14875D01*
X20814Y14814D01*
X20672Y14757D01*
X20528Y14703D01*
X20383Y14653D01*
X20237Y14607D01*
X20090Y14564D01*
X19942Y14526D01*
X19792Y14491D01*
X19642Y14460D01*
X19492Y14432D01*
X19340Y14409D01*
X19188Y14390D01*
X19036Y14374D01*
X18883Y14362D01*
X18730Y14354D01*
X18577Y14350D01*
X18423Y14350D01*
X18270Y14354D01*
X18117Y14362D01*
X17964Y14374D01*
X17812Y14390D01*
X17660Y14409D01*
X17508Y14432D01*
X17358Y14460D01*
X17208Y14491D01*
X17058Y14526D01*
X16910Y14564D01*
X16763Y14607D01*
X16617Y14653D01*
X16472Y14703D01*
X16328Y14757D01*
X16186Y14814D01*
X16046Y14875D01*
X15907Y14939D01*
X15769Y15007D01*
X15634Y15079D01*
X15500Y15154D01*
X15368Y15232D01*
X15239Y15314D01*
X15111Y15399D01*
X14986Y15487D01*
X14863Y15578D01*
X14742Y15673D01*
X14624Y15770D01*
X14508Y15871D01*
X14395Y15974D01*
X14285Y16080D01*
X14177Y16189D01*
X14072Y16301D01*
X13970Y16416D01*
X13871Y16533D01*
X13775Y16652D01*
X13682Y16774D01*
X13592Y16898D01*
X13506Y17025D01*
X13423Y17153D01*
X13343Y17284D01*
X13266Y17417D01*
X13193Y17551D01*
X13123Y17688D01*
X13057Y17826D01*
X12994Y17966D01*
X12935Y18107D01*
X12880Y18250D01*
X12828Y18394D01*
X12780Y18540D01*
X12735Y18686D01*
X12695Y18834D01*
X12658Y18983D01*
X12625Y19133D01*
X12596Y19283D01*
X12570Y19434D01*
X12549Y19586D01*
X12531Y19738D01*
X12518Y19891D01*
X12508Y20044D01*
X12502Y20197D01*
X12500Y20350D01*
X12500Y33350D01*
X141500Y33350D02*
X141500Y20350D01*
X129500Y20350D02*
X129500Y33350D01*
X129502Y33503D01*
X129508Y33656D01*
X129518Y33809D01*
X129531Y33962D01*
X129549Y34114D01*
X129570Y34266D01*
X129596Y34417D01*
X129625Y34567D01*
X129658Y34717D01*
X129695Y34866D01*
X129735Y35014D01*
X129780Y35160D01*
X129828Y35306D01*
X129880Y35450D01*
X129935Y35593D01*
X129994Y35734D01*
X130057Y35874D01*
X130123Y36012D01*
X130193Y36149D01*
X130266Y36283D01*
X130343Y36416D01*
X130423Y36547D01*
X130506Y36675D01*
X130592Y36802D01*
X130682Y36926D01*
X130775Y37048D01*
X130871Y37167D01*
X130970Y37284D01*
X131072Y37399D01*
X131177Y37511D01*
X131285Y37620D01*
X131395Y37726D01*
X131508Y37829D01*
X131624Y37930D01*
X131742Y38027D01*
X131863Y38122D01*
X131986Y38213D01*
X132111Y38301D01*
X132239Y38386D01*
X132368Y38468D01*
X132500Y38546D01*
X132634Y38621D01*
X132769Y38693D01*
X132907Y38761D01*
X133046Y38825D01*
X133186Y38886D01*
X133328Y38943D01*
X133472Y38997D01*
X133617Y39047D01*
X133763Y39093D01*
X133910Y39136D01*
X134058Y39174D01*
X134208Y39209D01*
X134358Y39240D01*
X134508Y39268D01*
X134660Y39291D01*
X134812Y39310D01*
X134964Y39326D01*
X135117Y39338D01*
X135270Y39346D01*
X135423Y39350D01*
X135577Y39350D01*
X135730Y39346D01*
X135883Y39338D01*
X136036Y39326D01*
X136188Y39310D01*
X136340Y39291D01*
X136492Y39268D01*
X136642Y39240D01*
X136792Y39209D01*
X136942Y39174D01*
X137090Y39136D01*
X137237Y39093D01*
X137383Y39047D01*
X137528Y38997D01*
X137672Y38943D01*
X137814Y38886D01*
X137954Y38825D01*
X138093Y38761D01*
X138231Y38693D01*
X138366Y38621D01*
X138500Y38546D01*
X138632Y38468D01*
X138761Y38386D01*
X138889Y38301D01*
X139014Y38213D01*
X139137Y38122D01*
X139258Y38027D01*
X139376Y37930D01*
X139492Y37829D01*
X139605Y37726D01*
X139715Y37620D01*
X139823Y37511D01*
X139928Y37399D01*
X140030Y37284D01*
X140129Y37167D01*
X140225Y37048D01*
X140318Y36926D01*
X140408Y36802D01*
X140494Y36675D01*
X140577Y36547D01*
X140657Y36416D01*
X140734Y36283D01*
X140807Y36149D01*
X140877Y36012D01*
X140943Y35874D01*
X141006Y35734D01*
X141065Y35593D01*
X141120Y35450D01*
X141172Y35306D01*
X141220Y35160D01*
X141265Y35014D01*
X141305Y34866D01*
X141342Y34717D01*
X141375Y34567D01*
X141404Y34417D01*
X141430Y34266D01*
X141451Y34114D01*
X141469Y33962D01*
X141482Y33809D01*
X141492Y33656D01*
X141498Y33503D01*
X141500Y33350D01*
X141500Y20350D02*
X141498Y20197D01*
X141492Y20044D01*
X141482Y19891D01*
X141469Y19738D01*
X141451Y19586D01*
X141430Y19434D01*
X141404Y19283D01*
X141375Y19133D01*
X141342Y18983D01*
X141305Y18834D01*
X141265Y18686D01*
X141220Y18540D01*
X141172Y18394D01*
X141120Y18250D01*
X141065Y18107D01*
X141006Y17966D01*
X140943Y17826D01*
X140877Y17688D01*
X140807Y17551D01*
X140734Y17417D01*
X140657Y17284D01*
X140577Y17153D01*
X140494Y17025D01*
X140408Y16898D01*
X140318Y16774D01*
X140225Y16652D01*
X140129Y16533D01*
X140030Y16416D01*
X139928Y16301D01*
X139823Y16189D01*
X139715Y16080D01*
X139605Y15974D01*
X139492Y15871D01*
X139376Y15770D01*
X139258Y15673D01*
X139137Y15578D01*
X139014Y15487D01*
X138889Y15399D01*
X138761Y15314D01*
X138632Y15232D01*
X138500Y15154D01*
X138366Y15079D01*
X138231Y15007D01*
X138093Y14939D01*
X137954Y14875D01*
X137814Y14814D01*
X137672Y14757D01*
X137528Y14703D01*
X137383Y14653D01*
X137237Y14607D01*
X137090Y14564D01*
X136942Y14526D01*
X136792Y14491D01*
X136642Y14460D01*
X136492Y14432D01*
X136340Y14409D01*
X136188Y14390D01*
X136036Y14374D01*
X135883Y14362D01*
X135730Y14354D01*
X135577Y14350D01*
X135423Y14350D01*
X135270Y14354D01*
X135117Y14362D01*
X134964Y14374D01*
X134812Y14390D01*
X134660Y14409D01*
X134508Y14432D01*
X134358Y14460D01*
X134208Y14491D01*
X134058Y14526D01*
X133910Y14564D01*
X133763Y14607D01*
X133617Y14653D01*
X133472Y14703D01*
X133328Y14757D01*
X133186Y14814D01*
X133046Y14875D01*
X132907Y14939D01*
X132769Y15007D01*
X132634Y15079D01*
X132500Y15154D01*
X132368Y15232D01*
X132239Y15314D01*
X132111Y15399D01*
X131986Y15487D01*
X131863Y15578D01*
X131742Y15673D01*
X131624Y15770D01*
X131508Y15871D01*
X131395Y15974D01*
X131285Y16080D01*
X131177Y16189D01*
X131072Y16301D01*
X130970Y16416D01*
X130871Y16533D01*
X130775Y16652D01*
X130682Y16774D01*
X130592Y16898D01*
X130506Y17025D01*
X130423Y17153D01*
X130343Y17284D01*
X130266Y17417D01*
X130193Y17551D01*
X130123Y17688D01*
X130057Y17826D01*
X129994Y17966D01*
X129935Y18107D01*
X129880Y18250D01*
X129828Y18394D01*
X129780Y18540D01*
X129735Y18686D01*
X129695Y18834D01*
X129658Y18983D01*
X129625Y19133D01*
X129596Y19283D01*
X129570Y19434D01*
X129549Y19586D01*
X129531Y19738D01*
X129518Y19891D01*
X129508Y20044D01*
X129502Y20197D01*
X129500Y20350D01*
X24500Y20350D02*
X24500Y33350D01*
X12500Y33350D02*
X12500Y20350D01*
X12500Y33350D02*
X12502Y33503D01*
X12508Y33656D01*
X12518Y33809D01*
X12531Y33962D01*
X12549Y34114D01*
X12570Y34266D01*
X12596Y34417D01*
X12625Y34567D01*
X12658Y34717D01*
X12695Y34866D01*
X12735Y35014D01*
X12780Y35160D01*
X12828Y35306D01*
X12880Y35450D01*
X12935Y35593D01*
X12994Y35734D01*
X13057Y35874D01*
X13123Y36012D01*
X13193Y36149D01*
X13266Y36283D01*
X13343Y36416D01*
X13423Y36547D01*
X13506Y36675D01*
X13592Y36802D01*
X13682Y36926D01*
X13775Y37048D01*
X13871Y37167D01*
X13970Y37284D01*
X14072Y37399D01*
X14177Y37511D01*
X14285Y37620D01*
X14395Y37726D01*
X14508Y37829D01*
X14624Y37930D01*
X14742Y38027D01*
X14863Y38122D01*
X14986Y38213D01*
X15111Y38301D01*
X15239Y38386D01*
X15368Y38468D01*
X15500Y38546D01*
X15634Y38621D01*
X15769Y38693D01*
X15907Y38761D01*
X16046Y38825D01*
X16186Y38886D01*
X16328Y38943D01*
X16472Y38997D01*
X16617Y39047D01*
X16763Y39093D01*
X16910Y39136D01*
X17058Y39174D01*
X17208Y39209D01*
X17358Y39240D01*
X17508Y39268D01*
X17660Y39291D01*
X17812Y39310D01*
X17964Y39326D01*
X18117Y39338D01*
X18270Y39346D01*
X18423Y39350D01*
X18577Y39350D01*
X18730Y39346D01*
X18883Y39338D01*
X19036Y39326D01*
X19188Y39310D01*
X19340Y39291D01*
X19492Y39268D01*
X19642Y39240D01*
X19792Y39209D01*
X19942Y39174D01*
X20090Y39136D01*
X20237Y39093D01*
X20383Y39047D01*
X20528Y38997D01*
X20672Y38943D01*
X20814Y38886D01*
X20954Y38825D01*
X21093Y38761D01*
X21231Y38693D01*
X21366Y38621D01*
X21500Y38546D01*
X21632Y38468D01*
X21761Y38386D01*
X21889Y38301D01*
X22014Y38213D01*
X22137Y38122D01*
X22258Y38027D01*
X22376Y37930D01*
X22492Y37829D01*
X22605Y37726D01*
X22715Y37620D01*
X22823Y37511D01*
X22928Y37399D01*
X23030Y37284D01*
X23129Y37167D01*
X23225Y37048D01*
X23318Y36926D01*
X23408Y36802D01*
X23494Y36675D01*
X23577Y36547D01*
X23657Y36416D01*
X23734Y36283D01*
X23807Y36149D01*
X23877Y36012D01*
X23943Y35874D01*
X24006Y35734D01*
X24065Y35593D01*
X24120Y35450D01*
X24172Y35306D01*
X24220Y35160D01*
X24265Y35014D01*
X24305Y34866D01*
X24342Y34717D01*
X24375Y34567D01*
X24404Y34417D01*
X24430Y34266D01*
X24451Y34114D01*
X24469Y33962D01*
X24482Y33809D01*
X24492Y33656D01*
X24498Y33503D01*
X24500Y33350D01*
X24500Y20350D02*
X24498Y20197D01*
X24492Y20044D01*
X24482Y19891D01*
X24469Y19738D01*
X24451Y19586D01*
X24430Y19434D01*
X24404Y19283D01*
X24375Y19133D01*
X24342Y18983D01*
X24305Y18834D01*
X24265Y18686D01*
X24220Y18540D01*
X24172Y18394D01*
X24120Y18250D01*
X24065Y18107D01*
X24006Y17966D01*
X23943Y17826D01*
X23877Y17688D01*
X23807Y17551D01*
X23734Y17417D01*
X23657Y17284D01*
X23577Y17153D01*
X23494Y17025D01*
X23408Y16898D01*
X23318Y16774D01*
X23225Y16652D01*
X23129Y16533D01*
X23030Y16416D01*
X22928Y16301D01*
X22823Y16189D01*
X22715Y16080D01*
X22605Y15974D01*
X22492Y15871D01*
X22376Y15770D01*
X22258Y15673D01*
X22137Y15578D01*
X22014Y15487D01*
X21889Y15399D01*
X21761Y15314D01*
X21632Y15232D01*
X21500Y15154D01*
X21366Y15079D01*
X21231Y15007D01*
X21093Y14939D01*
X20954Y14875D01*
X20814Y14814D01*
X20672Y14757D01*
X20528Y14703D01*
X20383Y14653D01*
X20237Y14607D01*
X20090Y14564D01*
X19942Y14526D01*
X19792Y14491D01*
X19642Y14460D01*
X19492Y14432D01*
X19340Y14409D01*
X19188Y14390D01*
X19036Y14374D01*
X18883Y14362D01*
X18730Y14354D01*
X18577Y14350D01*
X18423Y14350D01*
X18270Y14354D01*
X18117Y14362D01*
X17964Y14374D01*
X17812Y14390D01*
X17660Y14409D01*
X17508Y14432D01*
X17358Y14460D01*
X17208Y14491D01*
X17058Y14526D01*
X16910Y14564D01*
X16763Y14607D01*
X16617Y14653D01*
X16472Y14703D01*
X16328Y14757D01*
X16186Y14814D01*
X16046Y14875D01*
X15907Y14939D01*
X15769Y15007D01*
X15634Y15079D01*
X15500Y15154D01*
X15368Y15232D01*
X15239Y15314D01*
X15111Y15399D01*
X14986Y15487D01*
X14863Y15578D01*
X14742Y15673D01*
X14624Y15770D01*
X14508Y15871D01*
X14395Y15974D01*
X14285Y16080D01*
X14177Y16189D01*
X14072Y16301D01*
X13970Y16416D01*
X13871Y16533D01*
X13775Y16652D01*
X13682Y16774D01*
X13592Y16898D01*
X13506Y17025D01*
X13423Y17153D01*
X13343Y17284D01*
X13266Y17417D01*
X13193Y17551D01*
X13123Y17688D01*
X13057Y17826D01*
X12994Y17966D01*
X12935Y18107D01*
X12880Y18250D01*
X12828Y18394D01*
X12780Y18540D01*
X12735Y18686D01*
X12695Y18834D01*
X12658Y18983D01*
X12625Y19133D01*
X12596Y19283D01*
X12570Y19434D01*
X12549Y19586D01*
X12531Y19738D01*
X12518Y19891D01*
X12508Y20044D01*
X12502Y20197D01*
X12500Y20350D01*
X48500Y26850D02*
X48502Y27004D01*
X48508Y27159D01*
X48518Y27313D01*
X48532Y27467D01*
X48550Y27620D01*
X48571Y27773D01*
X48597Y27926D01*
X48627Y28077D01*
X48660Y28228D01*
X48698Y28378D01*
X48739Y28527D01*
X48784Y28675D01*
X48833Y28821D01*
X48886Y28967D01*
X48942Y29110D01*
X49002Y29253D01*
X49066Y29393D01*
X49133Y29533D01*
X49204Y29670D01*
X49278Y29805D01*
X49356Y29939D01*
X49437Y30070D01*
X49522Y30199D01*
X49610Y30327D01*
X49701Y30451D01*
X49795Y30574D01*
X49893Y30694D01*
X49993Y30811D01*
X50097Y30926D01*
X50203Y31038D01*
X50312Y31147D01*
X50424Y31253D01*
X50539Y31357D01*
X50656Y31457D01*
X50776Y31555D01*
X50899Y31649D01*
X51023Y31740D01*
X51151Y31828D01*
X51280Y31913D01*
X51411Y31994D01*
X51545Y32072D01*
X51680Y32146D01*
X51817Y32217D01*
X51957Y32284D01*
X52097Y32348D01*
X52240Y32408D01*
X52383Y32464D01*
X52529Y32517D01*
X52675Y32566D01*
X52823Y32611D01*
X52972Y32652D01*
X53122Y32690D01*
X53273Y32723D01*
X53424Y32753D01*
X53577Y32779D01*
X53730Y32800D01*
X53883Y32818D01*
X54037Y32832D01*
X54191Y32842D01*
X54346Y32848D01*
X54500Y32850D01*
X54654Y32848D01*
X54809Y32842D01*
X54963Y32832D01*
X55117Y32818D01*
X55270Y32800D01*
X55423Y32779D01*
X55576Y32753D01*
X55727Y32723D01*
X55878Y32690D01*
X56028Y32652D01*
X56177Y32611D01*
X56325Y32566D01*
X56471Y32517D01*
X56617Y32464D01*
X56760Y32408D01*
X56903Y32348D01*
X57043Y32284D01*
X57183Y32217D01*
X57320Y32146D01*
X57455Y32072D01*
X57589Y31994D01*
X57720Y31913D01*
X57849Y31828D01*
X57977Y31740D01*
X58101Y31649D01*
X58224Y31555D01*
X58344Y31457D01*
X58461Y31357D01*
X58576Y31253D01*
X58688Y31147D01*
X58797Y31038D01*
X58903Y30926D01*
X59007Y30811D01*
X59107Y30694D01*
X59205Y30574D01*
X59299Y30451D01*
X59390Y30327D01*
X59478Y30199D01*
X59563Y30070D01*
X59644Y29939D01*
X59722Y29805D01*
X59796Y29670D01*
X59867Y29533D01*
X59934Y29393D01*
X59998Y29253D01*
X60058Y29110D01*
X60114Y28967D01*
X60167Y28821D01*
X60216Y28675D01*
X60261Y28527D01*
X60302Y28378D01*
X60340Y28228D01*
X60373Y28077D01*
X60403Y27926D01*
X60429Y27773D01*
X60450Y27620D01*
X60468Y27467D01*
X60482Y27313D01*
X60492Y27159D01*
X60498Y27004D01*
X60500Y26850D01*
X60498Y26696D01*
X60492Y26541D01*
X60482Y26387D01*
X60468Y26233D01*
X60450Y26080D01*
X60429Y25927D01*
X60403Y25774D01*
X60373Y25623D01*
X60340Y25472D01*
X60302Y25322D01*
X60261Y25173D01*
X60216Y25025D01*
X60167Y24879D01*
X60114Y24733D01*
X60058Y24590D01*
X59998Y24447D01*
X59934Y24307D01*
X59867Y24167D01*
X59796Y24030D01*
X59722Y23895D01*
X59644Y23761D01*
X59563Y23630D01*
X59478Y23501D01*
X59390Y23373D01*
X59299Y23249D01*
X59205Y23126D01*
X59107Y23006D01*
X59007Y22889D01*
X58903Y22774D01*
X58797Y22662D01*
X58688Y22553D01*
X58576Y22447D01*
X58461Y22343D01*
X58344Y22243D01*
X58224Y22145D01*
X58101Y22051D01*
X57977Y21960D01*
X57849Y21872D01*
X57720Y21787D01*
X57589Y21706D01*
X57455Y21628D01*
X57320Y21554D01*
X57183Y21483D01*
X57043Y21416D01*
X56903Y21352D01*
X56760Y21292D01*
X56617Y21236D01*
X56471Y21183D01*
X56325Y21134D01*
X56177Y21089D01*
X56028Y21048D01*
X55878Y21010D01*
X55727Y20977D01*
X55576Y20947D01*
X55423Y20921D01*
X55270Y20900D01*
X55117Y20882D01*
X54963Y20868D01*
X54809Y20858D01*
X54654Y20852D01*
X54500Y20850D01*
X54346Y20852D01*
X54191Y20858D01*
X54037Y20868D01*
X53883Y20882D01*
X53730Y20900D01*
X53577Y20921D01*
X53424Y20947D01*
X53273Y20977D01*
X53122Y21010D01*
X52972Y21048D01*
X52823Y21089D01*
X52675Y21134D01*
X52529Y21183D01*
X52383Y21236D01*
X52240Y21292D01*
X52097Y21352D01*
X51957Y21416D01*
X51817Y21483D01*
X51680Y21554D01*
X51545Y21628D01*
X51411Y21706D01*
X51280Y21787D01*
X51151Y21872D01*
X51023Y21960D01*
X50899Y22051D01*
X50776Y22145D01*
X50656Y22243D01*
X50539Y22343D01*
X50424Y22447D01*
X50312Y22553D01*
X50203Y22662D01*
X50097Y22774D01*
X49993Y22889D01*
X49893Y23006D01*
X49795Y23126D01*
X49701Y23249D01*
X49610Y23373D01*
X49522Y23501D01*
X49437Y23630D01*
X49356Y23761D01*
X49278Y23895D01*
X49204Y24030D01*
X49133Y24167D01*
X49066Y24307D01*
X49002Y24447D01*
X48942Y24590D01*
X48886Y24733D01*
X48833Y24879D01*
X48784Y25025D01*
X48739Y25173D01*
X48698Y25322D01*
X48660Y25472D01*
X48627Y25623D01*
X48597Y25774D01*
X48571Y25927D01*
X48550Y26080D01*
X48532Y26233D01*
X48518Y26387D01*
X48508Y26541D01*
X48502Y26696D01*
X48500Y26850D01*
X93500Y26850D02*
X93502Y27004D01*
X93508Y27159D01*
X93518Y27313D01*
X93532Y27467D01*
X93550Y27620D01*
X93571Y27773D01*
X93597Y27926D01*
X93627Y28077D01*
X93660Y28228D01*
X93698Y28378D01*
X93739Y28527D01*
X93784Y28675D01*
X93833Y28821D01*
X93886Y28967D01*
X93942Y29110D01*
X94002Y29253D01*
X94066Y29393D01*
X94133Y29533D01*
X94204Y29670D01*
X94278Y29805D01*
X94356Y29939D01*
X94437Y30070D01*
X94522Y30199D01*
X94610Y30327D01*
X94701Y30451D01*
X94795Y30574D01*
X94893Y30694D01*
X94993Y30811D01*
X95097Y30926D01*
X95203Y31038D01*
X95312Y31147D01*
X95424Y31253D01*
X95539Y31357D01*
X95656Y31457D01*
X95776Y31555D01*
X95899Y31649D01*
X96023Y31740D01*
X96151Y31828D01*
X96280Y31913D01*
X96411Y31994D01*
X96545Y32072D01*
X96680Y32146D01*
X96817Y32217D01*
X96957Y32284D01*
X97097Y32348D01*
X97240Y32408D01*
X97383Y32464D01*
X97529Y32517D01*
X97675Y32566D01*
X97823Y32611D01*
X97972Y32652D01*
X98122Y32690D01*
X98273Y32723D01*
X98424Y32753D01*
X98577Y32779D01*
X98730Y32800D01*
X98883Y32818D01*
X99037Y32832D01*
X99191Y32842D01*
X99346Y32848D01*
X99500Y32850D01*
X99654Y32848D01*
X99809Y32842D01*
X99963Y32832D01*
X100117Y32818D01*
X100270Y32800D01*
X100423Y32779D01*
X100576Y32753D01*
X100727Y32723D01*
X100878Y32690D01*
X101028Y32652D01*
X101177Y32611D01*
X101325Y32566D01*
X101471Y32517D01*
X101617Y32464D01*
X101760Y32408D01*
X101903Y32348D01*
X102043Y32284D01*
X102183Y32217D01*
X102320Y32146D01*
X102455Y32072D01*
X102589Y31994D01*
X102720Y31913D01*
X102849Y31828D01*
X102977Y31740D01*
X103101Y31649D01*
X103224Y31555D01*
X103344Y31457D01*
X103461Y31357D01*
X103576Y31253D01*
X103688Y31147D01*
X103797Y31038D01*
X103903Y30926D01*
X104007Y30811D01*
X104107Y30694D01*
X104205Y30574D01*
X104299Y30451D01*
X104390Y30327D01*
X104478Y30199D01*
X104563Y30070D01*
X104644Y29939D01*
X104722Y29805D01*
X104796Y29670D01*
X104867Y29533D01*
X104934Y29393D01*
X104998Y29253D01*
X105058Y29110D01*
X105114Y28967D01*
X105167Y28821D01*
X105216Y28675D01*
X105261Y28527D01*
X105302Y28378D01*
X105340Y28228D01*
X105373Y28077D01*
X105403Y27926D01*
X105429Y27773D01*
X105450Y27620D01*
X105468Y27467D01*
X105482Y27313D01*
X105492Y27159D01*
X105498Y27004D01*
X105500Y26850D01*
X105498Y26696D01*
X105492Y26541D01*
X105482Y26387D01*
X105468Y26233D01*
X105450Y26080D01*
X105429Y25927D01*
X105403Y25774D01*
X105373Y25623D01*
X105340Y25472D01*
X105302Y25322D01*
X105261Y25173D01*
X105216Y25025D01*
X105167Y24879D01*
X105114Y24733D01*
X105058Y24590D01*
X104998Y24447D01*
X104934Y24307D01*
X104867Y24167D01*
X104796Y24030D01*
X104722Y23895D01*
X104644Y23761D01*
X104563Y23630D01*
X104478Y23501D01*
X104390Y23373D01*
X104299Y23249D01*
X104205Y23126D01*
X104107Y23006D01*
X104007Y22889D01*
X103903Y22774D01*
X103797Y22662D01*
X103688Y22553D01*
X103576Y22447D01*
X103461Y22343D01*
X103344Y22243D01*
X103224Y22145D01*
X103101Y22051D01*
X102977Y21960D01*
X102849Y21872D01*
X102720Y21787D01*
X102589Y21706D01*
X102455Y21628D01*
X102320Y21554D01*
X102183Y21483D01*
X102043Y21416D01*
X101903Y21352D01*
X101760Y21292D01*
X101617Y21236D01*
X101471Y21183D01*
X101325Y21134D01*
X101177Y21089D01*
X101028Y21048D01*
X100878Y21010D01*
X100727Y20977D01*
X100576Y20947D01*
X100423Y20921D01*
X100270Y20900D01*
X100117Y20882D01*
X99963Y20868D01*
X99809Y20858D01*
X99654Y20852D01*
X99500Y20850D01*
X99346Y20852D01*
X99191Y20858D01*
X99037Y20868D01*
X98883Y20882D01*
X98730Y20900D01*
X98577Y20921D01*
X98424Y20947D01*
X98273Y20977D01*
X98122Y21010D01*
X97972Y21048D01*
X97823Y21089D01*
X97675Y21134D01*
X97529Y21183D01*
X97383Y21236D01*
X97240Y21292D01*
X97097Y21352D01*
X96957Y21416D01*
X96817Y21483D01*
X96680Y21554D01*
X96545Y21628D01*
X96411Y21706D01*
X96280Y21787D01*
X96151Y21872D01*
X96023Y21960D01*
X95899Y22051D01*
X95776Y22145D01*
X95656Y22243D01*
X95539Y22343D01*
X95424Y22447D01*
X95312Y22553D01*
X95203Y22662D01*
X95097Y22774D01*
X94993Y22889D01*
X94893Y23006D01*
X94795Y23126D01*
X94701Y23249D01*
X94610Y23373D01*
X94522Y23501D01*
X94437Y23630D01*
X94356Y23761D01*
X94278Y23895D01*
X94204Y24030D01*
X94133Y24167D01*
X94066Y24307D01*
X94002Y24447D01*
X93942Y24590D01*
X93886Y24733D01*
X93833Y24879D01*
X93784Y25025D01*
X93739Y25173D01*
X93698Y25322D01*
X93660Y25472D01*
X93627Y25623D01*
X93597Y25774D01*
X93571Y25927D01*
X93550Y26080D01*
X93532Y26233D01*
X93518Y26387D01*
X93508Y26541D01*
X93502Y26696D01*
X93500Y26850D01*
M02*
