G04 EAGLE Gerber RS-274X export*
G75*
%MOMM*%
%FSLAX34Y34*%
%LPD*%
%INSilk bottom*%
%IPPOS*%
%AMOC8*
5,1,8,0,0,1.08239X$1,22.5*%
G01*
%ADD10C,0.050800*%


D10*
X68610Y208534D02*
X70191Y208534D01*
X70269Y208536D01*
X70346Y208542D01*
X70423Y208551D01*
X70499Y208564D01*
X70575Y208581D01*
X70650Y208602D01*
X70723Y208626D01*
X70796Y208654D01*
X70867Y208686D01*
X70936Y208721D01*
X71003Y208759D01*
X71069Y208800D01*
X71132Y208845D01*
X71193Y208893D01*
X71252Y208943D01*
X71308Y208997D01*
X71362Y209053D01*
X71412Y209112D01*
X71460Y209173D01*
X71505Y209236D01*
X71546Y209302D01*
X71584Y209369D01*
X71619Y209438D01*
X71651Y209509D01*
X71679Y209582D01*
X71703Y209655D01*
X71724Y209730D01*
X71741Y209806D01*
X71754Y209882D01*
X71763Y209959D01*
X71769Y210036D01*
X71771Y210114D01*
X71771Y214066D01*
X71769Y214144D01*
X71763Y214221D01*
X71754Y214298D01*
X71741Y214374D01*
X71724Y214450D01*
X71703Y214525D01*
X71679Y214598D01*
X71651Y214671D01*
X71619Y214742D01*
X71584Y214811D01*
X71546Y214878D01*
X71505Y214944D01*
X71460Y215007D01*
X71412Y215068D01*
X71362Y215127D01*
X71308Y215183D01*
X71252Y215237D01*
X71193Y215287D01*
X71132Y215335D01*
X71069Y215380D01*
X71003Y215421D01*
X70936Y215459D01*
X70867Y215494D01*
X70796Y215526D01*
X70723Y215554D01*
X70650Y215578D01*
X70575Y215599D01*
X70499Y215616D01*
X70423Y215629D01*
X70346Y215638D01*
X70269Y215644D01*
X70191Y215646D01*
X68610Y215646D01*
X66038Y214066D02*
X64062Y215646D01*
X64062Y208534D01*
X62087Y208534D02*
X66038Y208534D01*
X59180Y214066D02*
X57204Y215646D01*
X57204Y208534D01*
X55229Y208534D02*
X59180Y208534D01*
X132110Y259334D02*
X133691Y259334D01*
X133769Y259336D01*
X133846Y259342D01*
X133923Y259351D01*
X133999Y259364D01*
X134075Y259381D01*
X134150Y259402D01*
X134223Y259426D01*
X134296Y259454D01*
X134367Y259486D01*
X134436Y259521D01*
X134503Y259559D01*
X134569Y259600D01*
X134632Y259645D01*
X134693Y259693D01*
X134752Y259743D01*
X134808Y259797D01*
X134862Y259853D01*
X134912Y259912D01*
X134960Y259973D01*
X135005Y260036D01*
X135046Y260102D01*
X135084Y260169D01*
X135119Y260238D01*
X135151Y260309D01*
X135179Y260382D01*
X135203Y260455D01*
X135224Y260530D01*
X135241Y260606D01*
X135254Y260682D01*
X135263Y260759D01*
X135269Y260836D01*
X135271Y260914D01*
X135271Y264866D01*
X135269Y264944D01*
X135263Y265021D01*
X135254Y265098D01*
X135241Y265174D01*
X135224Y265250D01*
X135203Y265325D01*
X135179Y265398D01*
X135151Y265471D01*
X135119Y265542D01*
X135084Y265611D01*
X135046Y265678D01*
X135005Y265744D01*
X134960Y265807D01*
X134912Y265868D01*
X134862Y265927D01*
X134808Y265983D01*
X134752Y266037D01*
X134693Y266087D01*
X134632Y266135D01*
X134569Y266180D01*
X134503Y266221D01*
X134436Y266259D01*
X134367Y266294D01*
X134296Y266326D01*
X134223Y266354D01*
X134150Y266378D01*
X134075Y266399D01*
X133999Y266416D01*
X133923Y266429D01*
X133846Y266438D01*
X133769Y266444D01*
X133691Y266446D01*
X132110Y266446D01*
X129538Y264866D02*
X127562Y266446D01*
X127562Y259334D01*
X125587Y259334D02*
X129538Y259334D01*
X122680Y259334D02*
X120309Y259334D01*
X120231Y259336D01*
X120154Y259342D01*
X120077Y259351D01*
X120001Y259364D01*
X119925Y259381D01*
X119850Y259402D01*
X119777Y259426D01*
X119704Y259454D01*
X119633Y259486D01*
X119564Y259521D01*
X119497Y259559D01*
X119431Y259600D01*
X119368Y259645D01*
X119307Y259693D01*
X119248Y259743D01*
X119192Y259797D01*
X119138Y259853D01*
X119088Y259912D01*
X119040Y259973D01*
X118995Y260036D01*
X118954Y260102D01*
X118916Y260169D01*
X118881Y260238D01*
X118849Y260309D01*
X118821Y260382D01*
X118797Y260455D01*
X118776Y260530D01*
X118759Y260606D01*
X118746Y260682D01*
X118737Y260759D01*
X118731Y260836D01*
X118729Y260914D01*
X118729Y261705D01*
X118731Y261783D01*
X118737Y261860D01*
X118746Y261937D01*
X118759Y262013D01*
X118776Y262089D01*
X118797Y262164D01*
X118821Y262237D01*
X118849Y262310D01*
X118881Y262381D01*
X118916Y262450D01*
X118954Y262517D01*
X118995Y262583D01*
X119040Y262646D01*
X119088Y262707D01*
X119138Y262766D01*
X119192Y262822D01*
X119248Y262876D01*
X119307Y262926D01*
X119368Y262974D01*
X119431Y263019D01*
X119497Y263060D01*
X119564Y263098D01*
X119633Y263133D01*
X119704Y263165D01*
X119777Y263193D01*
X119850Y263217D01*
X119925Y263238D01*
X120001Y263255D01*
X120077Y263268D01*
X120154Y263277D01*
X120231Y263283D01*
X120309Y263285D01*
X122680Y263285D01*
X122680Y266446D01*
X118729Y266446D01*
M02*
