G04 EAGLE Gerber RS-274X export*
G75*
%MOMM*%
%FSLAX34Y34*%
%LPD*%
%INSolder Mask bottom*%
%IPPOS*%
%AMOC8*
5,1,8,0,0,1.08239X$1,22.5*%
G01*
%ADD10R,0.700000X0.600000*%
%ADD11R,0.600000X0.700000*%
%ADD12C,1.420000*%
%ADD13C,1.900000*%
%ADD14C,1.200000*%
%ADD15C,0.812800*%
%ADD16R,1.400000X1.000000*%
%ADD17R,1.900000X1.200000*%
%ADD18C,1.400000*%


D10*
X114300Y73240D03*
X114300Y84240D03*
D11*
X61380Y214630D03*
X50380Y214630D03*
D10*
X78740Y235800D03*
X78740Y246800D03*
D11*
X96100Y260350D03*
X107100Y260350D03*
D10*
X64770Y77890D03*
X64770Y66890D03*
X106680Y151550D03*
X106680Y140550D03*
X59690Y151550D03*
X59690Y140550D03*
X49530Y151550D03*
X49530Y140550D03*
X138430Y206590D03*
X138430Y217590D03*
D11*
X104990Y232410D03*
X115990Y232410D03*
D12*
X112000Y47850D03*
X87000Y47850D03*
X67000Y47850D03*
X42000Y47850D03*
D13*
X18500Y34350D02*
X18500Y19350D01*
X135500Y19350D02*
X135500Y34350D01*
D14*
X54500Y26850D03*
X99500Y26850D03*
D15*
X24684Y62530D02*
X16556Y62530D01*
X16556Y75030D02*
X24684Y75030D01*
X24684Y87530D02*
X16556Y87530D01*
X16556Y100030D02*
X24684Y100030D01*
D14*
X55880Y255270D03*
D16*
X101170Y72390D03*
X79170Y81890D03*
X79170Y62890D03*
D17*
X123090Y204090D03*
X97890Y204090D03*
X97890Y220090D03*
X123090Y220090D03*
D18*
X77470Y222250D03*
M02*
