G04 EAGLE Gerber RS-274X export*
G75*
%MOMM*%
%FSLAX34Y34*%
%LPD*%
%INSolder Mask top*%
%IPPOS*%
%AMOC8*
5,1,8,0,0,1.08239X$1,22.5*%
G01*
%ADD10R,0.700000X0.600000*%
%ADD11R,0.600000X0.700000*%
%ADD12C,1.420000*%
%ADD13C,1.900000*%
%ADD14C,1.200000*%
%ADD15R,1.778000X1.778000*%
%ADD16C,1.778000*%
%ADD17R,1.080000X1.050000*%
%ADD18R,1.450000X0.650000*%
%ADD19R,0.540000X1.400000*%
%ADD20R,0.280000X1.260000*%
%ADD21R,1.260000X0.280000*%
%ADD22R,2.400000X2.400000*%
%ADD23R,1.400000X1.000000*%
%ADD24R,1.200000X1.900000*%
%ADD25C,1.400000*%


D10*
X214630Y29630D03*
X214630Y18630D03*
D11*
X172300Y189230D03*
X183300Y189230D03*
X97370Y214630D03*
X108370Y214630D03*
X35980Y241300D03*
X24980Y241300D03*
X53760Y285750D03*
X42760Y285750D03*
X96100Y279400D03*
X107100Y279400D03*
X53760Y274320D03*
X42760Y274320D03*
D10*
X255270Y47410D03*
X255270Y36410D03*
D11*
X134200Y275590D03*
X145200Y275590D03*
D10*
X161290Y239610D03*
X161290Y250610D03*
D11*
X84670Y314960D03*
X95670Y314960D03*
X84670Y303530D03*
X95670Y303530D03*
X121500Y292100D03*
X132500Y292100D03*
X121500Y314960D03*
X132500Y314960D03*
X158330Y298450D03*
X169330Y298450D03*
X169330Y321310D03*
X158330Y321310D03*
D10*
X199390Y145200D03*
X199390Y134200D03*
X55880Y132930D03*
X55880Y143930D03*
X44450Y132930D03*
X44450Y143930D03*
X234950Y179920D03*
X234950Y190920D03*
D11*
X209130Y215900D03*
X220130Y215900D03*
X172300Y212090D03*
X183300Y212090D03*
X172300Y200660D03*
X183300Y200660D03*
D12*
X173000Y49120D03*
X148000Y49120D03*
X128000Y49120D03*
X103000Y49120D03*
D13*
X79500Y35620D02*
X79500Y20620D01*
X196500Y20620D02*
X196500Y35620D01*
D14*
X115500Y28120D03*
X160500Y28120D03*
D15*
X21590Y16510D03*
D16*
X21590Y41910D03*
X21590Y67310D03*
X21590Y92710D03*
D11*
X132500Y326390D03*
X121500Y326390D03*
X132500Y303530D03*
X121500Y303530D03*
X169330Y309880D03*
X158330Y309880D03*
D17*
X27940Y187820D03*
X27940Y170320D03*
D11*
X236640Y114300D03*
X225640Y114300D03*
X24980Y252730D03*
X35980Y252730D03*
D10*
X43180Y184570D03*
X43180Y173570D03*
D18*
X208390Y99650D03*
X253890Y99650D03*
X208390Y78150D03*
X253890Y78150D03*
D19*
G36*
X182012Y158932D02*
X185830Y155114D01*
X175932Y145216D01*
X172114Y149034D01*
X182012Y158932D01*
G37*
G36*
X176355Y164589D02*
X180173Y160771D01*
X170275Y150873D01*
X166457Y154691D01*
X176355Y164589D01*
G37*
G36*
X170699Y170246D02*
X174517Y166428D01*
X164619Y156530D01*
X160801Y160348D01*
X170699Y170246D01*
G37*
G36*
X165042Y175903D02*
X168860Y172085D01*
X158962Y162187D01*
X155144Y166005D01*
X165042Y175903D01*
G37*
G36*
X159385Y181560D02*
X163203Y177742D01*
X153305Y167844D01*
X149487Y171662D01*
X159385Y181560D01*
G37*
G36*
X153799Y187146D02*
X157617Y183328D01*
X147719Y173430D01*
X143901Y177248D01*
X153799Y187146D01*
G37*
G36*
X148142Y192803D02*
X151960Y188985D01*
X142062Y179087D01*
X138244Y182905D01*
X148142Y192803D01*
G37*
G36*
X142485Y198460D02*
X146303Y194642D01*
X136405Y184744D01*
X132587Y188562D01*
X142485Y198460D01*
G37*
G36*
X107768Y194712D02*
X111586Y198530D01*
X121484Y188632D01*
X117666Y184814D01*
X107768Y194712D01*
G37*
G36*
X102111Y189055D02*
X105929Y192873D01*
X115827Y182975D01*
X112009Y179157D01*
X102111Y189055D01*
G37*
G36*
X96454Y183399D02*
X100272Y187217D01*
X110170Y177319D01*
X106352Y173501D01*
X96454Y183399D01*
G37*
G36*
X90797Y177742D02*
X94615Y181560D01*
X104513Y171662D01*
X100695Y167844D01*
X90797Y177742D01*
G37*
G36*
X85140Y172085D02*
X88958Y175903D01*
X98856Y166005D01*
X95038Y162187D01*
X85140Y172085D01*
G37*
G36*
X79483Y166428D02*
X83301Y170246D01*
X93199Y160348D01*
X89381Y156530D01*
X79483Y166428D01*
G37*
G36*
X73827Y160771D02*
X77645Y164589D01*
X87543Y154691D01*
X83725Y150873D01*
X73827Y160771D01*
G37*
G36*
X68170Y155114D02*
X71988Y158932D01*
X81886Y149034D01*
X78068Y145216D01*
X68170Y155114D01*
G37*
G36*
X71988Y120468D02*
X68170Y124286D01*
X78068Y134184D01*
X81886Y130366D01*
X71988Y120468D01*
G37*
G36*
X77645Y114811D02*
X73827Y118629D01*
X83725Y128527D01*
X87543Y124709D01*
X77645Y114811D01*
G37*
G36*
X83301Y109154D02*
X79483Y112972D01*
X89381Y122870D01*
X93199Y119052D01*
X83301Y109154D01*
G37*
G36*
X88958Y103497D02*
X85140Y107315D01*
X95038Y117213D01*
X98856Y113395D01*
X88958Y103497D01*
G37*
G36*
X94615Y97840D02*
X90797Y101658D01*
X100695Y111556D01*
X104513Y107738D01*
X94615Y97840D01*
G37*
G36*
X100272Y92183D02*
X96454Y96001D01*
X106352Y105899D01*
X110170Y102081D01*
X100272Y92183D01*
G37*
G36*
X105929Y86527D02*
X102111Y90345D01*
X112009Y100243D01*
X115827Y96425D01*
X105929Y86527D01*
G37*
G36*
X111586Y80870D02*
X107768Y84688D01*
X117666Y94586D01*
X121484Y90768D01*
X111586Y80870D01*
G37*
G36*
X146232Y84688D02*
X142414Y80870D01*
X132516Y90768D01*
X136334Y94586D01*
X146232Y84688D01*
G37*
G36*
X151889Y90345D02*
X148071Y86527D01*
X138173Y96425D01*
X141991Y100243D01*
X151889Y90345D01*
G37*
G36*
X157546Y96001D02*
X153728Y92183D01*
X143830Y102081D01*
X147648Y105899D01*
X157546Y96001D01*
G37*
G36*
X163203Y101658D02*
X159385Y97840D01*
X149487Y107738D01*
X153305Y111556D01*
X163203Y101658D01*
G37*
G36*
X168860Y107315D02*
X165042Y103497D01*
X155144Y113395D01*
X158962Y117213D01*
X168860Y107315D01*
G37*
G36*
X174517Y112972D02*
X170699Y109154D01*
X160801Y119052D01*
X164619Y122870D01*
X174517Y112972D01*
G37*
G36*
X180173Y118629D02*
X176355Y114811D01*
X166457Y124709D01*
X170275Y128527D01*
X180173Y118629D01*
G37*
G36*
X185830Y124286D02*
X182012Y120468D01*
X172114Y130366D01*
X175932Y134184D01*
X185830Y124286D01*
G37*
D20*
X66200Y224810D03*
X71200Y224810D03*
X76200Y224810D03*
X81200Y224810D03*
X86200Y224810D03*
D21*
X96500Y235110D03*
X96500Y240110D03*
X96500Y245110D03*
X96500Y250110D03*
X96500Y255110D03*
D20*
X86200Y265410D03*
X81200Y265410D03*
X76200Y265410D03*
X71200Y265410D03*
X66200Y265410D03*
D21*
X55900Y255110D03*
X55900Y250110D03*
X55900Y245110D03*
X55900Y240110D03*
X55900Y235110D03*
D22*
X76200Y245110D03*
D14*
X76200Y245110D03*
D23*
X218870Y41910D03*
X240870Y51410D03*
X240870Y32410D03*
D24*
X222630Y172820D03*
X222630Y198020D03*
X206630Y198020D03*
X206630Y172820D03*
X131700Y257710D03*
X131700Y232510D03*
X147700Y232510D03*
X147700Y257710D03*
D25*
X130810Y204470D03*
M02*
