M48
;GenerationSoftware,Autodesk,EAGLE,9.3.0*%
;CreationDate,2019-03-17T12:32:03Z*%
FMAT,2
ICI,OFF
METRIC,TZ,000.000
T5C0.350
T4C0.850
T3C1.000
T2C1.150
T1C2.750
%
G90
M71
T1
X61500Y16800
X3500Y16800
T2
X8465Y5667
X8465Y10747
T3
X56630Y18070
X15990Y15530
X56630Y15530
X54090Y18070
X54090Y15530
X51550Y18070
X51550Y15530
X49010Y18070
X49010Y15530
X46470Y18070
X46470Y15530
X43930Y18070
X43930Y15530
X41390Y18070
X41390Y15530
X38850Y18070
X38850Y15530
X36310Y18070
X36310Y15530
X33770Y18070
X33770Y15530
X31230Y18070
X31230Y15530
X26150Y15530
X23610Y18070
X23610Y15530
X28690Y18070
X13450Y15530
X8370Y15530
X8370Y18070
X10910Y15530
X10910Y18070
X28690Y15530
X13450Y18070
X26150Y18070
X15990Y18070
X18530Y15530
X18530Y18070
X21070Y15530
X21070Y18070
T4
X11095Y5667
X11095Y8207
X11095Y10747
T5
X40640Y8509
X39243Y8509
X35306Y8509
X36576Y8509
X37846Y8509
X15748Y12700
X17018Y12192
X17018Y13462
X19558Y12192
X19558Y13462
X18288Y12700
X22098Y12192
X22098Y13462
X20828Y12700
X23368Y12700
X29718Y7620
X29083Y8890
X28448Y7620
X27178Y7620
X27813Y8890
X28448Y10160
X27178Y10160
X27178Y11430
X42164Y8509
X34036Y8509
M30