G04 EAGLE Gerber RS-274X export*
G75*
%MOMM*%
%FSLAX34Y34*%
%LPD*%
%INSlot drills/holes*%
%IPPOS*%
%AMOC8*
5,1,8,0,0,1.08239X$1,22.5*%
G01*
%ADD10C,0.000000*%


D10*
X0Y30000D02*
X9Y29275D01*
X35Y28551D01*
X79Y27827D01*
X140Y27105D01*
X219Y26384D01*
X315Y25665D01*
X428Y24949D01*
X559Y24236D01*
X707Y23526D01*
X872Y22821D01*
X1054Y22119D01*
X1253Y21422D01*
X1468Y20729D01*
X1701Y20043D01*
X1950Y19362D01*
X2215Y18687D01*
X2496Y18019D01*
X2794Y17358D01*
X3107Y16704D01*
X3436Y16058D01*
X3781Y15420D01*
X4141Y14791D01*
X4516Y14171D01*
X4906Y13560D01*
X5310Y12958D01*
X5729Y12366D01*
X6163Y11785D01*
X6610Y11214D01*
X7071Y10655D01*
X7545Y10106D01*
X8032Y9570D01*
X8532Y9045D01*
X9045Y8532D01*
X9570Y8032D01*
X10106Y7545D01*
X10655Y7071D01*
X11214Y6610D01*
X11785Y6163D01*
X12366Y5729D01*
X12958Y5310D01*
X13560Y4906D01*
X14171Y4516D01*
X14791Y4141D01*
X15420Y3781D01*
X16058Y3436D01*
X16704Y3107D01*
X17358Y2794D01*
X18019Y2496D01*
X18687Y2215D01*
X19362Y1950D01*
X20043Y1701D01*
X20729Y1468D01*
X21422Y1253D01*
X22119Y1054D01*
X22821Y872D01*
X23526Y707D01*
X24236Y559D01*
X24949Y428D01*
X25665Y315D01*
X26384Y219D01*
X27105Y140D01*
X27827Y79D01*
X28551Y35D01*
X29275Y9D01*
X30000Y0D01*
X620000Y0D01*
X620725Y9D01*
X621449Y35D01*
X622173Y79D01*
X622895Y140D01*
X623616Y219D01*
X624335Y315D01*
X625051Y428D01*
X625764Y559D01*
X626474Y707D01*
X627179Y872D01*
X627881Y1054D01*
X628578Y1253D01*
X629271Y1468D01*
X629957Y1701D01*
X630638Y1950D01*
X631313Y2215D01*
X631981Y2496D01*
X632642Y2794D01*
X633296Y3107D01*
X633942Y3436D01*
X634580Y3781D01*
X635209Y4141D01*
X635829Y4516D01*
X636440Y4906D01*
X637042Y5310D01*
X637634Y5729D01*
X638215Y6163D01*
X638786Y6610D01*
X639345Y7071D01*
X639894Y7545D01*
X640430Y8032D01*
X640955Y8532D01*
X641468Y9045D01*
X641968Y9570D01*
X642455Y10106D01*
X642929Y10655D01*
X643390Y11214D01*
X643837Y11785D01*
X644271Y12366D01*
X644690Y12958D01*
X645094Y13560D01*
X645484Y14171D01*
X645859Y14791D01*
X646219Y15420D01*
X646564Y16058D01*
X646893Y16704D01*
X647206Y17358D01*
X647504Y18019D01*
X647785Y18687D01*
X648050Y19362D01*
X648299Y20043D01*
X648532Y20729D01*
X648747Y21422D01*
X648946Y22119D01*
X649128Y22821D01*
X649293Y23526D01*
X649441Y24236D01*
X649572Y24949D01*
X649685Y25665D01*
X649781Y26384D01*
X649860Y27105D01*
X649921Y27827D01*
X649965Y28551D01*
X649991Y29275D01*
X650000Y30000D01*
X650000Y173000D01*
X649991Y173725D01*
X649965Y174449D01*
X649921Y175173D01*
X649860Y175895D01*
X649781Y176616D01*
X649685Y177335D01*
X649572Y178051D01*
X649441Y178764D01*
X649293Y179474D01*
X649128Y180179D01*
X648946Y180881D01*
X648747Y181578D01*
X648532Y182271D01*
X648299Y182957D01*
X648050Y183638D01*
X647785Y184313D01*
X647504Y184981D01*
X647206Y185642D01*
X646893Y186296D01*
X646564Y186942D01*
X646219Y187580D01*
X645859Y188209D01*
X645484Y188829D01*
X645094Y189440D01*
X644690Y190042D01*
X644271Y190634D01*
X643837Y191215D01*
X643390Y191786D01*
X642929Y192345D01*
X642455Y192894D01*
X641968Y193430D01*
X641468Y193955D01*
X640955Y194468D01*
X640430Y194968D01*
X639894Y195455D01*
X639345Y195929D01*
X638786Y196390D01*
X638215Y196837D01*
X637634Y197271D01*
X637042Y197690D01*
X636440Y198094D01*
X635829Y198484D01*
X635209Y198859D01*
X634580Y199219D01*
X633942Y199564D01*
X633296Y199893D01*
X632642Y200206D01*
X631981Y200504D01*
X631313Y200785D01*
X630638Y201050D01*
X629957Y201299D01*
X629271Y201532D01*
X628578Y201747D01*
X627881Y201946D01*
X627179Y202128D01*
X626474Y202293D01*
X625764Y202441D01*
X625051Y202572D01*
X624335Y202685D01*
X623616Y202781D01*
X622895Y202860D01*
X622173Y202921D01*
X621449Y202965D01*
X620725Y202991D01*
X620000Y203000D01*
X30000Y203000D01*
X29275Y202991D01*
X28551Y202965D01*
X27827Y202921D01*
X27105Y202860D01*
X26384Y202781D01*
X25665Y202685D01*
X24949Y202572D01*
X24236Y202441D01*
X23526Y202293D01*
X22821Y202128D01*
X22119Y201946D01*
X21422Y201747D01*
X20729Y201532D01*
X20043Y201299D01*
X19362Y201050D01*
X18687Y200785D01*
X18019Y200504D01*
X17358Y200206D01*
X16704Y199893D01*
X16058Y199564D01*
X15420Y199219D01*
X14791Y198859D01*
X14171Y198484D01*
X13560Y198094D01*
X12958Y197690D01*
X12366Y197271D01*
X11785Y196837D01*
X11214Y196390D01*
X10655Y195929D01*
X10106Y195455D01*
X9570Y194968D01*
X9045Y194468D01*
X8532Y193955D01*
X8032Y193430D01*
X7545Y192894D01*
X7071Y192345D01*
X6610Y191786D01*
X6163Y191215D01*
X5729Y190634D01*
X5310Y190042D01*
X4906Y189440D01*
X4516Y188829D01*
X4141Y188209D01*
X3781Y187580D01*
X3436Y186942D01*
X3107Y186296D01*
X2794Y185642D01*
X2496Y184981D01*
X2215Y184313D01*
X1950Y183638D01*
X1701Y182957D01*
X1468Y182271D01*
X1253Y181578D01*
X1054Y180881D01*
X872Y180179D01*
X707Y179474D01*
X559Y178764D01*
X428Y178051D01*
X315Y177335D01*
X219Y176616D01*
X140Y175895D01*
X79Y175173D01*
X35Y174449D01*
X9Y173725D01*
X0Y173000D01*
X0Y30000D01*
X21250Y168000D02*
X21254Y168337D01*
X21267Y168675D01*
X21287Y169012D01*
X21316Y169348D01*
X21353Y169683D01*
X21399Y170018D01*
X21452Y170351D01*
X21514Y170682D01*
X21584Y171013D01*
X21662Y171341D01*
X21748Y171667D01*
X21842Y171991D01*
X21944Y172313D01*
X22054Y172632D01*
X22171Y172949D01*
X22297Y173262D01*
X22430Y173572D01*
X22570Y173879D01*
X22718Y174182D01*
X22874Y174482D01*
X23036Y174777D01*
X23206Y175069D01*
X23383Y175356D01*
X23567Y175639D01*
X23758Y175917D01*
X23956Y176191D01*
X24160Y176459D01*
X24371Y176723D01*
X24588Y176981D01*
X24812Y177234D01*
X25042Y177481D01*
X25277Y177723D01*
X25519Y177958D01*
X25766Y178188D01*
X26019Y178412D01*
X26277Y178629D01*
X26541Y178840D01*
X26809Y179044D01*
X27083Y179242D01*
X27361Y179433D01*
X27644Y179617D01*
X27931Y179794D01*
X28223Y179964D01*
X28518Y180126D01*
X28818Y180282D01*
X29121Y180430D01*
X29428Y180570D01*
X29738Y180703D01*
X30051Y180829D01*
X30368Y180946D01*
X30687Y181056D01*
X31009Y181158D01*
X31333Y181252D01*
X31659Y181338D01*
X31987Y181416D01*
X32318Y181486D01*
X32649Y181548D01*
X32982Y181601D01*
X33317Y181647D01*
X33652Y181684D01*
X33988Y181713D01*
X34325Y181733D01*
X34663Y181746D01*
X35000Y181750D01*
X35337Y181746D01*
X35675Y181733D01*
X36012Y181713D01*
X36348Y181684D01*
X36683Y181647D01*
X37018Y181601D01*
X37351Y181548D01*
X37682Y181486D01*
X38013Y181416D01*
X38341Y181338D01*
X38667Y181252D01*
X38991Y181158D01*
X39313Y181056D01*
X39632Y180946D01*
X39949Y180829D01*
X40262Y180703D01*
X40572Y180570D01*
X40879Y180430D01*
X41182Y180282D01*
X41482Y180126D01*
X41777Y179964D01*
X42069Y179794D01*
X42356Y179617D01*
X42639Y179433D01*
X42917Y179242D01*
X43191Y179044D01*
X43459Y178840D01*
X43723Y178629D01*
X43981Y178412D01*
X44234Y178188D01*
X44481Y177958D01*
X44723Y177723D01*
X44958Y177481D01*
X45188Y177234D01*
X45412Y176981D01*
X45629Y176723D01*
X45840Y176459D01*
X46044Y176191D01*
X46242Y175917D01*
X46433Y175639D01*
X46617Y175356D01*
X46794Y175069D01*
X46964Y174777D01*
X47126Y174482D01*
X47282Y174182D01*
X47430Y173879D01*
X47570Y173572D01*
X47703Y173262D01*
X47829Y172949D01*
X47946Y172632D01*
X48056Y172313D01*
X48158Y171991D01*
X48252Y171667D01*
X48338Y171341D01*
X48416Y171013D01*
X48486Y170682D01*
X48548Y170351D01*
X48601Y170018D01*
X48647Y169683D01*
X48684Y169348D01*
X48713Y169012D01*
X48733Y168675D01*
X48746Y168337D01*
X48750Y168000D01*
X48746Y167663D01*
X48733Y167325D01*
X48713Y166988D01*
X48684Y166652D01*
X48647Y166317D01*
X48601Y165982D01*
X48548Y165649D01*
X48486Y165318D01*
X48416Y164987D01*
X48338Y164659D01*
X48252Y164333D01*
X48158Y164009D01*
X48056Y163687D01*
X47946Y163368D01*
X47829Y163051D01*
X47703Y162738D01*
X47570Y162428D01*
X47430Y162121D01*
X47282Y161818D01*
X47126Y161518D01*
X46964Y161223D01*
X46794Y160931D01*
X46617Y160644D01*
X46433Y160361D01*
X46242Y160083D01*
X46044Y159809D01*
X45840Y159541D01*
X45629Y159277D01*
X45412Y159019D01*
X45188Y158766D01*
X44958Y158519D01*
X44723Y158277D01*
X44481Y158042D01*
X44234Y157812D01*
X43981Y157588D01*
X43723Y157371D01*
X43459Y157160D01*
X43191Y156956D01*
X42917Y156758D01*
X42639Y156567D01*
X42356Y156383D01*
X42069Y156206D01*
X41777Y156036D01*
X41482Y155874D01*
X41182Y155718D01*
X40879Y155570D01*
X40572Y155430D01*
X40262Y155297D01*
X39949Y155171D01*
X39632Y155054D01*
X39313Y154944D01*
X38991Y154842D01*
X38667Y154748D01*
X38341Y154662D01*
X38013Y154584D01*
X37682Y154514D01*
X37351Y154452D01*
X37018Y154399D01*
X36683Y154353D01*
X36348Y154316D01*
X36012Y154287D01*
X35675Y154267D01*
X35337Y154254D01*
X35000Y154250D01*
X34663Y154254D01*
X34325Y154267D01*
X33988Y154287D01*
X33652Y154316D01*
X33317Y154353D01*
X32982Y154399D01*
X32649Y154452D01*
X32318Y154514D01*
X31987Y154584D01*
X31659Y154662D01*
X31333Y154748D01*
X31009Y154842D01*
X30687Y154944D01*
X30368Y155054D01*
X30051Y155171D01*
X29738Y155297D01*
X29428Y155430D01*
X29121Y155570D01*
X28818Y155718D01*
X28518Y155874D01*
X28223Y156036D01*
X27931Y156206D01*
X27644Y156383D01*
X27361Y156567D01*
X27083Y156758D01*
X26809Y156956D01*
X26541Y157160D01*
X26277Y157371D01*
X26019Y157588D01*
X25766Y157812D01*
X25519Y158042D01*
X25277Y158277D01*
X25042Y158519D01*
X24812Y158766D01*
X24588Y159019D01*
X24371Y159277D01*
X24160Y159541D01*
X23956Y159809D01*
X23758Y160083D01*
X23567Y160361D01*
X23383Y160644D01*
X23206Y160931D01*
X23036Y161223D01*
X22874Y161518D01*
X22718Y161818D01*
X22570Y162121D01*
X22430Y162428D01*
X22297Y162738D01*
X22171Y163051D01*
X22054Y163368D01*
X21944Y163687D01*
X21842Y164009D01*
X21748Y164333D01*
X21662Y164659D01*
X21584Y164987D01*
X21514Y165318D01*
X21452Y165649D01*
X21399Y165982D01*
X21353Y166317D01*
X21316Y166652D01*
X21287Y166988D01*
X21267Y167325D01*
X21254Y167663D01*
X21250Y168000D01*
X601250Y168000D02*
X601254Y168337D01*
X601267Y168675D01*
X601287Y169012D01*
X601316Y169348D01*
X601353Y169683D01*
X601399Y170018D01*
X601452Y170351D01*
X601514Y170682D01*
X601584Y171013D01*
X601662Y171341D01*
X601748Y171667D01*
X601842Y171991D01*
X601944Y172313D01*
X602054Y172632D01*
X602171Y172949D01*
X602297Y173262D01*
X602430Y173572D01*
X602570Y173879D01*
X602718Y174182D01*
X602874Y174482D01*
X603036Y174777D01*
X603206Y175069D01*
X603383Y175356D01*
X603567Y175639D01*
X603758Y175917D01*
X603956Y176191D01*
X604160Y176459D01*
X604371Y176723D01*
X604588Y176981D01*
X604812Y177234D01*
X605042Y177481D01*
X605277Y177723D01*
X605519Y177958D01*
X605766Y178188D01*
X606019Y178412D01*
X606277Y178629D01*
X606541Y178840D01*
X606809Y179044D01*
X607083Y179242D01*
X607361Y179433D01*
X607644Y179617D01*
X607931Y179794D01*
X608223Y179964D01*
X608518Y180126D01*
X608818Y180282D01*
X609121Y180430D01*
X609428Y180570D01*
X609738Y180703D01*
X610051Y180829D01*
X610368Y180946D01*
X610687Y181056D01*
X611009Y181158D01*
X611333Y181252D01*
X611659Y181338D01*
X611987Y181416D01*
X612318Y181486D01*
X612649Y181548D01*
X612982Y181601D01*
X613317Y181647D01*
X613652Y181684D01*
X613988Y181713D01*
X614325Y181733D01*
X614663Y181746D01*
X615000Y181750D01*
X615337Y181746D01*
X615675Y181733D01*
X616012Y181713D01*
X616348Y181684D01*
X616683Y181647D01*
X617018Y181601D01*
X617351Y181548D01*
X617682Y181486D01*
X618013Y181416D01*
X618341Y181338D01*
X618667Y181252D01*
X618991Y181158D01*
X619313Y181056D01*
X619632Y180946D01*
X619949Y180829D01*
X620262Y180703D01*
X620572Y180570D01*
X620879Y180430D01*
X621182Y180282D01*
X621482Y180126D01*
X621777Y179964D01*
X622069Y179794D01*
X622356Y179617D01*
X622639Y179433D01*
X622917Y179242D01*
X623191Y179044D01*
X623459Y178840D01*
X623723Y178629D01*
X623981Y178412D01*
X624234Y178188D01*
X624481Y177958D01*
X624723Y177723D01*
X624958Y177481D01*
X625188Y177234D01*
X625412Y176981D01*
X625629Y176723D01*
X625840Y176459D01*
X626044Y176191D01*
X626242Y175917D01*
X626433Y175639D01*
X626617Y175356D01*
X626794Y175069D01*
X626964Y174777D01*
X627126Y174482D01*
X627282Y174182D01*
X627430Y173879D01*
X627570Y173572D01*
X627703Y173262D01*
X627829Y172949D01*
X627946Y172632D01*
X628056Y172313D01*
X628158Y171991D01*
X628252Y171667D01*
X628338Y171341D01*
X628416Y171013D01*
X628486Y170682D01*
X628548Y170351D01*
X628601Y170018D01*
X628647Y169683D01*
X628684Y169348D01*
X628713Y169012D01*
X628733Y168675D01*
X628746Y168337D01*
X628750Y168000D01*
X628746Y167663D01*
X628733Y167325D01*
X628713Y166988D01*
X628684Y166652D01*
X628647Y166317D01*
X628601Y165982D01*
X628548Y165649D01*
X628486Y165318D01*
X628416Y164987D01*
X628338Y164659D01*
X628252Y164333D01*
X628158Y164009D01*
X628056Y163687D01*
X627946Y163368D01*
X627829Y163051D01*
X627703Y162738D01*
X627570Y162428D01*
X627430Y162121D01*
X627282Y161818D01*
X627126Y161518D01*
X626964Y161223D01*
X626794Y160931D01*
X626617Y160644D01*
X626433Y160361D01*
X626242Y160083D01*
X626044Y159809D01*
X625840Y159541D01*
X625629Y159277D01*
X625412Y159019D01*
X625188Y158766D01*
X624958Y158519D01*
X624723Y158277D01*
X624481Y158042D01*
X624234Y157812D01*
X623981Y157588D01*
X623723Y157371D01*
X623459Y157160D01*
X623191Y156956D01*
X622917Y156758D01*
X622639Y156567D01*
X622356Y156383D01*
X622069Y156206D01*
X621777Y156036D01*
X621482Y155874D01*
X621182Y155718D01*
X620879Y155570D01*
X620572Y155430D01*
X620262Y155297D01*
X619949Y155171D01*
X619632Y155054D01*
X619313Y154944D01*
X618991Y154842D01*
X618667Y154748D01*
X618341Y154662D01*
X618013Y154584D01*
X617682Y154514D01*
X617351Y154452D01*
X617018Y154399D01*
X616683Y154353D01*
X616348Y154316D01*
X616012Y154287D01*
X615675Y154267D01*
X615337Y154254D01*
X615000Y154250D01*
X614663Y154254D01*
X614325Y154267D01*
X613988Y154287D01*
X613652Y154316D01*
X613317Y154353D01*
X612982Y154399D01*
X612649Y154452D01*
X612318Y154514D01*
X611987Y154584D01*
X611659Y154662D01*
X611333Y154748D01*
X611009Y154842D01*
X610687Y154944D01*
X610368Y155054D01*
X610051Y155171D01*
X609738Y155297D01*
X609428Y155430D01*
X609121Y155570D01*
X608818Y155718D01*
X608518Y155874D01*
X608223Y156036D01*
X607931Y156206D01*
X607644Y156383D01*
X607361Y156567D01*
X607083Y156758D01*
X606809Y156956D01*
X606541Y157160D01*
X606277Y157371D01*
X606019Y157588D01*
X605766Y157812D01*
X605519Y158042D01*
X605277Y158277D01*
X605042Y158519D01*
X604812Y158766D01*
X604588Y159019D01*
X604371Y159277D01*
X604160Y159541D01*
X603956Y159809D01*
X603758Y160083D01*
X603567Y160361D01*
X603383Y160644D01*
X603206Y160931D01*
X603036Y161223D01*
X602874Y161518D01*
X602718Y161818D01*
X602570Y162121D01*
X602430Y162428D01*
X602297Y162738D01*
X602171Y163051D01*
X602054Y163368D01*
X601944Y163687D01*
X601842Y164009D01*
X601748Y164333D01*
X601662Y164659D01*
X601584Y164987D01*
X601514Y165318D01*
X601452Y165649D01*
X601399Y165982D01*
X601353Y166317D01*
X601316Y166652D01*
X601287Y166988D01*
X601267Y167325D01*
X601254Y167663D01*
X601250Y168000D01*
M02*
