G04 EAGLE Gerber RS-274X export*
G75*
%MOMM*%
%FSLAX34Y34*%
%LPD*%
%INSolder Mask bottom*%
%IPPOS*%
%AMOC8*
5,1,8,0,0,1.08239X$1,22.5*%
G01*
%ADD10C,1.381250*%
%ADD11C,1.725000*%
%ADD12C,2.750000*%
%ADD13R,1.778000X1.778000*%
%ADD14C,1.778000*%


D10*
X110950Y107470D03*
X110950Y82070D03*
X110950Y56670D03*
D11*
X84650Y107470D03*
X84650Y56670D03*
D12*
X35000Y168000D03*
X615000Y168000D03*
D13*
X83700Y155300D03*
D14*
X83700Y180700D03*
X109100Y155300D03*
X109100Y180700D03*
X134500Y155300D03*
X134500Y180700D03*
X159900Y155300D03*
X159900Y180700D03*
X185300Y155300D03*
X185300Y180700D03*
X210700Y155300D03*
X210700Y180700D03*
X236100Y155300D03*
X236100Y180700D03*
X261500Y155300D03*
X261500Y180700D03*
X286900Y155300D03*
X286900Y180700D03*
X312300Y155300D03*
X312300Y180700D03*
X337700Y155300D03*
X337700Y180700D03*
X363100Y155300D03*
X363100Y180700D03*
X388500Y155300D03*
X388500Y180700D03*
X413900Y155300D03*
X413900Y180700D03*
X439300Y155300D03*
X439300Y180700D03*
X464700Y155300D03*
X464700Y180700D03*
X490100Y155300D03*
X490100Y180700D03*
X515500Y155300D03*
X515500Y180700D03*
X540900Y155300D03*
X540900Y180700D03*
X566300Y155300D03*
X566300Y180700D03*
M02*
