G04 EAGLE Gerber RS-274X export*
G75*
%MOMM*%
%FSLAX34Y34*%
%LPD*%
%INSolder paste top*%
%IPPOS*%
%AMOC8*
5,1,8,0,0,1.08239X$1,22.5*%
G01*
%ADD10R,1.080000X1.050000*%
%ADD11R,1.800000X0.450000*%
%ADD12R,1.000000X0.450000*%
%ADD13R,1.900000X1.200000*%


D10*
X227330Y81930D03*
X227330Y64430D03*
X349250Y122570D03*
X349250Y105070D03*
X251460Y23790D03*
X251460Y41290D03*
X323850Y41290D03*
X323850Y23790D03*
X154940Y86020D03*
X154940Y103520D03*
D11*
X252790Y124020D03*
X252790Y117520D03*
X252790Y111020D03*
X252790Y104520D03*
X252790Y98020D03*
X252790Y91520D03*
X252790Y85020D03*
X252790Y78520D03*
X252790Y72020D03*
X252790Y65520D03*
X323790Y65520D03*
X323790Y72020D03*
X323790Y78520D03*
X323790Y85020D03*
X323790Y91520D03*
X323790Y98020D03*
X323790Y104520D03*
X323790Y111020D03*
X323790Y117520D03*
X323790Y124020D03*
D12*
X176690Y109310D03*
X196690Y109310D03*
X176690Y101310D03*
X196690Y101310D03*
X176690Y93310D03*
X196690Y93310D03*
X176690Y85310D03*
X196690Y85310D03*
D13*
X275690Y24540D03*
X300890Y24540D03*
X300890Y40540D03*
X275690Y40540D03*
M02*
