M48
FMAT,2
ICI,OFF
METRIC,TZ,000.000
M71
T01C0.100
T02C0.200
%
T01
X5000Y9500
X5200Y9500
X5400Y9500
X5600Y9500
X5800Y9500
X6000Y9500
X6200Y9500
X6400Y9500
X6600Y9500
X6800Y9500
X7000Y9500
X7200Y9500
X7400Y9500
X7600Y9500
X7800Y9500
X8000Y9500
X8200Y9500
X8400Y9500
X8600Y9500
X8800Y9500
X9000Y9500

T02
X5000Y500
X5400Y500
X5800Y500
X6200Y500
X6600Y500
X7000Y500
X7400Y500
X7800Y500
X8200Y500
X8600Y500
X9000Y500

M30
