M48
FMAT,2
ICI,OFF
INCH,TZ,00.0000
M72
T01C0.0039
T02C0.0078
%
T01
X1969Y3740
X2047Y3740
X2126Y3740
X2205Y3740
X2283Y3740
X2362Y3740
X2441Y3740
X2520Y3740
X2598Y3740
X2677Y3740
X2756Y3740
X2835Y3740
X2913Y3740
X2992Y3740
X3071Y3740
X3150Y3740
X3228Y3740
X3307Y3740
X3386Y3740
X3465Y3740
X3543Y3740
T02
X1969Y197
X2126Y197
X2283Y197
X2441Y197
X2598Y197
X2756Y197
X2913Y197
X3071Y197
X3228Y197
X3386Y197
X3543Y197
M30
